OHamburgC-RegularCondensed.ufo
<glyph name="exclam" format="2">
  <advance width="204"/>
  <unicode hex="0021"/>
  <outline>
    <contour>
      <point x="103" y="-8" type="curve" smooth="yes"/>
      <point x="126" y="-8"/>
      <point x="141" y="11"/>
      <point x="145" y="34" type="curve" smooth="yes"/>
      <point x="149" y="57"/>
      <point x="130" y="76"/>
      <point x="103" y="76" type="curve" smooth="yes"/>
      <point x="80" y="76"/>
      <point x="61" y="57"/>
      <point x="61" y="34" type="curve" smooth="yes"/>
      <point x="61" y="11"/>
      <point x="80" y="-8"/>
    </contour>
    <contour>
      <point x="73" y="176" type="curve"/>
      <point x="133" y="184" type="line"/>
      <point x="131" y="319"/>
      <point x="140" y="475"/>
      <point x="156" y="630" type="curve"/>
      <point x="48" y="618" type="line"/>
      <point x="66" y="467"/>
      <point x="77" y="307"/>
    </contour>
  </outline>
</glyph>
<glyph name="quotedbl" format="2">
  <advance width="362"/>
  <unicode hex="0022"/>
  <outline>
    <contour>
      <point x="73" y="428" type="line"/>
      <point x="94" y="428" type="line"/>
      <point x="144" y="606" type="line"/>
      <point x="153" y="640"/>
      <point x="138" y="664"/>
      <point x="110" y="664" type="curve" smooth="yes"/>
      <point x="81" y="664"/>
      <point x="63" y="640"/>
      <point x="64" y="606" type="curve"/>
    </contour>
    <contour>
      <point x="224" y="428" type="line"/>
      <point x="245" y="428" type="line"/>
      <point x="295" y="606" type="line"/>
      <point x="304" y="640"/>
      <point x="289" y="664"/>
      <point x="261" y="664" type="curve" smooth="yes"/>
      <point x="232" y="664"/>
      <point x="214" y="640"/>
      <point x="215" y="606" type="curve"/>
    </contour>
  </outline>
</glyph>
<glyph name="percent" format="2">
  <advance width="654"/>
  <unicode hex="0025"/>
  <outline>
    <contour>
      <point x="89" y="-2" type="line"/>
      <point x="138" y="-2" type="line"/>
      <point x="567" y="614" type="line"/>
      <point x="518" y="614" type="line"/>
    </contour>
    <contour>
      <point x="479" y="-16" type="curve" smooth="yes"/>
      <point x="553" y="-16"/>
      <point x="606" y="54"/>
      <point x="606" y="153" type="curve" smooth="yes"/>
      <point x="606" y="244"/>
      <point x="553" y="308"/>
      <point x="479" y="308" type="curve" smooth="yes"/>
      <point x="404" y="308"/>
      <point x="351" y="242"/>
      <point x="351" y="149" type="curve" smooth="yes"/>
      <point x="351" y="52"/>
      <point x="404" y="-16"/>
    </contour>
    <contour>
      <point x="486" y="10" type="curve" smooth="yes"/>
      <point x="443" y="10"/>
      <point x="413" y="73"/>
      <point x="413" y="161" type="curve" smooth="yes"/>
      <point x="413" y="232"/>
      <point x="438" y="282"/>
      <point x="473" y="282" type="curve" smooth="yes"/>
      <point x="515" y="282"/>
      <point x="544" y="223"/>
      <point x="544" y="139" type="curve" smooth="yes"/>
      <point x="544" y="63"/>
      <point x="520" y="10"/>
    </contour>
    <contour>
      <point x="176" y="304" type="curve" smooth="yes"/>
      <point x="250" y="304"/>
      <point x="303" y="374"/>
      <point x="303" y="473" type="curve" smooth="yes"/>
      <point x="303" y="563"/>
      <point x="250" y="627"/>
      <point x="176" y="627" type="curve" smooth="yes"/>
      <point x="101" y="627"/>
      <point x="48" y="562"/>
      <point x="48" y="469" type="curve" smooth="yes"/>
      <point x="48" y="372"/>
      <point x="101" y="304"/>
    </contour>
    <contour>
      <point x="182" y="330" type="curve" smooth="yes"/>
      <point x="140" y="330"/>
      <point x="110" y="393"/>
      <point x="110" y="481" type="curve" smooth="yes"/>
      <point x="110" y="551"/>
      <point x="135" y="601"/>
      <point x="170" y="601" type="curve" smooth="yes"/>
      <point x="212" y="601"/>
      <point x="241" y="542"/>
      <point x="241" y="459" type="curve" smooth="yes"/>
      <point x="241" y="383"/>
      <point x="217" y="330"/>
    </contour>
  </outline>
</glyph>
<glyph name="ampersand" format="2">
  <advance width="746"/>
  <unicode hex="0026"/>
  <outline>
    <contour>
      <point x="265" y="-11" type="curve" smooth="yes"/>
      <point x="432" y="-11"/>
      <point x="519" y="157"/>
      <point x="628" y="309" type="curve" smooth="yes"/>
      <point x="649" y="339"/>
      <point x="689" y="353"/>
      <point x="722" y="353" type="curve"/>
      <point x="722" y="384" type="line"/>
      <point x="522" y="384" type="line"/>
      <point x="522" y="354" type="line"/>
      <point x="564" y="347"/>
      <point x="575" y="340"/>
      <point x="575" y="326" type="curve" smooth="yes"/>
      <point x="575" y="312"/>
      <point x="563" y="290"/>
      <point x="542" y="254" type="curve" smooth="yes"/>
      <point x="507" y="193"/>
      <point x="405" y="43"/>
      <point x="306" y="43" type="curve" smooth="yes"/>
      <point x="214" y="43"/>
      <point x="144" y="106"/>
      <point x="144" y="199" type="curve" smooth="yes"/>
      <point x="144" y="359"/>
      <point x="416" y="380"/>
      <point x="416" y="532" type="curve" smooth="yes"/>
      <point x="416" y="584"/>
      <point x="363" y="627"/>
      <point x="286" y="627" type="curve" smooth="yes"/>
      <point x="208" y="627"/>
      <point x="152" y="568"/>
      <point x="152" y="484" type="curve" smooth="yes"/>
      <point x="152" y="417"/>
      <point x="212" y="305"/>
      <point x="297" y="213" type="curve" smooth="yes"/>
      <point x="420" y="80"/>
      <point x="544" y="-14"/>
      <point x="615" y="-14" type="curve" smooth="yes"/>
      <point x="662" y="-14"/>
      <point x="708" y="-5"/>
      <point x="730" y="8" type="curve"/>
      <point x="721" y="37" type="line"/>
      <point x="713" y="32"/>
      <point x="704" y="29"/>
      <point x="692" y="28" type="curve" smooth="yes"/>
      <point x="619" y="20"/>
      <point x="477" y="124"/>
      <point x="362" y="258" type="curve" smooth="yes"/>
      <point x="283" y="351"/>
      <point x="216" y="451"/>
      <point x="216" y="511" type="curve" smooth="yes"/>
      <point x="216" y="561"/>
      <point x="238" y="597"/>
      <point x="268" y="597" type="curve" smooth="yes"/>
      <point x="317" y="597"/>
      <point x="336" y="545"/>
      <point x="336" y="500" type="curve" smooth="yes"/>
      <point x="336" y="381"/>
      <point x="64" y="371"/>
      <point x="64" y="153" type="curve" smooth="yes"/>
      <point x="64" y="51"/>
      <point x="148" y="-11"/>
    </contour>
  </outline>
</glyph>
<glyph name="quotesingle" format="2">
  <advance width="218"/>
  <unicode hex="0027"/>
  <outline>
    <contour>
      <point x="64" y="428" type="line"/>
      <point x="85" y="428" type="line"/>
      <point x="151" y="606" type="line"/>
      <point x="160" y="640"/>
      <point x="145" y="664"/>
      <point x="117" y="664" type="curve" smooth="yes"/>
      <point x="88" y="664"/>
      <point x="70" y="640"/>
      <point x="71" y="606" type="curve"/>
    </contour>
  </outline>
</glyph>
<glyph name="parenleft" format="2">
  <advance width="260"/>
  <unicode hex="0028"/>
  <outline>
    <contour>
      <point x="126" y="281" type="curve" smooth="yes"/>
      <point x="126" y="437"/>
      <point x="180" y="607"/>
      <point x="244" y="692" type="curve"/>
      <point x="225" y="720" type="line"/>
      <point x="132" y="634"/>
      <point x="64" y="452"/>
      <point x="64" y="281" type="curve" smooth="yes"/>
      <point x="64" y="110"/>
      <point x="132" y="-72"/>
      <point x="225" y="-158" type="curve"/>
      <point x="244" y="-130" type="line"/>
      <point x="180" y="-45"/>
      <point x="126" y="125"/>
    </contour>
  </outline>
</glyph>
<glyph name="asterisk" format="2">
  <advance width="316"/>
  <unicode hex="002A"/>
  <outline>
    <contour>
      <point x="155" y="530" type="curve" smooth="yes"/>
      <point x="161" y="530" type="line"/>
      <point x="161" y="537"/>
      <point x="182" y="581"/>
      <point x="182" y="596" type="curve" smooth="yes"/>
      <point x="182" y="613"/>
      <point x="171" y="624"/>
      <point x="156" y="624" type="curve" smooth="yes"/>
      <point x="140" y="624"/>
      <point x="129" y="614"/>
      <point x="129" y="597" type="curve" smooth="yes"/>
      <point x="129" y="585"/>
      <point x="155" y="538"/>
    </contour>
    <contour>
      <point x="179" y="524" type="curve" smooth="yes"/>
      <point x="184" y="519" type="line"/>
      <point x="189" y="524"/>
      <point x="233" y="539"/>
      <point x="245" y="552" type="curve"/>
      <point x="256" y="563"/>
      <point x="257" y="579"/>
      <point x="246" y="590" type="curve" smooth="yes"/>
      <point x="235" y="600"/>
      <point x="219" y="600"/>
      <point x="208" y="589" type="curve" smooth="yes"/>
      <point x="199" y="581"/>
      <point x="184" y="529"/>
    </contour>
    <contour>
      <point x="190" y="501" type="curve" smooth="yes"/>
      <point x="190" y="494" type="line"/>
      <point x="197" y="494"/>
      <point x="239" y="473"/>
      <point x="256" y="473" type="curve" smooth="yes"/>
      <point x="272" y="473"/>
      <point x="284" y="485"/>
      <point x="284" y="500" type="curve" smooth="yes"/>
      <point x="284" y="515"/>
      <point x="272" y="526"/>
      <point x="257" y="526" type="curve" smooth="yes"/>
      <point x="244" y="526"/>
      <point x="198" y="501"/>
    </contour>
    <contour>
      <point x="184" y="479" type="curve" smooth="yes"/>
      <point x="179" y="473" type="line"/>
      <point x="184" y="468"/>
      <point x="199" y="424"/>
      <point x="210" y="411" type="curve" smooth="yes"/>
      <point x="223" y="400"/>
      <point x="238" y="399"/>
      <point x="250" y="410" type="curve" smooth="yes"/>
      <point x="260" y="422"/>
      <point x="260" y="437"/>
      <point x="249" y="449" type="curve" smooth="yes"/>
      <point x="239" y="458"/>
      <point x="189" y="472"/>
    </contour>
    <contour>
      <point x="162" y="467" type="curve" smooth="yes"/>
      <point x="155" y="467" type="line"/>
      <point x="155" y="459"/>
      <point x="134" y="417"/>
      <point x="134" y="400" type="curve" smooth="yes"/>
      <point x="134" y="384"/>
      <point x="145" y="372"/>
      <point x="161" y="372" type="curve" smooth="yes"/>
      <point x="176" y="372"/>
      <point x="187" y="383"/>
      <point x="187" y="399" type="curve" smooth="yes"/>
      <point x="187" y="411"/>
      <point x="162" y="458"/>
    </contour>
    <contour>
      <point x="138" y="472" type="curve" smooth="yes"/>
      <point x="133" y="477" type="line"/>
      <point x="128" y="472"/>
      <point x="84" y="457"/>
      <point x="72" y="446" type="curve"/>
      <point x="60" y="433"/>
      <point x="60" y="418"/>
      <point x="70" y="406" type="curve" smooth="yes"/>
      <point x="82" y="396"/>
      <point x="97" y="396"/>
      <point x="108" y="407" type="curve" smooth="yes"/>
      <point x="118" y="417"/>
      <point x="132" y="467"/>
    </contour>
    <contour>
      <point x="127" y="496" type="curve" smooth="yes"/>
      <point x="127" y="502" type="line"/>
      <point x="120" y="502"/>
      <point x="76" y="523"/>
      <point x="61" y="523" type="curve" smooth="yes"/>
      <point x="43" y="523"/>
      <point x="32" y="512"/>
      <point x="32" y="496" type="curve" smooth="yes"/>
      <point x="32" y="482"/>
      <point x="43" y="470"/>
      <point x="60" y="470" type="curve" smooth="yes"/>
      <point x="72" y="470"/>
      <point x="119" y="496"/>
    </contour>
    <contour>
      <point x="133" y="519" type="curve" smooth="yes"/>
      <point x="138" y="523" type="line"/>
      <point x="132" y="529"/>
      <point x="118" y="572"/>
      <point x="105" y="585" type="curve" smooth="yes"/>
      <point x="94" y="596"/>
      <point x="77" y="597"/>
      <point x="67" y="586" type="curve" smooth="yes"/>
      <point x="56" y="576"/>
      <point x="56" y="559"/>
      <point x="68" y="548" type="curve" smooth="yes"/>
      <point x="76" y="539"/>
      <point x="127" y="524"/>
    </contour>
  </outline>
</glyph>
<glyph name="plus" format="2">
  <advance width="582"/>
  <unicode hex="002B"/>
  <outline>
    <contour>
      <point x="265" y="28" type="line"/>
      <point x="315" y="28" type="line"/>
      <point x="315" y="256" type="line"/>
      <point x="534" y="256" type="line"/>
      <point x="534" y="306" type="line"/>
      <point x="315" y="306" type="line"/>
      <point x="315" y="528" type="line"/>
      <point x="265" y="528" type="line"/>
      <point x="265" y="306" type="line"/>
      <point x="48" y="306" type="line"/>
      <point x="48" y="256" type="line"/>
      <point x="265" y="256" type="line"/>
    </contour>
  </outline>
</glyph>
<glyph name="comma" format="2">
  <advance width="240"/>
  <unicode hex="002C"/>
  <outline>
    <contour>
      <point x="57" y="-138" type="curve"/>
      <point x="67" y="-165" type="line"/>
      <point x="142" y="-135"/>
      <point x="192" y="-63"/>
      <point x="192" y="8" type="curve" smooth="yes"/>
      <point x="192" y="54"/>
      <point x="160" y="91"/>
      <point x="110" y="91" type="curve" smooth="yes"/>
      <point x="74" y="91"/>
      <point x="48" y="67"/>
      <point x="48" y="38" type="curve" smooth="yes"/>
      <point x="48" y="16"/>
      <point x="62" y="-5"/>
      <point x="82" y="-5" type="curve" smooth="yes"/>
      <point x="100" y="-5"/>
      <point x="103" y="2"/>
      <point x="118" y="2" type="curve" smooth="yes"/>
      <point x="132" y="2"/>
      <point x="140" y="-14"/>
      <point x="140" y="-37" type="curve" smooth="yes"/>
      <point x="140" y="-86"/>
      <point x="105" y="-125"/>
    </contour>
  </outline>
</glyph>
<glyph name="hyphen" format="2">
  <advance width="316"/>
  <unicode hex="002D"/>
  <outline>
    <contour>
      <point x="35" y="186" type="line"/>
      <point x="281" y="190" type="line"/>
      <point x="284" y="253" type="line"/>
      <point x="235" y="253" type="line"/>
      <point x="73" y="239" type="line"/>
      <point x="32" y="231" type="line"/>
    </contour>
  </outline>
</glyph>
<glyph name="period" format="2">
  <advance width="222"/>
  <unicode hex="002E"/>
  <outline>
    <contour>
      <point x="111" y="-6" type="curve" smooth="yes"/>
      <point x="148" y="-6"/>
      <point x="174" y="20"/>
      <point x="174" y="56" type="curve" smooth="yes"/>
      <point x="174" y="92"/>
      <point x="148" y="118"/>
      <point x="111" y="118" type="curve" smooth="yes"/>
      <point x="74" y="118"/>
      <point x="48" y="92"/>
      <point x="48" y="56" type="curve" smooth="yes"/>
      <point x="48" y="20"/>
      <point x="74" y="-6"/>
    </contour>
  </outline>
</glyph>
<glyph name="slash" format="2">
  <advance width="388"/>
  <unicode hex="002F"/>
  <outline>
    <contour>
      <point x="32" y="-162" type="line"/>
      <point x="85" y="-162" type="line"/>
      <point x="356" y="694" type="line"/>
      <point x="303" y="694" type="line"/>
    </contour>
  </outline>
</glyph>
<glyph name="zero" format="2">
  <advance width="531"/>
  <unicode hex="0030"/>
  <outline>
    <contour>
      <point x="263" y="-11" type="curve" smooth="yes"/>
      <point x="401" y="-11"/>
      <point x="499" y="127"/>
      <point x="499" y="321" type="curve" smooth="yes"/>
      <point x="499" y="500"/>
      <point x="401" y="626"/>
      <point x="263" y="626" type="curve" smooth="yes"/>
      <point x="128" y="626"/>
      <point x="32" y="500"/>
      <point x="32" y="321" type="curve" smooth="yes"/>
      <point x="32" y="127"/>
      <point x="128" y="-11"/>
    </contour>
    <contour>
      <point x="291" y="28" type="curve" smooth="yes"/>
      <point x="205" y="21"/>
      <point x="128" y="137"/>
      <point x="114" y="308" type="curve" smooth="yes"/>
      <point x="104" y="462"/>
      <point x="157" y="577"/>
      <point x="233" y="585" type="curve" smooth="yes"/>
      <point x="326" y="592"/>
      <point x="408" y="487"/>
      <point x="417" y="332" type="curve" smooth="yes"/>
      <point x="429" y="162"/>
      <point x="371" y="37"/>
    </contour>
  </outline>
</glyph>
<glyph name="one" format="2">
  <advance width="444"/>
  <unicode hex="0031"/>
  <outline>
    <contour>
      <point x="79" y="0" type="line"/>
      <point x="159" y="3"/>
      <point x="298" y="3"/>
      <point x="397" y="0" type="curve"/>
      <point x="397" y="29" type="line"/>
      <point x="345" y="33"/>
      <point x="310" y="37"/>
      <point x="300" y="44" type="curve" smooth="yes"/>
      <point x="282" y="56"/>
      <point x="269" y="63"/>
      <point x="268" y="105" type="curve" smooth="yes"/>
      <point x="267" y="138"/>
      <point x="268" y="392"/>
      <point x="268" y="465" type="curve" smooth="yes"/>
      <point x="268" y="516"/>
      <point x="270" y="588"/>
      <point x="274" y="628" type="curve"/>
      <point x="56" y="557" type="line"/>
      <point x="56" y="524" type="line"/>
      <point x="112" y="540"/>
      <point x="192" y="554"/>
      <point x="192" y="494" type="curve" smooth="yes"/>
      <point x="192" y="434"/>
      <point x="193" y="124"/>
      <point x="192" y="101" type="curve" smooth="yes"/>
      <point x="191" y="68"/>
      <point x="175" y="58"/>
      <point x="158" y="47" type="curve" smooth="yes"/>
      <point x="147" y="40"/>
      <point x="130" y="34"/>
      <point x="79" y="29" type="curve"/>
    </contour>
  </outline>
</glyph>
<glyph name="two" format="2">
  <advance width="484"/>
  <unicode hex="0032"/>
  <outline>
    <contour>
      <point x="27" y="-4" type="line"/>
      <point x="159" y="4"/>
      <point x="352" y="4"/>
      <point x="423" y="-4" type="curve"/>
      <point x="452" y="91" type="line"/>
      <point x="442" y="90" type="line"/>
      <point x="380" y="60"/>
      <point x="178" y="60"/>
      <point x="85" y="60" type="curve"/>
      <point x="84" y="43" type="line"/>
      <point x="319" y="251"/>
      <point x="425" y="339"/>
      <point x="425" y="480" type="curve" smooth="yes"/>
      <point x="425" y="567"/>
      <point x="357" y="628"/>
      <point x="262" y="628" type="curve" smooth="yes"/>
      <point x="186" y="628"/>
      <point x="98" y="579"/>
      <point x="49" y="509" type="curve"/>
      <point x="74" y="487" type="line"/>
      <point x="116" y="532"/>
      <point x="169" y="571"/>
      <point x="206" y="571" type="curve" smooth="yes"/>
      <point x="291" y="571"/>
      <point x="348" y="522"/>
      <point x="348" y="453" type="curve" smooth="yes"/>
      <point x="348" y="322"/>
      <point x="264" y="256"/>
      <point x="16" y="26" type="curve"/>
    </contour>
  </outline>
</glyph>
<glyph name="three" format="2">
  <advance width="466"/>
  <unicode hex="0033"/>
  <outline>
    <contour>
      <point x="44" y="-32" type="line"/>
      <point x="263" y="4"/>
      <point x="418" y="124"/>
      <point x="418" y="258" type="curve" smooth="yes"/>
      <point x="418" y="326"/>
      <point x="363" y="374"/>
      <point x="285" y="374" type="curve" smooth="yes"/>
      <point x="245" y="374"/>
      <point x="197" y="367"/>
      <point x="168" y="356" type="curve" smooth="yes"/>
      <point x="189" y="365"/>
      <point x="161" y="362"/>
      <point x="100" y="347" type="curve"/>
      <point x="119" y="316" type="line"/>
      <point x="148" y="325"/>
      <point x="185" y="334"/>
      <point x="204" y="334" type="curve" smooth="yes"/>
      <point x="286" y="334"/>
      <point x="337" y="290"/>
      <point x="337" y="228" type="curve" smooth="yes"/>
      <point x="337" y="125"/>
      <point x="215" y="37"/>
      <point x="32" y="7" type="curve"/>
    </contour>
    <contour>
      <point x="119" y="316" type="line"/>
      <point x="134" y="322"/>
      <point x="161" y="348"/>
      <point x="190" y="359" type="curve" smooth="yes"/>
      <point x="308" y="402"/>
      <point x="392" y="476"/>
      <point x="392" y="537" type="curve" smooth="yes"/>
      <point x="392" y="589"/>
      <point x="338" y="625"/>
      <point x="261" y="625" type="curve" smooth="yes"/>
      <point x="200" y="625"/>
      <point x="117" y="591"/>
      <point x="62" y="544" type="curve"/>
      <point x="83" y="514" type="line"/>
      <point x="125" y="542"/>
      <point x="181" y="569"/>
      <point x="219" y="569" type="curve" smooth="yes"/>
      <point x="270" y="569"/>
      <point x="303" y="544"/>
      <point x="303" y="508" type="curve" smooth="yes"/>
      <point x="303" y="448"/>
      <point x="221" y="382"/>
      <point x="100" y="347" type="curve"/>
    </contour>
  </outline>
</glyph>
<glyph name="four" format="2">
  <advance width="500"/>
  <unicode hex="0034"/>
  <outline>
    <contour>
      <point x="305" y="1" type="curve"/>
      <point x="382" y="1" type="line"/>
      <point x="382" y="167"/>
      <point x="382" y="411"/>
      <point x="387" y="616" type="curve"/>
      <point x="338" y="616" type="line"/>
      <point x="16" y="210" type="line"/>
      <point x="16" y="173" type="line"/>
      <point x="178" y="173"/>
      <point x="306" y="167"/>
      <point x="468" y="164" type="curve"/>
      <point x="468" y="219" type="line"/>
      <point x="317" y="216"/>
      <point x="199" y="213"/>
      <point x="48" y="213" type="curve"/>
      <point x="54" y="196" type="line"/>
      <point x="338" y="557" type="line"/>
      <point x="316" y="554" type="line"/>
      <point x="305" y="376"/>
      <point x="305" y="155"/>
    </contour>
  </outline>
</glyph>
<glyph name="five" format="2">
  <advance width="534"/>
  <unicode hex="0035"/>
  <outline>
    <contour>
      <point x="80" y="-35" type="line"/>
      <point x="259" y="4"/>
      <point x="390" y="115"/>
      <point x="390" y="247" type="curve" smooth="yes"/>
      <point x="390" y="343"/>
      <point x="289" y="418"/>
      <point x="141" y="458" type="curve"/>
      <point x="143" y="434" type="line"/>
      <point x="205" y="595" type="line"/>
      <point x="168" y="558" type="line"/>
      <point x="218" y="565"/>
      <point x="373" y="555"/>
      <point x="426" y="538" type="curve"/>
      <point x="436" y="532" type="line"/>
      <point x="470" y="625" type="line"/>
      <point x="373" y="621"/>
      <point x="223" y="619"/>
      <point x="179" y="625" type="curve"/>
      <point x="91" y="401" type="line"/>
      <point x="234" y="357"/>
      <point x="316" y="281"/>
      <point x="316" y="215" type="curve" smooth="yes"/>
      <point x="316" y="120"/>
      <point x="209" y="40"/>
      <point x="64" y="-2" type="curve"/>
    </contour>
  </outline>
</glyph>
<glyph name="six" format="2">
  <advance width="486"/>
  <unicode hex="0036"/>
  <outline>
    <contour>
      <point x="257" y="-11" type="curve" smooth="yes"/>
      <point x="372" y="-11"/>
      <point x="454" y="75"/>
      <point x="454" y="197" type="curve" smooth="yes"/>
      <point x="454" y="302"/>
      <point x="374" y="377"/>
      <point x="260" y="377" type="curve" smooth="yes"/>
      <point x="220" y="377"/>
      <point x="175" y="362"/>
      <point x="151" y="340" type="curve"/>
      <point x="166" y="321" type="line"/>
      <point x="182" y="330"/>
      <point x="205" y="337"/>
      <point x="223" y="337" type="curve" smooth="yes"/>
      <point x="307" y="337"/>
      <point x="368" y="268"/>
      <point x="368" y="173" type="curve" smooth="yes"/>
      <point x="368" y="89"/>
      <point x="320" y="30"/>
      <point x="256" y="30" type="curve" smooth="yes"/>
      <point x="179" y="30"/>
      <point x="118" y="133"/>
      <point x="118" y="279" type="curve" smooth="yes"/>
      <point x="118" y="413"/>
      <point x="227" y="541"/>
      <point x="376" y="588" type="curve"/>
      <point x="363" y="627" type="line"/>
      <point x="169" y="566"/>
      <point x="32" y="409"/>
      <point x="32" y="247" type="curve" smooth="yes"/>
      <point x="32" y="96"/>
      <point x="125" y="-11"/>
    </contour>
  </outline>
</glyph>
<glyph name="seven" format="2">
  <advance width="482"/>
  <unicode hex="0037"/>
  <outline>
    <contour>
      <point x="88" y="-44" type="line"/>
      <point x="139" y="-75" type="line"/>
      <point x="466" y="608" type="line"/>
      <point x="459" y="623" type="line"/>
      <point x="337" y="613"/>
      <point x="141" y="613"/>
      <point x="70" y="621" type="curve"/>
      <point x="32" y="516" type="line"/>
      <point x="41" y="512" type="line"/>
      <point x="107" y="539"/>
      <point x="203" y="553"/>
      <point x="403" y="539" type="curve"/>
      <point x="417" y="579" type="line"/>
    </contour>
  </outline>
</glyph>
<glyph name="eight" format="2">
  <advance width="504"/>
  <unicode hex="0038"/>
  <outline>
    <contour>
      <point x="245" y="-11" type="line"/>
      <point x="369" y="-11"/>
      <point x="456" y="67"/>
      <point x="456" y="177" type="curve"/>
      <point x="456" y="324"/>
      <point x="119" y="367"/>
      <point x="119" y="482" type="curve" smooth="yes"/>
      <point x="119" y="546"/>
      <point x="185" y="591"/>
      <point x="252" y="591" type="curve"/>
      <point x="252" y="625" type="line"/>
      <point x="149" y="625"/>
      <point x="58" y="552"/>
      <point x="58" y="450" type="curve" smooth="yes"/>
      <point x="58" y="295"/>
      <point x="397" y="243"/>
      <point x="397" y="146" type="curve"/>
      <point x="397" y="75"/>
      <point x="334" y="24"/>
      <point x="245" y="24" type="curve"/>
    </contour>
    <contour>
      <point x="245" y="-11" type="curve"/>
      <point x="245" y="24" type="line"/>
      <point x="171" y="24"/>
      <point x="119" y="80"/>
      <point x="119" y="160" type="curve" smooth="yes"/>
      <point x="119" y="207"/>
      <point x="170" y="269"/>
      <point x="243" y="309" type="curve"/>
      <point x="207" y="323" type="line"/>
      <point x="114" y="276"/>
      <point x="48" y="205"/>
      <point x="48" y="152" type="curve" smooth="yes"/>
      <point x="48" y="57"/>
      <point x="130" y="-11"/>
    </contour>
    <contour>
      <point x="252" y="625" type="curve"/>
      <point x="252" y="591" type="line"/>
      <point x="315" y="591"/>
      <point x="359" y="545"/>
      <point x="359" y="481" type="curve" smooth="yes"/>
      <point x="359" y="434"/>
      <point x="314" y="376"/>
      <point x="250" y="341" type="curve"/>
      <point x="287" y="327" type="line"/>
      <point x="371" y="369"/>
      <point x="431" y="436"/>
      <point x="431" y="489" type="curve" smooth="yes"/>
      <point x="431" y="569"/>
      <point x="357" y="625"/>
    </contour>
  </outline>
</glyph>
<glyph name="nine" format="2">
  <advance width="518"/>
  <unicode hex="0039"/>
  <outline>
    <contour>
      <point x="245" y="627" type="curve" smooth="yes"/>
      <point x="130" y="627"/>
      <point x="48" y="541"/>
      <point x="48" y="419" type="curve" smooth="yes"/>
      <point x="48" y="314"/>
      <point x="128" y="239"/>
      <point x="242" y="239" type="curve" smooth="yes"/>
      <point x="282" y="239"/>
      <point x="327" y="254"/>
      <point x="351" y="276" type="curve"/>
      <point x="336" y="295" type="line"/>
      <point x="320" y="286"/>
      <point x="297" y="279"/>
      <point x="279" y="279" type="curve" smooth="yes"/>
      <point x="195" y="279"/>
      <point x="134" y="348"/>
      <point x="134" y="443" type="curve" smooth="yes"/>
      <point x="134" y="527"/>
      <point x="182" y="586"/>
      <point x="246" y="586" type="curve" smooth="yes"/>
      <point x="323" y="586"/>
      <point x="383" y="483"/>
      <point x="383" y="337" type="curve" smooth="yes"/>
      <point x="383" y="203"/>
      <point x="275" y="71"/>
      <point x="126" y="24" type="curve"/>
      <point x="139" y="-11" type="line"/>
      <point x="333" y="50"/>
      <point x="470" y="207"/>
      <point x="470" y="369" type="curve" smooth="yes"/>
      <point x="470" y="520"/>
      <point x="377" y="627"/>
    </contour>
  </outline>
</glyph>
<glyph name="colon" format="2">
  <advance width="222"/>
  <unicode hex="003A"/>
  <outline>
    <contour>
      <point x="117" y="213" type="curve" smooth="yes"/>
      <point x="148" y="213"/>
      <point x="174" y="234"/>
      <point x="174" y="259" type="curve" smooth="yes"/>
      <point x="174" y="284"/>
      <point x="148" y="305"/>
      <point x="117" y="305" type="curve" smooth="yes"/>
      <point x="86" y="305"/>
      <point x="62" y="284"/>
      <point x="62" y="259" type="curve" smooth="yes"/>
      <point x="62" y="234"/>
      <point x="86" y="213"/>
    </contour>
    <contour>
      <point x="105" y="-5" type="curve" smooth="yes"/>
      <point x="137" y="-5"/>
      <point x="160" y="16"/>
      <point x="160" y="41" type="curve" smooth="yes"/>
      <point x="160" y="66"/>
      <point x="137" y="87"/>
      <point x="105" y="87" type="curve" smooth="yes"/>
      <point x="74" y="87"/>
      <point x="48" y="66"/>
      <point x="48" y="41" type="curve" smooth="yes"/>
      <point x="48" y="16"/>
      <point x="74" y="-5"/>
    </contour>
  </outline>
</glyph>
<glyph name="semicolon" format="2">
  <advance width="240"/>
  <unicode hex="003B"/>
  <outline>
    <contour>
      <point x="57" y="-147" type="curve"/>
      <point x="66" y="-176" type="line"/>
      <point x="132" y="-146"/>
      <point x="179" y="-68"/>
      <point x="179" y="12" type="curve" smooth="yes"/>
      <point x="179" y="59"/>
      <point x="149" y="92"/>
      <point x="107" y="92" type="curve" smooth="yes"/>
      <point x="73" y="92"/>
      <point x="48" y="73"/>
      <point x="48" y="44" type="curve" smooth="yes"/>
      <point x="48" y="17"/>
      <point x="61" y="-3"/>
      <point x="80" y="-3" type="curve" smooth="yes"/>
      <point x="97" y="-3"/>
      <point x="100" y="5"/>
      <point x="115" y="5" type="curve" smooth="yes"/>
      <point x="128" y="5"/>
      <point x="136" y="-12"/>
      <point x="136" y="-37" type="curve" smooth="yes"/>
      <point x="136" y="-88"/>
      <point x="103" y="-134"/>
    </contour>
    <contour>
      <point x="139" y="213" type="curve" smooth="yes"/>
      <point x="170" y="213"/>
      <point x="192" y="233"/>
      <point x="192" y="258" type="curve" smooth="yes"/>
      <point x="192" y="281"/>
      <point x="170" y="300"/>
      <point x="139" y="300" type="curve" smooth="yes"/>
      <point x="110" y="300"/>
      <point x="85" y="281"/>
      <point x="85" y="258" type="curve" smooth="yes"/>
      <point x="85" y="233"/>
      <point x="110" y="213"/>
    </contour>
  </outline>
</glyph>
<glyph name="less" format="2">
  <advance width="582"/>
  <unicode hex="003C"/>
  <outline>
    <contour>
      <point x="511" y="65" type="line"/>
      <point x="534" y="110" type="line"/>
      <point x="94" y="278" type="line"/>
      <point x="533" y="448" type="line"/>
      <point x="512" y="494" type="line"/>
      <point x="48" y="310" type="line"/>
      <point x="48" y="247" type="line"/>
    </contour>
  </outline>
</glyph>
<glyph name="equal" format="2">
  <advance width="582"/>
  <unicode hex="003D"/>
  <outline>
    <contour>
      <point x="48" y="323" type="line"/>
      <point x="534" y="323" type="line"/>
      <point x="534" y="373" type="line"/>
      <point x="48" y="373" type="line"/>
    </contour>
    <contour>
      <point x="48" y="193" type="line"/>
      <point x="534" y="193" type="line"/>
      <point x="534" y="243" type="line"/>
      <point x="48" y="243" type="line"/>
    </contour>
  </outline>
</glyph>
<glyph name="greater" format="2">
  <advance width="582"/>
  <unicode hex="003E"/>
  <outline>
    <contour>
      <point x="71" y="65" type="line"/>
      <point x="534" y="247" type="line"/>
      <point x="534" y="310" type="line"/>
      <point x="70" y="494" type="line"/>
      <point x="49" y="448" type="line"/>
      <point x="488" y="278" type="line"/>
      <point x="48" y="110" type="line"/>
    </contour>
  </outline>
</glyph>
<glyph name="question" format="2">
  <advance width="382"/>
  <unicode hex="003F"/>
  <outline>
    <contour>
      <point x="186" y="170" type="curve" smooth="yes"/>
      <point x="195" y="170"/>
      <point x="228" y="184"/>
      <point x="267" y="203" type="curve"/>
      <point x="265" y="216" type="line"/>
      <point x="233" y="217" type="line" smooth="yes"/>
      <point x="208" y="218"/>
      <point x="190" y="236"/>
      <point x="190" y="260" type="curve" smooth="yes"/>
      <point x="190" y="347"/>
      <point x="332" y="346"/>
      <point x="334" y="466" type="curve"/>
      <point x="334" y="527"/>
      <point x="291" y="571"/>
      <point x="230" y="571" type="curve" smooth="yes"/>
      <point x="201" y="571"/>
      <point x="157" y="554"/>
      <point x="118" y="530" type="curve" smooth="yes"/>
      <point x="86" y="508"/>
      <point x="64" y="471"/>
      <point x="64" y="440" type="curve" smooth="yes"/>
      <point x="64" y="409"/>
      <point x="136" y="423"/>
      <point x="136" y="454" type="curve" smooth="yes"/>
      <point x="136" y="470"/>
      <point x="129" y="466"/>
      <point x="129" y="481" type="curve" smooth="yes"/>
      <point x="129" y="508"/>
      <point x="152" y="527"/>
      <point x="180" y="527" type="curve" smooth="yes"/>
      <point x="230" y="527"/>
      <point x="259" y="500"/>
      <point x="258" y="460" type="curve" smooth="yes"/>
      <point x="253" y="317"/>
      <point x="118" y="317"/>
      <point x="118" y="233" type="curve" smooth="yes"/>
      <point x="118" y="196"/>
      <point x="150" y="170"/>
    </contour>
    <contour>
      <point x="195" y="-6" type="curve" smooth="yes"/>
      <point x="217" y="-6"/>
      <point x="235" y="12"/>
      <point x="235" y="34" type="curve" smooth="yes"/>
      <point x="235" y="56"/>
      <point x="217" y="74"/>
      <point x="195" y="74" type="curve" smooth="yes"/>
      <point x="173" y="74"/>
      <point x="155" y="56"/>
      <point x="155" y="34" type="curve" smooth="yes"/>
      <point x="155" y="12"/>
      <point x="173" y="-6"/>
    </contour>
  </outline>
</glyph>
<glyph name="at" format="2">
  <advance width="762"/>
  <unicode hex="0040"/>
  <outline>
    <contour>
      <point x="402" y="-118" type="curve" smooth="yes"/>
      <point x="498" y="-118"/>
      <point x="607" y="-72"/>
      <point x="664" y="-7" type="curve"/>
      <point x="647" y="14" type="line"/>
      <point x="595" y="-46"/>
      <point x="494" y="-88"/>
      <point x="402" y="-88" type="curve" smooth="yes"/>
      <point x="212" y="-88"/>
      <point x="78" y="47"/>
      <point x="78" y="238" type="curve" smooth="yes"/>
      <point x="78" y="437"/>
      <point x="212" y="578"/>
      <point x="402" y="578" type="curve" smooth="yes"/>
      <point x="568" y="578"/>
      <point x="684" y="466"/>
      <point x="684" y="308" type="curve" smooth="yes"/>
      <point x="684" y="183"/>
      <point x="629" y="95"/>
      <point x="550" y="95" type="curve" smooth="yes"/>
      <point x="512" y="95"/>
      <point x="488" y="110"/>
      <point x="492" y="130" type="curve" smooth="yes"/>
      <point x="547" y="393" type="line"/>
      <point x="533" y="416"/>
      <point x="479" y="432"/>
      <point x="417" y="432" type="curve" smooth="yes"/>
      <point x="289" y="432"/>
      <point x="199" y="333"/>
      <point x="199" y="193" type="curve" smooth="yes"/>
      <point x="199" y="114"/>
      <point x="256" y="58"/>
      <point x="337" y="58" type="curve" smooth="yes"/>
      <point x="366" y="58"/>
      <point x="406" y="79"/>
      <point x="434" y="109" type="curve"/>
      <point x="441" y="82"/>
      <point x="482" y="63"/>
      <point x="534" y="63" type="curve" smooth="yes"/>
      <point x="640" y="63"/>
      <point x="714" y="165"/>
      <point x="714" y="308" type="curve" smooth="yes"/>
      <point x="714" y="484"/>
      <point x="585" y="608"/>
      <point x="402" y="608" type="curve" smooth="yes"/>
      <point x="195" y="608"/>
      <point x="48" y="455"/>
      <point x="48" y="238" type="curve" smooth="yes"/>
      <point x="48" y="29"/>
      <point x="195" y="-118"/>
    </contour>
    <contour>
      <point x="270" y="211" type="curve" smooth="yes"/>
      <point x="270" y="319"/>
      <point x="323" y="396"/>
      <point x="397" y="396" type="curve" smooth="yes"/>
      <point x="427" y="396"/>
      <point x="460" y="387"/>
      <point x="477" y="374" type="curve"/>
      <point x="428" y="140" type="line"/>
      <point x="399" y="117"/>
      <point x="369" y="100"/>
      <point x="355" y="100" type="curve" smooth="yes"/>
      <point x="305" y="100"/>
      <point x="270" y="146"/>
    </contour>
  </outline>
</glyph>
<glyph name="A" format="2">
  <advance width="698"/>
  <unicode hex="0041"/>
  <anchor x="349" y="0" name="bottom"/>
  <anchor x="630" y="10" name="ogonek"/>
  <anchor x="358" y="616" name="top"/>
  <outline>
    <contour>
      <point x="412" y="0" type="line"/>
      <point x="682" y="0" type="line"/>
      <point x="682" y="25" type="line"/>
      <point x="612" y="39"/>
      <point x="591" y="64"/>
      <point x="561" y="135" type="curve" smooth="yes"/>
      <point x="493" y="306"/>
      <point x="426" y="477"/>
      <point x="358" y="648" type="curve"/>
      <point x="318" y="576" type="line"/>
      <point x="311" y="550" type="line"/>
      <point x="468" y="139" type="line" smooth="yes"/>
      <point x="505" y="42"/>
      <point x="494" y="43"/>
      <point x="412" y="25" type="curve"/>
    </contour>
    <contour>
      <point x="16" y="0" type="line"/>
      <point x="268" y="0" type="line"/>
      <point x="268" y="25" type="line"/>
      <point x="193" y="31"/>
      <point x="165" y="57"/>
      <point x="192" y="130" type="curve" smooth="yes"/>
      <point x="351" y="564" type="line"/>
      <point x="318" y="576" type="line"/>
      <point x="253" y="404"/>
      <point x="185" y="198"/>
      <point x="123" y="83" type="curve" smooth="yes"/>
      <point x="104" y="49"/>
      <point x="60" y="25"/>
      <point x="16" y="25" type="curve"/>
    </contour>
    <contour>
      <point x="212" y="258" type="line"/>
      <point x="466" y="258" type="line"/>
      <point x="452" y="298" type="line"/>
      <point x="229" y="298" type="line"/>
    </contour>
  </outline>
</glyph>
<glyph name="B" format="2">
  <advance width="558"/>
  <unicode hex="0042"/>
  <anchor x="276" y="0" name="bottom"/>
  <anchor x="132" y="154" name="center"/>
  <anchor x="276" y="616" name="top"/>
  <outline>
    <contour>
      <point x="6" y="25" type="curve"/>
      <point x="6" y="0" type="line"/>
      <point x="297" y="0" type="line"/>
      <point x="297" y="40" type="line"/>
      <point x="252" y="40"/>
      <point x="211" y="34"/>
      <point x="192" y="50" type="curve" smooth="yes"/>
      <point x="183" y="58"/>
      <point x="173" y="73"/>
      <point x="173" y="91" type="curve" smooth="yes"/>
      <point x="173" y="307"/>
      <point x="173" y="377"/>
      <point x="173" y="574" type="curve"/>
      <point x="190" y="576"/>
      <point x="254" y="576"/>
      <point x="277" y="576" type="curve"/>
      <point x="277" y="616" type="line"/>
      <point x="6" y="616" type="line"/>
      <point x="6" y="591" type="line"/>
      <point x="42" y="586"/>
      <point x="66" y="582"/>
      <point x="80" y="572" type="curve" smooth="yes"/>
      <point x="90" y="565"/>
      <point x="95" y="552"/>
      <point x="95" y="525" type="curve" smooth="yes"/>
      <point x="96" y="341"/>
      <point x="97" y="253"/>
      <point x="97" y="312" type="curve" smooth="yes"/>
      <point x="97" y="373"/>
      <point x="96" y="282"/>
      <point x="95" y="91" type="curve" smooth="yes"/>
      <point x="95" y="65"/>
      <point x="89" y="51"/>
      <point x="80" y="43" type="curve" smooth="yes"/>
      <point x="64" y="29"/>
      <point x="38" y="31"/>
    </contour>
    <contour>
      <point x="139" y="318" type="line"/>
      <point x="165" y="318"/>
      <point x="177" y="318"/>
      <point x="205" y="318" type="curve" smooth="yes"/>
      <point x="367" y="318"/>
      <point x="470" y="378"/>
      <point x="470" y="481" type="curve" smooth="yes"/>
      <point x="470" y="560"/>
      <point x="390" y="616"/>
      <point x="277" y="616" type="curve"/>
      <point x="277" y="576" type="line"/>
      <point x="338" y="576"/>
      <point x="381" y="529"/>
      <point x="381" y="462" type="curve" smooth="yes"/>
      <point x="381" y="387"/>
      <point x="312" y="348"/>
      <point x="198" y="348" type="curve" smooth="yes"/>
      <point x="138" y="348" type="line"/>
    </contour>
    <contour>
      <point x="297" y="0" type="line"/>
      <point x="422" y="0"/>
      <point x="510" y="79"/>
      <point x="510" y="191" type="curve" smooth="yes"/>
      <point x="510" y="280"/>
      <point x="425" y="333"/>
      <point x="304" y="338" type="curve" smooth="yes"/>
      <point x="120" y="346" type="line"/>
      <point x="120" y="314" type="line"/>
      <point x="142" y="314"/>
      <point x="154" y="314"/>
      <point x="191" y="314" type="curve" smooth="yes"/>
      <point x="326" y="314"/>
      <point x="419" y="263"/>
      <point x="419" y="171" type="curve" smooth="yes"/>
      <point x="419" y="94"/>
      <point x="367" y="40"/>
      <point x="297" y="40" type="curve"/>
    </contour>
  </outline>
</glyph>
<glyph name="C" format="2">
  <advance width="708"/>
  <unicode hex="0043"/>
  <anchor x="398" y="0" name="bottom"/>
  <anchor x="398" y="616" name="top"/>
  <outline>
    <contour>
      <point x="398" y="-11" type="curve" smooth="yes"/>
      <point x="473" y="-11"/>
      <point x="566" y="9"/>
      <point x="622" y="38" type="curve"/>
      <point x="640" y="106"/>
      <point x="656" y="174"/>
      <point x="660" y="201" type="curve"/>
      <point x="624" y="200" type="line"/>
      <point x="600" y="102"/>
      <point x="514" y="33"/>
      <point x="416" y="33" type="curve" smooth="yes"/>
      <point x="262" y="33"/>
      <point x="143" y="158"/>
      <point x="143" y="335" type="curve" smooth="yes"/>
      <point x="143" y="482"/>
      <point x="261" y="588"/>
      <point x="410" y="588" type="curve" smooth="yes"/>
      <point x="508" y="588"/>
      <point x="579" y="528"/>
      <point x="583" y="444" type="curve"/>
      <point x="614" y="444" type="line"/>
      <point x="616" y="489"/>
      <point x="623" y="551"/>
      <point x="630" y="595" type="curve"/>
      <point x="580" y="614"/>
      <point x="484" y="627"/>
      <point x="398" y="627" type="curve" smooth="yes"/>
      <point x="191" y="627"/>
      <point x="48" y="496"/>
      <point x="48" y="312" type="curve" smooth="yes"/>
      <point x="48" y="123"/>
      <point x="191" y="-11"/>
    </contour>
  </outline>
</glyph>
<glyph name="D" format="2">
  <advance width="684"/>
  <unicode hex="0044"/>
  <anchor x="272" y="0" name="bottom"/>
  <anchor x="164" y="308" name="center"/>
  <anchor x="271" y="616" name="top"/>
  <outline>
    <contour>
      <point x="6" y="25" type="curve"/>
      <point x="6" y="0" type="line"/>
      <point x="29" y="0"/>
      <point x="91" y="0"/>
      <point x="133" y="0" type="curve" smooth="yes"/>
      <point x="133" y="0"/>
      <point x="174" y="1"/>
      <point x="292" y="-3" type="curve"/>
      <point x="306" y="38" type="line"/>
      <point x="254" y="38"/>
      <point x="215" y="33"/>
      <point x="192" y="55" type="curve" smooth="yes"/>
      <point x="183" y="63"/>
      <point x="178" y="74"/>
      <point x="178" y="91" type="curve" smooth="yes"/>
      <point x="178" y="189"/>
      <point x="178" y="476"/>
      <point x="179" y="574" type="curve"/>
      <point x="225" y="577"/>
      <point x="257" y="578"/>
      <point x="303" y="578" type="curve"/>
      <point x="319" y="619" type="line"/>
      <point x="238" y="618"/>
      <point x="176" y="616"/>
      <point x="136" y="616" type="curve"/>
      <point x="90" y="616"/>
      <point x="37" y="616"/>
      <point x="6" y="616" type="curve"/>
      <point x="6" y="590" type="line"/>
      <point x="44" y="583"/>
      <point x="67" y="582"/>
      <point x="80" y="572" type="curve" smooth="yes"/>
      <point x="91" y="565"/>
      <point x="95" y="552"/>
      <point x="95" y="525" type="curve" smooth="yes"/>
      <point x="96" y="411"/>
      <point x="97" y="323"/>
      <point x="97" y="312" type="curve" smooth="yes"/>
      <point x="97" y="302"/>
      <point x="96" y="210"/>
      <point x="95" y="91" type="curve" smooth="yes"/>
      <point x="95" y="66"/>
      <point x="90" y="52"/>
      <point x="80" y="43" type="curve" smooth="yes"/>
      <point x="66" y="31"/>
      <point x="41" y="30"/>
    </contour>
    <contour>
      <point x="306" y="38" type="curve"/>
      <point x="292" y="-3" type="line"/>
      <point x="493" y="-2"/>
      <point x="636" y="135"/>
      <point x="636" y="327" type="curve" smooth="yes"/>
      <point x="636" y="498"/>
      <point x="505" y="619"/>
      <point x="319" y="619" type="curve"/>
      <point x="303" y="578" type="line"/>
      <point x="444" y="578"/>
      <point x="543" y="462"/>
      <point x="543" y="298" type="curve" smooth="yes"/>
      <point x="543" y="146"/>
      <point x="445" y="38"/>
    </contour>
  </outline>
</glyph>
<glyph name="E" format="2">
  <advance width="560"/>
  <unicode hex="0045"/>
  <anchor x="258" y="2" name="bottom"/>
  <anchor x="506" y="10" name="ogonek"/>
  <anchor x="264" y="616" name="top"/>
  <anchor x="8" y="616" name="topleft"/>
  <outline>
    <contour>
      <point x="504" y="-3" type="curve"/>
      <point x="516" y="44"/>
      <point x="526" y="110"/>
      <point x="528" y="157" type="curve"/>
      <point x="499" y="157" type="line"/>
      <point x="487" y="90"/>
      <point x="448" y="43"/>
      <point x="405" y="40" type="curve" smooth="yes"/>
      <point x="373" y="38"/>
      <point x="309" y="37"/>
      <point x="252" y="37" type="curve" smooth="yes"/>
      <point x="218" y="37"/>
      <point x="202" y="42"/>
      <point x="191" y="52" type="curve" smooth="yes"/>
      <point x="181" y="62"/>
      <point x="178" y="76"/>
      <point x="178" y="96" type="curve" smooth="yes"/>
      <point x="178" y="265"/>
      <point x="177" y="416"/>
      <point x="179" y="576" type="curve"/>
      <point x="216" y="578"/>
      <point x="245" y="578"/>
      <point x="267" y="578" type="curve" smooth="yes"/>
      <point x="295" y="578"/>
      <point x="330" y="578"/>
      <point x="362" y="576" type="curve" smooth="yes"/>
      <point x="387" y="574"/>
      <point x="410" y="544"/>
      <point x="418" y="499" type="curve"/>
      <point x="452" y="499" type="line"/>
      <point x="453" y="536"/>
      <point x="458" y="586"/>
      <point x="465" y="619" type="curve"/>
      <point x="400" y="617"/>
      <point x="257" y="616"/>
      <point x="136" y="616" type="curve" smooth="yes"/>
      <point x="87" y="616"/>
      <point x="35" y="617"/>
      <point x="6" y="618" type="curve"/>
      <point x="6" y="589" type="line"/>
      <point x="41" y="584"/>
      <point x="65" y="581"/>
      <point x="80" y="567" type="curve" smooth="yes"/>
      <point x="89" y="558"/>
      <point x="95" y="544"/>
      <point x="95" y="521" type="curve" smooth="yes"/>
      <point x="97" y="376"/>
      <point x="97" y="236"/>
      <point x="95" y="91" type="curve" smooth="yes"/>
      <point x="95" y="67"/>
      <point x="90" y="52"/>
      <point x="80" y="42" type="curve" smooth="yes"/>
      <point x="66" y="29"/>
      <point x="43" y="26"/>
      <point x="6" y="23" type="curve"/>
      <point x="6" y="-2" type="line"/>
      <point x="126" y="0" type="line" smooth="yes"/>
      <point x="269" y="2"/>
      <point x="427" y="-1"/>
    </contour>
    <contour>
      <point x="361" y="206" type="line"/>
      <point x="386" y="206" type="line"/>
      <point x="381" y="272"/>
      <point x="381" y="364"/>
      <point x="386" y="430" type="curve"/>
      <point x="360" y="430" type="line"/>
      <point x="359" y="424"/>
      <point x="354" y="410"/>
      <point x="349" y="396" type="curve"/>
      <point x="332" y="360"/>
      <point x="309" y="336"/>
      <point x="249" y="336" type="curve" smooth="yes"/>
      <point x="119" y="336" type="line"/>
      <point x="119" y="296" type="line"/>
      <point x="249" y="296" type="line" smooth="yes"/>
      <point x="316" y="296"/>
      <point x="338" y="274"/>
      <point x="350" y="242" type="curve" smooth="yes"/>
    </contour>
  </outline>
</glyph>
<glyph name="F" format="2">
  <advance width="472"/>
  <unicode hex="0046"/>
  <anchor x="231" y="0" name="bottom"/>
  <anchor x="271" y="616" name="top"/>
  <outline>
    <contour>
      <point x="6" y="-1" type="line"/>
      <point x="33" y="0"/>
      <point x="239" y="0"/>
      <point x="294" y="0" type="curve"/>
      <point x="294" y="29" type="line"/>
      <point x="242" y="35"/>
      <point x="209" y="35"/>
      <point x="191" y="54" type="curve" smooth="yes"/>
      <point x="182" y="64"/>
      <point x="177" y="79"/>
      <point x="177" y="103" type="curve" smooth="yes"/>
      <point x="175" y="260"/>
      <point x="176" y="421"/>
      <point x="179" y="578" type="curve"/>
      <point x="200" y="579"/>
      <point x="249" y="580"/>
      <point x="271" y="580" type="curve" smooth="yes"/>
      <point x="299" y="580"/>
      <point x="321" y="580"/>
      <point x="353" y="578" type="curve" smooth="yes"/>
      <point x="378" y="576"/>
      <point x="400" y="544"/>
      <point x="408" y="499" type="curve"/>
      <point x="440" y="499" type="line"/>
      <point x="442" y="536"/>
      <point x="449" y="586"/>
      <point x="456" y="619" type="curve"/>
      <point x="391" y="617"/>
      <point x="256" y="616"/>
      <point x="136" y="616" type="curve"/>
      <point x="87" y="616"/>
      <point x="36" y="617"/>
      <point x="7" y="618" type="curve"/>
      <point x="7" y="592" type="line"/>
      <point x="42" y="586"/>
      <point x="65" y="584"/>
      <point x="80" y="572" type="curve" smooth="yes"/>
      <point x="89" y="563"/>
      <point x="95" y="550"/>
      <point x="95" y="525" type="curve" smooth="yes"/>
      <point x="97" y="380"/>
      <point x="97" y="236"/>
      <point x="95" y="91" type="curve" smooth="yes"/>
      <point x="95" y="67"/>
      <point x="91" y="53"/>
      <point x="82" y="44" type="curve" smooth="yes"/>
      <point x="69" y="30"/>
      <point x="46" y="27"/>
      <point x="6" y="23" type="curve"/>
    </contour>
    <contour>
      <point x="357" y="206" type="line"/>
      <point x="381" y="206" type="line"/>
      <point x="375" y="272"/>
      <point x="375" y="364"/>
      <point x="381" y="430" type="curve"/>
      <point x="356" y="430" type="line"/>
      <point x="355" y="424"/>
      <point x="350" y="410"/>
      <point x="345" y="396" type="curve"/>
      <point x="328" y="360"/>
      <point x="305" y="336"/>
      <point x="263" y="336" type="curve" smooth="yes"/>
      <point x="129" y="336" type="line"/>
      <point x="129" y="296" type="line"/>
      <point x="263" y="296" type="line" smooth="yes"/>
      <point x="312" y="296"/>
      <point x="334" y="274"/>
      <point x="346" y="242" type="curve" smooth="yes"/>
    </contour>
  </outline>
</glyph>
<glyph name="G" format="2">
  <advance width="702"/>
  <unicode hex="0047"/>
  <anchor x="398" y="0" name="bottom"/>
  <anchor x="404" y="616" name="top"/>
  <outline>
    <contour>
      <point x="398" y="-11" type="curve" smooth="yes"/>
      <point x="482" y="-11"/>
      <point x="583" y="11"/>
      <point x="638" y="43" type="curve"/>
      <point x="634" y="56" type="line"/>
      <point x="616" y="57"/>
      <point x="606" y="67"/>
      <point x="606" y="79" type="curve"/>
      <point x="606" y="200" type="line"/>
      <point x="606" y="225"/>
      <point x="619" y="247"/>
      <point x="642" y="252" type="curve"/>
      <point x="678" y="258" type="line"/>
      <point x="678" y="287" type="line"/>
      <point x="426" y="287" type="line"/>
      <point x="426" y="253" type="line"/>
      <point x="479" y="244"/>
      <point x="523" y="225"/>
      <point x="523" y="188" type="curve"/>
      <point x="523" y="76" type="line"/>
      <point x="523" y="55"/>
      <point x="488" y="33"/>
      <point x="443" y="33" type="curve" smooth="yes"/>
      <point x="261" y="33"/>
      <point x="143" y="141"/>
      <point x="143" y="333" type="curve" smooth="yes"/>
      <point x="143" y="482"/>
      <point x="257" y="588"/>
      <point x="412" y="588" type="curve" smooth="yes"/>
      <point x="508" y="588"/>
      <point x="578" y="528"/>
      <point x="583" y="444" type="curve"/>
      <point x="614" y="444" type="line"/>
      <point x="616" y="495"/>
      <point x="623" y="558"/>
      <point x="630" y="595" type="curve"/>
      <point x="580" y="614"/>
      <point x="486" y="627"/>
      <point x="404" y="627" type="curve" smooth="yes"/>
      <point x="199" y="627"/>
      <point x="48" y="495"/>
      <point x="48" y="308" type="curve" smooth="yes"/>
      <point x="48" y="121"/>
      <point x="197" y="-11"/>
    </contour>
  </outline>
</glyph>
<glyph name="H" format="2">
  <advance width="696"/>
  <unicode hex="0048"/>
  <anchor x="366" y="0" name="bottom"/>
  <anchor x="366" y="462" name="center"/>
  <anchor x="366" y="616" name="top"/>
  <anchor x="8" y="616" name="topleft"/>
  <outline>
    <contour>
      <point x="6" y="0" type="line"/>
      <point x="276" y="0" type="line"/>
      <point x="276" y="25" type="line"/>
      <point x="245" y="33"/>
      <point x="202" y="39"/>
      <point x="191" y="51" type="curve" smooth="yes"/>
      <point x="181" y="61"/>
      <point x="176" y="77"/>
      <point x="176" y="104" type="curve" smooth="yes"/>
      <point x="175" y="178"/>
      <point x="175" y="252"/>
      <point x="174" y="326" type="curve" smooth="yes"/>
      <point x="173" y="388"/>
      <point x="175" y="450"/>
      <point x="176" y="512" type="curve" smooth="yes"/>
      <point x="176" y="539"/>
      <point x="182" y="556"/>
      <point x="191" y="565" type="curve" smooth="yes"/>
      <point x="202" y="577"/>
      <point x="245" y="583"/>
      <point x="276" y="591" type="curve"/>
      <point x="276" y="616" type="line"/>
      <point x="6" y="616" type="line"/>
      <point x="6" y="591" type="line"/>
      <point x="28" y="583"/>
      <point x="71" y="576"/>
      <point x="82" y="564" type="curve" smooth="yes"/>
      <point x="91" y="553"/>
      <point x="95" y="538"/>
      <point x="95" y="512" type="curve" smooth="yes"/>
      <point x="96" y="450"/>
      <point x="97" y="389"/>
      <point x="97" y="327" type="curve" smooth="yes"/>
      <point x="97" y="253"/>
      <point x="96" y="178"/>
      <point x="95" y="104" type="curve" smooth="yes"/>
      <point x="95" y="78"/>
      <point x="91" y="63"/>
      <point x="82" y="52" type="curve" smooth="yes"/>
      <point x="71" y="40"/>
      <point x="28" y="33"/>
      <point x="6" y="25" type="curve"/>
    </contour>
    <contour>
      <point x="420" y="0" type="line"/>
      <point x="690" y="0" type="line"/>
      <point x="690" y="25" type="line"/>
      <point x="669" y="33"/>
      <point x="627" y="39"/>
      <point x="616" y="51" type="curve" smooth="yes"/>
      <point x="606" y="61"/>
      <point x="601" y="77"/>
      <point x="601" y="104" type="curve" smooth="yes"/>
      <point x="600" y="179"/>
      <point x="600" y="255"/>
      <point x="599" y="330" type="curve" smooth="yes"/>
      <point x="598" y="391"/>
      <point x="600" y="451"/>
      <point x="601" y="512" type="curve" smooth="yes"/>
      <point x="601" y="539"/>
      <point x="605" y="554"/>
      <point x="616" y="565" type="curve" smooth="yes"/>
      <point x="627" y="577"/>
      <point x="669" y="583"/>
      <point x="690" y="591" type="curve"/>
      <point x="690" y="616" type="line"/>
      <point x="420" y="616" type="line"/>
      <point x="420" y="591" type="line"/>
      <point x="452" y="583"/>
      <point x="496" y="576"/>
      <point x="507" y="564" type="curve" smooth="yes"/>
      <point x="516" y="553"/>
      <point x="520" y="538"/>
      <point x="520" y="512" type="curve" smooth="yes"/>
      <point x="521" y="451"/>
      <point x="522" y="390"/>
      <point x="522" y="329" type="curve" smooth="yes"/>
      <point x="522" y="254"/>
      <point x="521" y="179"/>
      <point x="520" y="104" type="curve" smooth="yes"/>
      <point x="520" y="78"/>
      <point x="516" y="63"/>
      <point x="507" y="52" type="curve" smooth="yes"/>
      <point x="496" y="40"/>
      <point x="452" y="33"/>
      <point x="420" y="25" type="curve"/>
    </contour>
    <contour>
      <point x="142" y="304" type="line"/>
      <point x="553" y="304" type="line"/>
      <point x="553" y="349" type="line"/>
      <point x="142" y="349" type="line"/>
    </contour>
  </outline>
</glyph>
<glyph name="I" format="2">
  <advance width="264"/>
  <unicode hex="0049"/>
  <anchor x="136" y="0" name="bottom"/>
  <anchor x="247" y="10" name="ogonek"/>
  <anchor x="133" y="616" name="top"/>
  <anchor x="8" y="616" name="topleft"/>
  <outline>
    <contour>
      <point x="6" y="25" type="curve"/>
      <point x="6" y="0" type="line"/>
      <point x="258" y="0" type="line"/>
      <point x="258" y="25" type="line"/>
      <point x="219" y="31"/>
      <point x="196" y="32"/>
      <point x="184" y="41" type="curve" smooth="yes"/>
      <point x="173" y="49"/>
      <point x="169" y="63"/>
      <point x="169" y="91" type="curve" smooth="yes"/>
      <point x="167" y="217"/>
      <point x="169" y="327"/>
      <point x="169" y="525" type="curve" smooth="yes"/>
      <point x="169" y="555"/>
      <point x="178" y="570"/>
      <point x="193" y="577" type="curve" smooth="yes"/>
      <point x="210" y="586"/>
      <point x="234" y="586"/>
      <point x="258" y="591" type="curve"/>
      <point x="258" y="616" type="line"/>
      <point x="6" y="616" type="line"/>
      <point x="6" y="593" type="line"/>
      <point x="43" y="587"/>
      <point x="67" y="586"/>
      <point x="80" y="575" type="curve" smooth="yes"/>
      <point x="90" y="566"/>
      <point x="95" y="552"/>
      <point x="95" y="525" type="curve" smooth="yes"/>
      <point x="97" y="382"/>
      <point x="97" y="234"/>
      <point x="95" y="91" type="curve" smooth="yes"/>
      <point x="95" y="62"/>
      <point x="91" y="47"/>
      <point x="81" y="39" type="curve" smooth="yes"/>
      <point x="66" y="27"/>
      <point x="41" y="30"/>
    </contour>
  </outline>
</glyph>
<glyph name="J" format="2">
  <advance width="249"/>
  <unicode hex="004A"/>
  <anchor x="123" y="0" name="bottom"/>
  <anchor x="130" y="616" name="top"/>
  <outline>
    <contour>
      <point x="-16" y="-232" type="curve" smooth="yes"/>
      <point x="18" y="-232"/>
      <point x="73" y="-190"/>
      <point x="91" y="-164" type="curve" smooth="yes"/>
      <point x="138" y="-96"/>
      <point x="171" y="29"/>
      <point x="169" y="148" type="curve" smooth="yes"/>
      <point x="167" y="341"/>
      <point x="167" y="332"/>
      <point x="169" y="525" type="curve" smooth="yes"/>
      <point x="169" y="555"/>
      <point x="174" y="569"/>
      <point x="187" y="577" type="curve" smooth="yes"/>
      <point x="201" y="584"/>
      <point x="224" y="585"/>
      <point x="258" y="591" type="curve"/>
      <point x="258" y="616" type="line"/>
      <point x="6" y="616" type="line"/>
      <point x="6" y="591" type="line"/>
      <point x="41" y="587"/>
      <point x="65" y="586"/>
      <point x="80" y="574" type="curve" smooth="yes"/>
      <point x="91" y="565"/>
      <point x="96" y="551"/>
      <point x="96" y="525" type="curve" smooth="yes"/>
      <point x="96" y="81" type="line" smooth="yes"/>
      <point x="96" y="33"/>
      <point x="96" y="-90"/>
      <point x="65" y="-138" type="curve" smooth="yes"/>
      <point x="58" y="-150"/>
      <point x="48" y="-157"/>
      <point x="36" y="-157" type="curve" smooth="yes"/>
      <point x="17" y="-158"/>
      <point x="15" y="-135"/>
      <point x="-4" y="-134" type="curve" smooth="yes"/>
      <point x="-37" y="-134"/>
      <point x="-60" y="-163"/>
      <point x="-60" y="-205" type="curve" smooth="yes"/>
      <point x="-60" y="-220"/>
      <point x="-42" y="-232"/>
    </contour>
  </outline>
</glyph>
<glyph name="K" format="2">
  <advance width="618"/>
  <unicode hex="004B"/>
  <anchor x="321" y="0" name="bottom"/>
  <anchor x="299" y="616" name="top"/>
  <outline>
    <contour>
      <point x="6" y="25" type="curve"/>
      <point x="6" y="0" type="line"/>
      <point x="258" y="0" type="line"/>
      <point x="258" y="18" type="line"/>
      <point x="223" y="27"/>
      <point x="203" y="29"/>
      <point x="192" y="36" type="curve" smooth="yes"/>
      <point x="180" y="44"/>
      <point x="172" y="58"/>
      <point x="172" y="91" type="curve" smooth="yes"/>
      <point x="171" y="156"/>
      <point x="172" y="424"/>
      <point x="173" y="525" type="curve" smooth="yes"/>
      <point x="173" y="556"/>
      <point x="179" y="572"/>
      <point x="192" y="581" type="curve" smooth="yes"/>
      <point x="205" y="590"/>
      <point x="226" y="594"/>
      <point x="258" y="598" type="curve"/>
      <point x="258" y="616" type="line"/>
      <point x="6" y="616" type="line"/>
      <point x="6" y="592" type="line"/>
      <point x="57" y="585"/>
      <point x="80" y="583"/>
      <point x="89" y="565" type="curve" smooth="yes"/>
      <point x="93" y="556"/>
      <point x="95" y="543"/>
      <point x="95" y="525" type="curve" smooth="yes"/>
      <point x="97" y="382"/>
      <point x="97" y="234"/>
      <point x="95" y="91" type="curve" smooth="yes"/>
      <point x="95" y="66"/>
      <point x="90" y="52"/>
      <point x="80" y="44" type="curve" smooth="yes"/>
      <point x="66" y="33"/>
      <point x="42" y="33"/>
    </contour>
    <contour>
      <point x="149" y="240" type="line"/>
      <point x="405" y="503" type="line"/>
      <point x="441" y="540"/>
      <point x="486" y="574"/>
      <point x="514" y="586" type="curve" smooth="yes"/>
      <point x="528" y="592"/>
      <point x="558" y="597"/>
      <point x="564" y="598" type="curve"/>
      <point x="564" y="616" type="line"/>
      <point x="330" y="616" type="line"/>
      <point x="330" y="598" type="line"/>
      <point x="354" y="593"/>
      <point x="378" y="580"/>
      <point x="378" y="557" type="curve" smooth="yes"/>
      <point x="378" y="543"/>
      <point x="369" y="526"/>
      <point x="351" y="505" type="curve"/>
      <point x="126" y="267" type="line"/>
    </contour>
    <contour>
      <point x="618" y="0" type="line"/>
      <point x="618" y="18" type="line"/>
      <point x="555" y="34"/>
      <point x="523" y="48"/>
      <point x="473" y="99" type="curve"/>
      <point x="238" y="362" type="line"/>
      <point x="181" y="301" type="line"/>
      <point x="253" y="217"/>
      <point x="381" y="72"/>
      <point x="410" y="40" type="curve" smooth="yes"/>
      <point x="439" y="8"/>
      <point x="465" y="-4"/>
      <point x="508" y="-3" type="curve" smooth="yes"/>
    </contour>
  </outline>
</glyph>
<glyph name="L" format="2">
  <advance width="596"/>
  <unicode hex="004C"/>
  <anchor x="289" y="0" name="bottom"/>
  <anchor x="294" y="308" name="center"/>
  <anchor x="140" y="616" name="top"/>
  <anchor x="257" y="616" name="topright"/>
  <outline>
    <contour>
      <point x="6" y="23" type="curve"/>
      <point x="6" y="-3" type="line"/>
      <point x="96" y="-1"/>
      <point x="176" y="0"/>
      <point x="256" y="0" type="curve"/>
      <point x="256" y="41" type="line"/>
      <point x="194" y="43"/>
      <point x="177" y="43"/>
      <point x="177" y="105" type="curve" smooth="yes"/>
      <point x="175" y="234"/>
      <point x="174" y="318"/>
      <point x="177" y="517" type="curve" smooth="yes"/>
      <point x="177" y="553"/>
      <point x="179" y="567"/>
      <point x="200" y="577" type="curve" smooth="yes"/>
      <point x="211" y="582"/>
      <point x="229" y="585"/>
      <point x="258" y="588" type="curve"/>
      <point x="258" y="616" type="line"/>
      <point x="8" y="616" type="line"/>
      <point x="8" y="592" type="line"/>
      <point x="43" y="587"/>
      <point x="66" y="585"/>
      <point x="79" y="576" type="curve" smooth="yes"/>
      <point x="90" y="568"/>
      <point x="94" y="554"/>
      <point x="95" y="525" type="curve" smooth="yes"/>
      <point x="98" y="382"/>
      <point x="97" y="234"/>
      <point x="94" y="91" type="curve" smooth="yes"/>
      <point x="93" y="63"/>
      <point x="90" y="49"/>
      <point x="80" y="40" type="curve" smooth="yes"/>
      <point x="67" y="30"/>
      <point x="45" y="29"/>
    </contour>
    <contour>
      <point x="256" y="0" type="line"/>
      <point x="318" y="2"/>
      <point x="429" y="1"/>
      <point x="498" y="-3" type="curve"/>
      <point x="534" y="102"/>
      <point x="564" y="177"/>
      <point x="564" y="177" type="curve"/>
      <point x="537" y="189" type="line"/>
      <point x="496" y="98"/>
      <point x="416" y="47"/>
      <point x="344" y="45" type="curve"/>
      <point x="300" y="44"/>
      <point x="277" y="41"/>
      <point x="256" y="41" type="curve"/>
    </contour>
  </outline>
</glyph>
<glyph name="M" format="2">
  <advance width="843"/>
  <unicode hex="004D"/>
  <anchor x="402" y="46" name="bottom"/>
  <anchor x="415" y="616" name="top"/>
  <outline>
    <contour>
      <point x="394" y="-16" type="line"/>
      <point x="691" y="586" type="line"/>
      <point x="661" y="616" type="line"/>
      <point x="408" y="107" type="line"/>
      <point x="426" y="117" type="line"/>
      <point x="202" y="616" type="line"/>
      <point x="25" y="616" type="line"/>
      <point x="25" y="591" type="line"/>
      <point x="73" y="587" type="line" smooth="yes"/>
      <point x="102" y="584"/>
      <point x="132" y="565"/>
      <point x="143" y="540" type="curve" smooth="yes"/>
    </contour>
    <contour>
      <point x="7" y="0" type="line"/>
      <point x="241" y="0" type="line"/>
      <point x="241" y="25" type="line"/>
      <point x="205" y="33"/>
      <point x="157" y="40"/>
      <point x="146" y="52" type="curve" smooth="yes"/>
      <point x="137" y="63"/>
      <point x="132" y="79"/>
      <point x="133" y="105" type="curve" smooth="yes"/>
      <point x="153" y="561" type="line"/>
      <point x="113" y="591" type="line"/>
      <point x="93" y="105" type="line" smooth="yes"/>
      <point x="92" y="78"/>
      <point x="87" y="60"/>
      <point x="78" y="51" type="curve" smooth="yes"/>
      <point x="67" y="39"/>
      <point x="30" y="33"/>
      <point x="7" y="25" type="curve"/>
    </contour>
    <contour>
      <point x="583" y="0" type="line"/>
      <point x="835" y="0" type="line"/>
      <point x="835" y="25" type="line"/>
      <point x="795" y="33"/>
      <point x="771" y="41"/>
      <point x="761" y="51" type="curve" smooth="yes"/>
      <point x="747" y="65"/>
      <point x="748" y="82"/>
      <point x="748" y="104" type="curve" smooth="yes"/>
      <point x="746" y="216"/>
      <point x="744" y="401"/>
      <point x="744" y="529" type="curve" smooth="yes"/>
      <point x="744" y="544"/>
      <point x="748" y="556"/>
      <point x="757" y="566" type="curve" smooth="yes"/>
      <point x="769" y="578"/>
      <point x="787" y="586"/>
      <point x="817" y="591" type="curve"/>
      <point x="817" y="616" type="line"/>
      <point x="661" y="616" type="line"/>
      <point x="668" y="104" type="line" smooth="yes"/>
      <point x="668" y="80"/>
      <point x="668" y="63"/>
      <point x="655" y="50" type="curve" smooth="yes"/>
      <point x="639" y="34"/>
      <point x="602" y="27"/>
      <point x="583" y="25" type="curve"/>
    </contour>
  </outline>
</glyph>
<glyph name="N" format="2">
  <advance width="716"/>
  <unicode hex="004E"/>
  <anchor x="357" y="0" name="bottom"/>
  <anchor x="345" y="616" name="top"/>
  <outline>
    <contour>
      <point x="610" y="-11" type="line"/>
      <point x="636" y="-11" type="line"/>
      <point x="636" y="157"/>
      <point x="636" y="443"/>
      <point x="636" y="512" type="curve"/>
      <point x="596" y="512" type="line"/>
      <point x="596" y="97" type="line"/>
      <point x="617" y="106" type="line"/>
      <point x="138" y="616" type="line"/>
      <point x="6" y="616" type="line"/>
      <point x="6" y="591" type="line"/>
      <point x="29" y="587"/>
      <point x="50" y="579"/>
      <point x="64" y="566" type="curve" smooth="yes"/>
      <point x="83" y="548"/>
      <point x="117" y="514"/>
      <point x="117" y="514" type="curve"/>
    </contour>
    <contour>
      <point x="6" y="0" type="line"/>
      <point x="240" y="0" type="line"/>
      <point x="240" y="25" type="line"/>
      <point x="204" y="28"/>
      <point x="163" y="35"/>
      <point x="149" y="52" type="curve" smooth="yes"/>
      <point x="136" y="68"/>
      <point x="136" y="78"/>
      <point x="136" y="104" type="curve"/>
      <point x="96" y="104" type="line"/>
      <point x="96" y="77"/>
      <point x="95" y="65"/>
      <point x="81" y="51" type="curve" smooth="yes"/>
      <point x="64" y="34"/>
      <point x="27" y="33"/>
      <point x="6" y="25" type="curve"/>
    </contour>
    <contour>
      <point x="96" y="104" type="line"/>
      <point x="136" y="104" type="line"/>
      <point x="136" y="561" type="line"/>
      <point x="96" y="591" type="line"/>
    </contour>
    <contour>
      <point x="596" y="512" type="curve"/>
      <point x="636" y="512" type="line"/>
      <point x="636" y="542"/>
      <point x="641" y="558"/>
      <point x="653" y="567" type="curve" smooth="yes"/>
      <point x="665" y="577"/>
      <point x="685" y="581"/>
      <point x="708" y="588" type="curve"/>
      <point x="708" y="616" type="line"/>
      <point x="492" y="616" type="line"/>
      <point x="492" y="591" type="line"/>
      <point x="538" y="584"/>
      <point x="565" y="582"/>
      <point x="580" y="568" type="curve" smooth="yes"/>
      <point x="591" y="557"/>
      <point x="596" y="541"/>
    </contour>
  </outline>
</glyph>
<glyph name="O" format="2">
  <advance width="708"/>
  <unicode hex="004F"/>
  <anchor x="372" y="0" name="bottom"/>
  <anchor x="372" y="308" name="center"/>
  <anchor x="522" y="10" name="ogonek"/>
  <anchor x="363" y="616" name="top"/>
  <anchor x="14" y="616" name="topleft"/>
  <anchor x="568" y="485" name="topright"/>
  <outline>
    <contour>
      <point x="351" y="-11" type="curve" smooth="yes"/>
      <point x="546" y="-11"/>
      <point x="660" y="121"/>
      <point x="660" y="308" type="curve" smooth="yes"/>
      <point x="660" y="494"/>
      <point x="546" y="626"/>
      <point x="351" y="626" type="curve" smooth="yes"/>
      <point x="168" y="626"/>
      <point x="48" y="494"/>
      <point x="48" y="308" type="curve" smooth="yes"/>
      <point x="48" y="121"/>
      <point x="168" y="-11"/>
    </contour>
    <contour>
      <point x="144" y="318" type="curve" smooth="yes"/>
      <point x="144" y="474"/>
      <point x="217" y="585"/>
      <point x="334" y="585" type="curve" smooth="yes"/>
      <point x="483" y="585"/>
      <point x="564" y="466"/>
      <point x="564" y="298" type="curve" smooth="yes"/>
      <point x="564" y="141"/>
      <point x="497" y="30"/>
      <point x="368" y="30" type="curve" smooth="yes"/>
      <point x="232" y="30"/>
      <point x="144" y="149"/>
    </contour>
  </outline>
</glyph>
<glyph name="P" format="2">
  <advance width="488"/>
  <unicode hex="0050"/>
  <anchor x="240" y="0" name="bottom"/>
  <anchor x="202" y="616" name="top"/>
  <outline>
    <contour>
      <point x="208" y="272" type="line"/>
      <point x="219" y="271"/>
      <point x="229" y="271"/>
      <point x="239" y="271" type="curve" smooth="yes"/>
      <point x="368" y="271"/>
      <point x="456" y="337"/>
      <point x="456" y="448" type="curve" smooth="yes"/>
      <point x="456" y="552"/>
      <point x="379" y="620"/>
      <point x="267" y="618" type="curve"/>
      <point x="248" y="584" type="line"/>
      <point x="322" y="584"/>
      <point x="370" y="528"/>
      <point x="370" y="436" type="curve" smooth="yes"/>
      <point x="370" y="346"/>
      <point x="307" y="295"/>
      <point x="208" y="295" type="curve"/>
    </contour>
    <contour>
      <point x="6" y="0" type="line"/>
      <point x="276" y="0" type="line"/>
      <point x="276" y="25" type="line"/>
      <point x="225" y="36"/>
      <point x="204" y="39"/>
      <point x="192" y="51" type="curve" smooth="yes"/>
      <point x="182" y="61"/>
      <point x="179" y="78"/>
      <point x="178" y="111" type="curve" smooth="yes"/>
      <point x="176" y="188"/>
      <point x="176" y="379"/>
      <point x="179" y="583" type="curve"/>
      <point x="248" y="584" type="line"/>
      <point x="267" y="618" type="line"/>
      <point x="228" y="617"/>
      <point x="167" y="616"/>
      <point x="135" y="616" type="curve"/>
      <point x="96" y="616"/>
      <point x="31" y="617"/>
      <point x="-12" y="618" type="curve"/>
      <point x="-12" y="587" type="line"/>
      <point x="33" y="580"/>
      <point x="63" y="576"/>
      <point x="80" y="556" type="curve" smooth="yes"/>
      <point x="90" y="545"/>
      <point x="95" y="531"/>
      <point x="95" y="507" type="curve" smooth="yes"/>
      <point x="97" y="369"/>
      <point x="97" y="235"/>
      <point x="95" y="101" type="curve" smooth="yes"/>
      <point x="95" y="75"/>
      <point x="91" y="60"/>
      <point x="82" y="49" type="curve" smooth="yes"/>
      <point x="71" y="35"/>
      <point x="29" y="30"/>
      <point x="6" y="25" type="curve"/>
    </contour>
  </outline>
</glyph>
<glyph name="Q" format="2">
  <advance width="708"/>
  <unicode hex="0051"/>
  <anchor x="372" y="0" name="bottom"/>
  <anchor x="372" y="616" name="top"/>
  <outline>
    <contour>
      <point x="375" y="-11" type="curve" smooth="yes"/>
      <point x="563" y="-11"/>
      <point x="696" y="121"/>
      <point x="696" y="308" type="curve" smooth="yes"/>
      <point x="696" y="494"/>
      <point x="563" y="626"/>
      <point x="375" y="626" type="curve" smooth="yes"/>
      <point x="183" y="626"/>
      <point x="48" y="494"/>
      <point x="48" y="308" type="curve" smooth="yes"/>
      <point x="48" y="121"/>
      <point x="183" y="-11"/>
    </contour>
    <contour>
      <point x="144" y="318" type="curve" smooth="yes"/>
      <point x="144" y="474"/>
      <point x="230" y="584"/>
      <point x="352" y="584" type="curve" smooth="yes"/>
      <point x="497" y="584"/>
      <point x="600" y="466"/>
      <point x="600" y="298" type="curve" smooth="yes"/>
      <point x="600" y="141"/>
      <point x="514" y="30"/>
      <point x="392" y="30" type="curve" smooth="yes"/>
      <point x="247" y="30"/>
      <point x="144" y="149"/>
    </contour>
    <contour>
      <point x="807" y="-232" type="curve" smooth="yes"/>
      <point x="933" y="-232"/>
      <point x="1051" y="-202"/>
      <point x="1125" y="-153" type="curve"/>
      <point x="1114" y="-133" type="line"/>
      <point x="1040" y="-163"/>
      <point x="951" y="-179"/>
      <point x="863" y="-179" type="curve" smooth="yes"/>
      <point x="697" y="-179"/>
      <point x="531" y="-98"/>
      <point x="452" y="29" type="curve"/>
      <point x="325" y="11" type="line"/>
      <point x="424" y="-144"/>
      <point x="624" y="-232"/>
    </contour>
  </outline>
</glyph>
<glyph name="R" format="2">
  <advance width="618"/>
  <unicode hex="0052"/>
  <anchor x="359" y="0" name="bottom"/>
  <anchor x="202" y="616" name="top"/>
  <outline>
    <contour>
      <point x="168" y="282" type="line"/>
      <point x="333" y="282"/>
      <point x="450" y="354"/>
      <point x="450" y="458" type="curve" smooth="yes"/>
      <point x="450" y="550"/>
      <point x="367" y="620"/>
      <point x="259" y="618" type="curve"/>
      <point x="240" y="576" type="line"/>
      <point x="310" y="576"/>
      <point x="364" y="526"/>
      <point x="364" y="446" type="curve" smooth="yes"/>
      <point x="364" y="362"/>
      <point x="284" y="322"/>
      <point x="168" y="322" type="curve"/>
    </contour>
    <contour>
      <point x="6" y="0" type="line"/>
      <point x="276" y="0" type="line"/>
      <point x="276" y="27" type="line"/>
      <point x="237" y="31"/>
      <point x="199" y="41"/>
      <point x="188" y="53" type="curve" smooth="yes"/>
      <point x="178" y="63"/>
      <point x="176" y="79"/>
      <point x="176" y="106" type="curve" smooth="yes"/>
      <point x="176" y="374"/>
      <point x="175" y="454"/>
      <point x="179" y="574" type="curve"/>
      <point x="240" y="576" type="line"/>
      <point x="259" y="618" type="line"/>
      <point x="210" y="617"/>
      <point x="182" y="616"/>
      <point x="133" y="616" type="curve"/>
      <point x="94" y="615"/>
      <point x="53" y="617"/>
      <point x="7" y="618" type="curve"/>
      <point x="7" y="592" type="line"/>
      <point x="42" y="585"/>
      <point x="73" y="579"/>
      <point x="84" y="567" type="curve" smooth="yes"/>
      <point x="93" y="556"/>
      <point x="95" y="538"/>
      <point x="95" y="512" type="curve" smooth="yes"/>
      <point x="97" y="376"/>
      <point x="97" y="238"/>
      <point x="95" y="104" type="curve" smooth="yes"/>
      <point x="95" y="69"/>
      <point x="91" y="53"/>
      <point x="80" y="44" type="curve" smooth="yes"/>
      <point x="68" y="34"/>
      <point x="48" y="32"/>
      <point x="6" y="25" type="curve"/>
    </contour>
    <contour>
      <point x="618" y="0" type="line"/>
      <point x="618" y="18" type="line"/>
      <point x="546" y="26"/>
      <point x="424" y="156"/>
      <point x="328" y="337" type="curve"/>
      <point x="252" y="305" type="line"/>
      <point x="337" y="123"/>
      <point x="444" y="-5"/>
      <point x="516" y="-3" type="curve" smooth="yes"/>
    </contour>
  </outline>
</glyph>
<glyph name="S" format="2">
  <advance width="475"/>
  <unicode hex="0053"/>
  <anchor x="210" y="0" name="bottom"/>
  <anchor x="235" y="616" name="top"/>
  <outline>
    <contour>
      <point x="211" y="-9" type="curve" smooth="yes"/>
      <point x="338" y="-9"/>
      <point x="427" y="69"/>
      <point x="427" y="176" type="curve" smooth="yes"/>
      <point x="427" y="341"/>
      <point x="117" y="354"/>
      <point x="120" y="492" type="curve" smooth="yes"/>
      <point x="121" y="545"/>
      <point x="167" y="581"/>
      <point x="235" y="581" type="curve" smooth="yes"/>
      <point x="310" y="581"/>
      <point x="357" y="517"/>
      <point x="351" y="453" type="curve"/>
      <point x="390" y="453" type="line"/>
      <point x="389" y="508"/>
      <point x="390" y="576"/>
      <point x="394" y="593" type="curve"/>
      <point x="344" y="611"/>
      <point x="276" y="624"/>
      <point x="235" y="624" type="curve" smooth="yes"/>
      <point x="122" y="624"/>
      <point x="49" y="550"/>
      <point x="49" y="446" type="curve" smooth="yes"/>
      <point x="49" y="272"/>
      <point x="353" y="279"/>
      <point x="353" y="136" type="curve" smooth="yes"/>
      <point x="353" y="75"/>
      <point x="292" y="33"/>
      <point x="211" y="35" type="curve" smooth="yes"/>
      <point x="136" y="37"/>
      <point x="87" y="104"/>
      <point x="89" y="197" type="curve"/>
      <point x="48" y="197" type="line"/>
      <point x="51" y="171"/>
      <point x="52" y="104"/>
      <point x="51" y="36" type="curve"/>
      <point x="116" y="10"/>
      <point x="182" y="-9"/>
    </contour>
  </outline>
</glyph>
<glyph name="U" format="2">
  <advance width="663"/>
  <unicode hex="0055"/>
  <anchor x="332" y="0" name="bottom"/>
  <anchor x="472" y="10" name="ogonek"/>
  <anchor x="350" y="616" name="top"/>
  <anchor x="600" y="544" name="topright"/>
  <outline>
    <contour>
      <point x="329" y="-11" type="curve" smooth="yes"/>
      <point x="476" y="-11"/>
      <point x="582" y="78"/>
      <point x="584" y="204" type="curve" smooth="yes"/>
      <point x="586" y="339"/>
      <point x="583" y="431"/>
      <point x="584" y="514" type="curve" smooth="yes"/>
      <point x="585" y="578"/>
      <point x="608" y="588"/>
      <point x="656" y="588" type="curve"/>
      <point x="656" y="616" type="line"/>
      <point x="458" y="616" type="line"/>
      <point x="458" y="592" type="line"/>
      <point x="509" y="582"/>
      <point x="541" y="553"/>
      <point x="542" y="481" type="curve" smooth="yes"/>
      <point x="543" y="387"/>
      <point x="544" y="303"/>
      <point x="542" y="208" type="curve" smooth="yes"/>
      <point x="540" y="111"/>
      <point x="464" y="42"/>
      <point x="358" y="42" type="curve" smooth="yes"/>
      <point x="260" y="42"/>
      <point x="179" y="102"/>
      <point x="163" y="188" type="curve" smooth="yes"/>
      <point x="161" y="197"/>
      <point x="160" y="327"/>
      <point x="160" y="503" type="curve" smooth="yes"/>
      <point x="160" y="570"/>
      <point x="193" y="588"/>
      <point x="242" y="592" type="curve"/>
      <point x="242" y="616" type="line"/>
      <point x="8" y="616" type="line"/>
      <point x="8" y="585" type="line"/>
      <point x="38" y="579"/>
      <point x="80" y="567"/>
      <point x="80" y="511" type="curve" smooth="yes"/>
      <point x="80" y="486"/>
      <point x="80" y="367"/>
      <point x="80" y="202" type="curve" smooth="yes"/>
      <point x="80" y="77"/>
      <point x="183" y="-11"/>
    </contour>
  </outline>
</glyph>
<glyph name="X" format="2">
  <advance width="626"/>
  <unicode hex="0058"/>
  <anchor x="313" y="0" name="bottom"/>
  <anchor x="338" y="616" name="top"/>
  <outline>
    <contour>
      <point x="352" y="0" type="line"/>
      <point x="610" y="0" type="line"/>
      <point x="610" y="28" type="line"/>
      <point x="569" y="33"/>
      <point x="565" y="26"/>
      <point x="503" y="114" type="curve" smooth="yes"/>
      <point x="336" y="351"/>
      <point x="340" y="351"/>
      <point x="220" y="512" type="curve" smooth="yes"/>
      <point x="199" y="541"/>
      <point x="192" y="555"/>
      <point x="192" y="566" type="curve" smooth="yes"/>
      <point x="192" y="581"/>
      <point x="207" y="586"/>
      <point x="258" y="591" type="curve"/>
      <point x="258" y="616" type="line"/>
      <point x="16" y="616" type="line"/>
      <point x="16" y="588" type="line"/>
      <point x="50" y="588"/>
      <point x="66" y="587"/>
      <point x="131" y="494" type="curve" smooth="yes"/>
      <point x="277" y="286"/>
      <point x="283" y="286"/>
      <point x="408" y="105" type="curve" smooth="yes"/>
      <point x="428" y="76"/>
      <point x="439" y="58"/>
      <point x="439" y="47" type="curve" smooth="yes"/>
      <point x="439" y="30"/>
      <point x="415" y="29"/>
      <point x="352" y="25" type="curve"/>
    </contour>
    <contour>
      <point x="16" y="0" type="line"/>
      <point x="214" y="0" type="line"/>
      <point x="214" y="25" type="line"/>
      <point x="182" y="28"/>
      <point x="160" y="32"/>
      <point x="160" y="54" type="curve" smooth="yes"/>
      <point x="160" y="67"/>
      <point x="166" y="80"/>
      <point x="189" y="112" type="curve" smooth="yes"/>
      <point x="327" y="308" type="line"/>
      <point x="293" y="333" type="line"/>
      <point x="123" y="101" type="line" smooth="yes"/>
      <point x="61" y="17"/>
      <point x="47" y="30"/>
      <point x="16" y="28" type="curve"/>
    </contour>
    <contour>
      <point x="338" y="315" type="line"/>
      <point x="486" y="504" type="line" smooth="yes"/>
      <point x="547" y="582"/>
      <point x="572" y="585"/>
      <point x="610" y="588" type="curve"/>
      <point x="610" y="616" type="line"/>
      <point x="412" y="616" type="line"/>
      <point x="412" y="591" type="line"/>
      <point x="439" y="588"/>
      <point x="457" y="586"/>
      <point x="457" y="567" type="curve" smooth="yes"/>
      <point x="457" y="550"/>
      <point x="440" y="517"/>
      <point x="398" y="463" type="curve" smooth="yes"/>
      <point x="303" y="340" type="line"/>
    </contour>
  </outline>
</glyph>
<glyph name="Z" format="2">
  <advance width="638"/>
  <unicode hex="005A"/>
  <anchor x="320" y="0" name="bottom"/>
  <anchor x="320" y="308" name="center"/>
  <anchor x="319" y="615" name="top"/>
  <outline>
    <contour>
      <point x="40" y="0" type="line"/>
      <point x="167" y="0"/>
      <point x="362" y="1"/>
      <point x="391" y="1" type="curve" smooth="yes"/>
      <point x="421" y="1"/>
      <point x="491" y="1"/>
      <point x="532" y="-2" type="curve"/>
      <point x="558" y="57"/>
      <point x="580" y="143"/>
      <point x="590" y="210" type="curve"/>
      <point x="556" y="210" type="line"/>
      <point x="545" y="154"/>
      <point x="502" y="43"/>
      <point x="355" y="41" type="curve" smooth="yes"/>
      <point x="142" y="38" type="line"/>
      <point x="147" y="24" type="line"/>
      <point x="562" y="594" type="line"/>
      <point x="550" y="621" type="line"/>
      <point x="473" y="616"/>
      <point x="319" y="615"/>
      <point x="271" y="615" type="curve" smooth="yes"/>
      <point x="213" y="615"/>
      <point x="113" y="611"/>
      <point x="72" y="617" type="curve"/>
      <point x="63" y="554"/>
      <point x="57" y="490"/>
      <point x="56" y="427" type="curve"/>
      <point x="84" y="427" type="line"/>
      <point x="94" y="479"/>
      <point x="83" y="576"/>
      <point x="218" y="576" type="curve" smooth="yes"/>
      <point x="293" y="576"/>
      <point x="409" y="574"/>
      <point x="467" y="572" type="curve"/>
      <point x="457" y="596" type="line"/>
      <point x="32" y="12" type="line"/>
    </contour>
  </outline>
</glyph>
<glyph name="bracketleft" format="2">
  <advance width="292"/>
  <unicode hex="005B"/>
  <outline>
    <contour>
      <point x="157" y="656" type="line"/>
      <point x="276" y="656" type="line"/>
      <point x="276" y="692" type="line"/>
      <point x="85" y="692" type="line"/>
      <point x="100" y="416"/>
      <point x="100" y="140"/>
      <point x="85" y="-136" type="curve"/>
      <point x="276" y="-136" type="line"/>
      <point x="276" y="-100" type="line"/>
      <point x="157" y="-100" type="line"/>
    </contour>
  </outline>
</glyph>
<glyph name="backslash" format="2">
  <advance width="370"/>
  <unicode hex="005C"/>
  <outline>
    <contour>
      <point x="291" y="-102" type="line"/>
      <point x="338" y="-85" type="line"/>
      <point x="80" y="751" type="line"/>
      <point x="32" y="736" type="line"/>
    </contour>
  </outline>
</glyph>
<glyph name="bracketright" format="2">
  <advance width="292"/>
  <unicode hex="005D"/>
  <outline>
    <contour>
      <point x="135" y="656" type="line"/>
      <point x="135" y="-100" type="line"/>
      <point x="16" y="-100" type="line"/>
      <point x="16" y="-136" type="line"/>
      <point x="207" y="-136" type="line"/>
      <point x="192" y="140"/>
      <point x="192" y="416"/>
      <point x="207" y="692" type="curve"/>
      <point x="16" y="692" type="line"/>
      <point x="16" y="656" type="line"/>
    </contour>
  </outline>
</glyph>
<glyph name="asciicircum" format="2">
  <advance width="420"/>
  <unicode hex="005E"/>
  <outline>
    <contour>
      <point x="95" y="327" type="line"/>
      <point x="210" y="538" type="line"/>
      <point x="325" y="327" type="line"/>
      <point x="372" y="345" type="line"/>
      <point x="226" y="616" type="line"/>
      <point x="194" y="616" type="line"/>
      <point x="48" y="345" type="line"/>
    </contour>
  </outline>
</glyph>
<glyph name="a" format="2">
  <advance width="348"/>
  <unicode hex="0061"/>
  <anchor x="194" y="0" name="bottom"/>
  <anchor x="352" y="10" name="ogonek"/>
  <anchor x="211" y="385" name="top"/>
  <outline>
    <contour>
      <point x="277" y="-6" type="curve" smooth="yes"/>
      <point x="286" y="-6"/>
      <point x="319" y="8"/>
      <point x="358" y="27" type="curve"/>
      <point x="356" y="40" type="line"/>
      <point x="324" y="41" type="line" smooth="yes"/>
      <point x="299" y="42"/>
      <point x="281" y="60"/>
      <point x="281" y="84" type="curve" smooth="yes"/>
      <point x="281" y="51"/>
      <point x="283" y="133"/>
      <point x="285" y="290" type="curve"/>
      <point x="285" y="351"/>
      <point x="242" y="395"/>
      <point x="193" y="395" type="curve" smooth="yes"/>
      <point x="164" y="395"/>
      <point x="139" y="378"/>
      <point x="100" y="354" type="curve" smooth="yes"/>
      <point x="68" y="332"/>
      <point x="46" y="295"/>
      <point x="46" y="264" type="curve" smooth="yes"/>
      <point x="46" y="233"/>
      <point x="118" y="247"/>
      <point x="118" y="278" type="curve" smooth="yes"/>
      <point x="118" y="294"/>
      <point x="111" y="290"/>
      <point x="111" y="305" type="curve" smooth="yes"/>
      <point x="111" y="332"/>
      <point x="119" y="351"/>
      <point x="147" y="351" type="curve" smooth="yes"/>
      <point x="197" y="351"/>
      <point x="215" y="324"/>
      <point x="213" y="284" type="curve" smooth="yes"/>
      <point x="210" y="218" type="line"/>
      <point x="209" y="205"/>
      <point x="209" y="138"/>
      <point x="209" y="57" type="curve" smooth="yes"/>
      <point x="213" y="20"/>
      <point x="241" y="-6"/>
    </contour>
    <contour>
      <point x="115" y="-6" type="curve" smooth="yes"/>
      <point x="143" y="-6"/>
      <point x="190" y="24"/>
      <point x="230" y="66" type="curve"/>
      <point x="230" y="85" type="line"/>
      <point x="199" y="61"/>
      <point x="169" y="44"/>
      <point x="141" y="44" type="curve" smooth="yes"/>
      <point x="112" y="44"/>
      <point x="111" y="71"/>
      <point x="111" y="110" type="curve"/>
      <point x="32" y="94" type="line"/>
      <point x="32" y="35"/>
      <point x="63" y="-6"/>
    </contour>
    <contour>
      <point x="32" y="94" type="curve"/>
      <point x="111" y="110" type="line"/>
      <point x="111" y="131"/>
      <point x="146" y="158"/>
      <point x="241" y="175" type="curve"/>
      <point x="242" y="206" type="line"/>
      <point x="100" y="183"/>
      <point x="32" y="137"/>
    </contour>
  </outline>
</glyph>
<glyph name="b" format="2">
  <advance width="438"/>
  <unicode hex="0062"/>
  <anchor x="228" y="0" name="bottom"/>
  <anchor x="108" y="555" name="center"/>
  <anchor x="267" y="384" name="top"/>
  <outline>
    <contour>
      <point x="136" y="24" type="line"/>
      <point x="138" y="551" type="line"/>
      <point x="141" y="658" type="line"/>
      <point x="126" y="668" type="line"/>
      <point x="-6" y="637" type="line"/>
      <point x="-6" y="616" type="line"/>
      <point x="35" y="601"/>
      <point x="64" y="578"/>
      <point x="64" y="560" type="curve" smooth="yes"/>
      <point x="64" y="255"/>
      <point x="64" y="40"/>
      <point x="64" y="40" type="curve"/>
    </contour>
    <contour>
      <point x="406" y="221" type="curve"/>
      <point x="332" y="188" type="line"/>
      <point x="331" y="96"/>
      <point x="292" y="26"/>
      <point x="213" y="26" type="curve" smooth="yes"/>
      <point x="163" y="26"/>
      <point x="134" y="67"/>
      <point x="110" y="125" type="curve"/>
      <point x="64" y="40" type="line"/>
      <point x="101" y="10"/>
      <point x="140" y="-11"/>
      <point x="192" y="-11" type="curve" smooth="yes"/>
      <point x="328" y="-11"/>
      <point x="406" y="88"/>
    </contour>
    <contour>
      <point x="332" y="188" type="curve"/>
      <point x="406" y="221" type="line"/>
      <point x="406" y="326"/>
      <point x="351" y="395"/>
      <point x="249" y="395" type="curve" smooth="yes"/>
      <point x="196" y="395"/>
      <point x="149" y="360"/>
      <point x="100" y="310" type="curve"/>
      <point x="100" y="291" type="line"/>
      <point x="130" y="317"/>
      <point x="159" y="335"/>
      <point x="204" y="335" type="curve" smooth="yes"/>
      <point x="290" y="335"/>
      <point x="332" y="277"/>
    </contour>
  </outline>
</glyph>
<glyph name="c" format="2">
  <advance width="356"/>
  <unicode hex="0063"/>
  <anchor x="212" y="0" name="bottom"/>
  <anchor x="215" y="384" name="top"/>
  <outline>
    <contour>
      <point x="107" y="210" type="curve" smooth="yes"/>
      <point x="107" y="302"/>
      <point x="131" y="367"/>
      <point x="191" y="367" type="curve"/>
      <point x="205" y="395" type="line"/>
      <point x="93" y="395"/>
      <point x="32" y="309"/>
      <point x="32" y="188" type="curve" smooth="yes"/>
      <point x="32" y="71"/>
      <point x="89" y="-11"/>
      <point x="194" y="-11" type="curve" smooth="yes"/>
      <point x="265" y="-11"/>
      <point x="322" y="36"/>
      <point x="356" y="103" type="curve"/>
      <point x="338" y="116" type="line"/>
      <point x="310" y="79"/>
      <point x="269" y="52"/>
      <point x="215" y="52" type="curve" smooth="yes"/>
      <point x="141" y="52"/>
      <point x="107" y="117"/>
    </contour>
    <contour>
      <point x="205" y="395" type="curve"/>
      <point x="191" y="367" type="line"/>
      <point x="254" y="367"/>
      <point x="281" y="315"/>
      <point x="283" y="247" type="curve"/>
      <point x="317" y="247" type="line"/>
      <point x="315" y="296"/>
      <point x="316" y="349"/>
      <point x="320" y="371" type="curve"/>
      <point x="267" y="382"/>
      <point x="257" y="395"/>
    </contour>
  </outline>
</glyph>
<glyph name="d" format="2">
  <advance width="438"/>
  <unicode hex="0064"/>
  <anchor x="223" y="0" name="bottom"/>
  <anchor x="361" y="555" name="center"/>
  <anchor x="149" y="384" name="top"/>
  <anchor x="426" y="694" name="topright"/>
  <outline>
    <contour>
      <point x="109" y="220" type="curve"/>
      <point x="32" y="189" type="line"/>
      <point x="32" y="72"/>
      <point x="92" y="-11"/>
      <point x="177" y="-11" type="curve" smooth="yes"/>
      <point x="212" y="-11"/>
      <point x="277" y="22"/>
      <point x="334" y="69" type="curve"/>
      <point x="334" y="88" type="line"/>
      <point x="296" y="65"/>
      <point x="251" y="49"/>
      <point x="224" y="49" type="curve" smooth="yes"/>
      <point x="157" y="49"/>
      <point x="109" y="120"/>
    </contour>
    <contour>
      <point x="374" y="85" type="curve"/>
      <point x="302" y="58" type="line"/>
      <point x="303" y="58" type="line"/>
      <point x="302" y="-6" type="line"/>
      <point x="315" y="-12" type="line"/>
      <point x="446" y="21" type="line"/>
      <point x="446" y="42" type="line"/>
      <point x="392" y="57"/>
      <point x="374" y="75"/>
    </contour>
    <contour>
      <point x="32" y="189" type="curve"/>
      <point x="109" y="220" type="line"/>
      <point x="109" y="301"/>
      <point x="153" y="358"/>
      <point x="215" y="358" type="curve" smooth="yes"/>
      <point x="254" y="358"/>
      <point x="299" y="320"/>
      <point x="324" y="267" type="curve"/>
      <point x="350" y="356" type="line"/>
      <point x="318" y="379"/>
      <point x="271" y="395"/>
      <point x="236" y="395" type="curve" smooth="yes"/>
      <point x="117" y="395"/>
      <point x="32" y="310"/>
    </contour>
    <contour>
      <point x="302" y="58" type="line"/>
      <point x="374" y="85" type="line"/>
      <point x="374" y="557" type="line"/>
      <point x="376" y="658" type="line"/>
      <point x="361" y="668" type="line"/>
      <point x="232" y="637" type="line"/>
      <point x="232" y="616" type="line"/>
      <point x="273" y="599"/>
      <point x="302" y="577"/>
      <point x="302" y="563" type="curve" smooth="yes"/>
    </contour>
  </outline>
</glyph>
<glyph name="e" format="2">
  <advance width="354"/>
  <unicode hex="0065"/>
  <anchor x="211" y="0" name="bottom"/>
  <anchor x="285" y="10" name="ogonek"/>
  <anchor x="218" y="384" name="top"/>
  <outline>
    <contour>
      <point x="107" y="210" type="curve" smooth="yes"/>
      <point x="107" y="302"/>
      <point x="133" y="362"/>
      <point x="193" y="362" type="curve" smooth="yes"/>
      <point x="238" y="362"/>
      <point x="254" y="325"/>
      <point x="257" y="266" type="curve"/>
      <point x="84" y="260" type="line"/>
      <point x="80" y="231" type="line"/>
      <point x="326" y="225" type="line"/>
      <point x="338" y="239" type="line"/>
      <point x="338" y="330"/>
      <point x="294" y="395"/>
      <point x="207" y="395" type="curve" smooth="yes"/>
      <point x="95" y="395"/>
      <point x="32" y="309"/>
      <point x="32" y="188" type="curve" smooth="yes"/>
      <point x="32" y="71"/>
      <point x="87" y="-11"/>
      <point x="188" y="-11" type="curve" smooth="yes"/>
      <point x="250" y="-11"/>
      <point x="301" y="33"/>
      <point x="336" y="95" type="curve"/>
      <point x="318" y="108" type="line"/>
      <point x="295" y="75"/>
      <point x="261" y="52"/>
      <point x="209" y="52" type="curve" smooth="yes"/>
      <point x="140" y="52"/>
      <point x="107" y="117"/>
    </contour>
  </outline>
</glyph>
<glyph name="f" format="2">
  <advance width="260"/>
  <unicode hex="0066"/>
  <anchor x="143" y="0" name="bottom"/>
  <anchor x="143" y="694" name="top"/>
  <outline>
    <contour>
      <point x="8" y="18" type="curve"/>
      <point x="8" y="0" type="line"/>
      <point x="242" y="0" type="line"/>
      <point x="242" y="18" type="line"/>
      <point x="195" y="31"/>
      <point x="159" y="31"/>
      <point x="157" y="69" type="curve" smooth="yes"/>
      <point x="152" y="163"/>
      <point x="152" y="304"/>
      <point x="157" y="449" type="curve" smooth="yes"/>
      <point x="160" y="509"/>
      <point x="161" y="541"/>
      <point x="160" y="528" type="curve" smooth="yes"/>
      <point x="166" y="584"/>
      <point x="177" y="624"/>
      <point x="187" y="624" type="curve" smooth="yes"/>
      <point x="202" y="624"/>
      <point x="219" y="617"/>
      <point x="228" y="606" type="curve" smooth="yes"/>
      <point x="246" y="580"/>
      <point x="256" y="564"/>
      <point x="252" y="567" type="curve" smooth="yes"/>
      <point x="275" y="546"/>
      <point x="337" y="615"/>
      <point x="315" y="638" type="curve" smooth="yes"/>
      <point x="299" y="654"/>
      <point x="269" y="665"/>
      <point x="241" y="665" type="curve" smooth="yes"/>
      <point x="203" y="665"/>
      <point x="155" y="634"/>
      <point x="125" y="590" type="curve" smooth="yes"/>
      <point x="102" y="557"/>
      <point x="84" y="473"/>
      <point x="81" y="387" type="curve" smooth="yes"/>
      <point x="80" y="355"/>
      <point x="80" y="221"/>
      <point x="81" y="69" type="curve" smooth="yes"/>
      <point x="81" y="30"/>
      <point x="47" y="32"/>
    </contour>
    <contour>
      <point x="8" y="349" type="line"/>
      <point x="260" y="334" type="line"/>
      <point x="260" y="389" type="line"/>
      <point x="87" y="384" type="line"/>
      <point x="8" y="359" type="line"/>
    </contour>
  </outline>
</glyph>
<glyph name="g" format="2">
  <advance width="374"/>
  <unicode hex="0067"/>
  <anchor x="203" y="-196" name="bottom"/>
  <anchor x="202" y="384" name="top"/>
  <outline>
    <contour>
      <point x="213" y="374" type="line"/>
      <point x="227" y="342" type="line"/>
      <point x="374" y="332" type="line"/>
      <point x="374" y="389" type="line"/>
    </contour>
    <contour>
      <point x="32" y="43" type="curve" smooth="yes"/>
      <point x="32" y="5"/>
      <point x="71" y="-22"/>
      <point x="125" y="-22" type="curve" smooth="yes"/>
      <point x="158" y="-22"/>
      <point x="191" y="-22"/>
      <point x="240" y="-22" type="curve" smooth="yes"/>
      <point x="285" y="-22"/>
      <point x="317" y="-40"/>
      <point x="317" y="-66" type="curve" smooth="yes"/>
      <point x="317" y="-135"/>
      <point x="261" y="-183"/>
      <point x="181" y="-183" type="curve" smooth="yes"/>
      <point x="122" y="-183"/>
      <point x="80" y="-143"/>
      <point x="80" y="-86" type="curve" smooth="yes"/>
      <point x="80" y="-39"/>
      <point x="100" y="1"/>
      <point x="128" y="9" type="curve"/>
      <point x="100" y="15" type="line"/>
      <point x="50" y="-6"/>
      <point x="14" y="-61"/>
      <point x="14" y="-119" type="curve" smooth="yes"/>
      <point x="14" y="-179"/>
      <point x="67" y="-221"/>
      <point x="143" y="-221" type="curve" smooth="yes"/>
      <point x="273" y="-221"/>
      <point x="365" y="-141"/>
      <point x="365" y="-29" type="curve" smooth="yes"/>
      <point x="365" y="14"/>
      <point x="327" y="44"/>
      <point x="274" y="44" type="curve" smooth="yes"/>
      <point x="164" y="44" type="line" smooth="yes"/>
      <point x="126" y="44"/>
      <point x="99" y="58"/>
      <point x="99" y="77" type="curve" smooth="yes"/>
      <point x="99" y="95"/>
      <point x="118" y="122"/>
      <point x="144" y="142" type="curve"/>
      <point x="120" y="151" type="line"/>
      <point x="68" y="125"/>
      <point x="32" y="80"/>
    </contour>
    <contour>
      <point x="119" y="276" type="curve" smooth="yes"/>
      <point x="119" y="330"/>
      <point x="144" y="368"/>
      <point x="179" y="368" type="curve" smooth="yes"/>
      <point x="216" y="368"/>
      <point x="243" y="315"/>
      <point x="243" y="239" type="curve" smooth="yes"/>
      <point x="243" y="184"/>
      <point x="222" y="145"/>
      <point x="192" y="145" type="curve" smooth="yes"/>
      <point x="149" y="145"/>
      <point x="119" y="199"/>
    </contour>
    <contour>
      <point x="41" y="253" type="curve" smooth="yes"/>
      <point x="41" y="175"/>
      <point x="100" y="120"/>
      <point x="184" y="120" type="curve" smooth="yes"/>
      <point x="263" y="120"/>
      <point x="319" y="178"/>
      <point x="319" y="261" type="curve" smooth="yes"/>
      <point x="319" y="338"/>
      <point x="265" y="393"/>
      <point x="188" y="393" type="curve" smooth="yes"/>
      <point x="102" y="393"/>
      <point x="41" y="335"/>
    </contour>
  </outline>
</glyph>
<glyph name="h" format="2">
  <advance width="434"/>
  <unicode hex="0068"/>
  <anchor x="235" y="0" name="bottom"/>
  <anchor x="114" y="555" name="center"/>
  <anchor x="109" y="640" name="top"/>
  <outline>
    <contour>
      <point x="10" y="18" type="curve"/>
      <point x="10" y="0" type="line"/>
      <point x="208" y="0" type="line"/>
      <point x="208" y="18" type="line"/>
      <point x="161" y="32"/>
      <point x="136" y="39"/>
      <point x="136" y="68" type="curve" smooth="yes"/>
      <point x="136" y="557" type="line"/>
      <point x="138" y="658" type="line"/>
      <point x="123" y="668" type="line"/>
      <point x="-8" y="637" type="line"/>
      <point x="-8" y="616" type="line"/>
      <point x="13" y="608"/>
      <point x="64" y="595"/>
      <point x="64" y="563" type="curve" smooth="yes"/>
      <point x="64" y="68" type="line" smooth="yes"/>
      <point x="64" y="39"/>
      <point x="40" y="32"/>
    </contour>
    <contour>
      <point x="244" y="0" type="line"/>
      <point x="424" y="0" type="line"/>
      <point x="424" y="18" type="line"/>
      <point x="386" y="32"/>
      <point x="370" y="37"/>
      <point x="370" y="68" type="curve" smooth="yes"/>
      <point x="370" y="273" type="line" smooth="yes"/>
      <point x="370" y="355"/>
      <point x="354" y="395"/>
      <point x="284" y="395" type="curve" smooth="yes"/>
      <point x="234" y="395"/>
      <point x="181" y="365"/>
      <point x="115" y="305" type="curve"/>
      <point x="115" y="286" type="line"/>
      <point x="175" y="329"/>
      <point x="204" y="335"/>
      <point x="239" y="335" type="curve" smooth="yes"/>
      <point x="291" y="335"/>
      <point x="294" y="306"/>
      <point x="298" y="246" type="curve" smooth="yes"/>
      <point x="302" y="187"/>
      <point x="302" y="127"/>
      <point x="298" y="68" type="curve" smooth="yes"/>
      <point x="296" y="38"/>
      <point x="271" y="32"/>
      <point x="244" y="18" type="curve"/>
    </contour>
  </outline>
</glyph>
<glyph name="k" format="2">
  <advance width="460"/>
  <unicode hex="006B"/>
  <anchor x="226" y="0" name="bottom"/>
  <anchor x="262" y="568" name="top"/>
  <outline>
    <contour>
      <point x="10" y="18" type="curve"/>
      <point x="10" y="0" type="line"/>
      <point x="190" y="0" type="line"/>
      <point x="190" y="18" type="line"/>
      <point x="155" y="32"/>
      <point x="136" y="39"/>
      <point x="136" y="68" type="curve" smooth="yes"/>
      <point x="136" y="557" type="line"/>
      <point x="138" y="658" type="line"/>
      <point x="123" y="665" type="line"/>
      <point x="-8" y="637" type="line"/>
      <point x="-8" y="616" type="line"/>
      <point x="13" y="608"/>
      <point x="64" y="595"/>
      <point x="64" y="563" type="curve" smooth="yes"/>
      <point x="64" y="68" type="line" smooth="yes"/>
      <point x="64" y="39"/>
      <point x="47" y="32"/>
    </contour>
    <contour>
      <point x="103" y="178" type="curve"/>
      <point x="115" y="145" type="line"/>
      <point x="192" y="195"/>
      <point x="260" y="256"/>
      <point x="317" y="326" type="curve" smooth="yes"/>
      <point x="331" y="343"/>
      <point x="356" y="351"/>
      <point x="406" y="361" type="curve"/>
      <point x="406" y="384" type="line"/>
      <point x="226" y="384" type="line"/>
      <point x="226" y="361" type="line"/>
      <point x="275" y="356"/>
      <point x="282" y="354"/>
      <point x="246" y="304" type="curve" smooth="yes"/>
      <point x="208" y="252"/>
      <point x="161" y="210"/>
    </contour>
    <contour>
      <point x="234" y="264" type="line"/>
      <point x="174" y="213" type="line"/>
      <point x="297" y="54" type="line" smooth="yes"/>
      <point x="308" y="40"/>
      <point x="301" y="23"/>
      <point x="262" y="20" type="curve"/>
      <point x="262" y="0" type="line"/>
      <point x="460" y="0" type="line"/>
      <point x="460" y="23" type="line"/>
      <point x="430" y="26"/>
      <point x="404" y="38"/>
      <point x="391" y="55" type="curve" smooth="yes"/>
    </contour>
  </outline>
</glyph>
<glyph name="l" format="2">
  <advance width="201"/>
  <unicode hex="006C"/>
  <anchor x="101" y="0" name="bottom"/>
  <anchor x="101" y="192" name="center"/>
  <anchor x="101" y="640" name="top"/>
  <anchor x="153" y="694" name="topright"/>
  <outline>
    <contour>
      <point x="-8" y="18" type="curve"/>
      <point x="-8" y="0" type="line"/>
      <point x="208" y="0" type="line"/>
      <point x="208" y="18" type="line"/>
      <point x="161" y="32"/>
      <point x="137" y="39"/>
      <point x="137" y="68" type="curve" smooth="yes"/>
      <point x="137" y="557" type="line"/>
      <point x="140" y="658" type="line"/>
      <point x="123" y="668" type="line"/>
      <point x="-8" y="637" type="line"/>
      <point x="-8" y="616" type="line"/>
      <point x="13" y="608"/>
      <point x="64" y="595"/>
      <point x="64" y="563" type="curve" smooth="yes"/>
      <point x="64" y="68" type="line" smooth="yes"/>
      <point x="64" y="39"/>
      <point x="40" y="32"/>
    </contour>
  </outline>
</glyph>
<glyph name="m" format="2">
  <advance width="648"/>
  <unicode hex="006D"/>
  <anchor x="359" y="0" name="bottom"/>
  <anchor x="359" y="384" name="top"/>
  <outline>
    <contour>
      <point x="242" y="0" type="line"/>
      <point x="404" y="0" type="line"/>
      <point x="404" y="18" type="line"/>
      <point x="368" y="32"/>
      <point x="368" y="37"/>
      <point x="368" y="68" type="curve" smooth="yes"/>
      <point x="368" y="273" type="line" smooth="yes"/>
      <point x="368" y="355"/>
      <point x="334" y="395"/>
      <point x="264" y="395" type="curve" smooth="yes"/>
      <point x="214" y="395"/>
      <point x="188" y="365"/>
      <point x="122" y="305" type="curve"/>
      <point x="122" y="286" type="line"/>
      <point x="182" y="329"/>
      <point x="201" y="335"/>
      <point x="236" y="335" type="curve" smooth="yes"/>
      <point x="271" y="335"/>
      <point x="293" y="306"/>
      <point x="296" y="246" type="curve" smooth="yes"/>
      <point x="299" y="187"/>
      <point x="299" y="127"/>
      <point x="296" y="68" type="curve" smooth="yes"/>
      <point x="294" y="38"/>
      <point x="269" y="24"/>
      <point x="242" y="18" type="curve"/>
    </contour>
    <contour>
      <point x="8" y="0" type="line"/>
      <point x="206" y="0" type="line"/>
      <point x="206" y="18" type="line"/>
      <point x="177" y="32"/>
      <point x="150" y="38"/>
      <point x="150" y="68" type="curve" smooth="yes"/>
      <point x="150" y="315" type="line"/>
      <point x="149" y="315" type="line"/>
      <point x="150" y="394" type="line"/>
      <point x="139" y="403" type="line"/>
      <point x="8" y="362" type="line"/>
      <point x="8" y="341" type="line"/>
      <point x="37" y="333"/>
      <point x="77" y="319"/>
      <point x="78" y="298" type="curve" smooth="yes"/>
      <point x="81" y="223"/>
      <point x="81" y="143"/>
      <point x="78" y="68" type="curve" smooth="yes"/>
      <point x="77" y="37"/>
      <point x="52" y="32"/>
      <point x="8" y="18" type="curve"/>
    </contour>
    <contour>
      <point x="458" y="0" type="line"/>
      <point x="656" y="0" type="line"/>
      <point x="656" y="18" type="line"/>
      <point x="610" y="32"/>
      <point x="584" y="37"/>
      <point x="584" y="68" type="curve" smooth="yes"/>
      <point x="584" y="273" type="line" smooth="yes"/>
      <point x="584" y="355"/>
      <point x="568" y="395"/>
      <point x="498" y="395" type="curve" smooth="yes"/>
      <point x="448" y="395"/>
      <point x="406" y="365"/>
      <point x="340" y="305" type="curve"/>
      <point x="340" y="286" type="line"/>
      <point x="400" y="329"/>
      <point x="422" y="335"/>
      <point x="453" y="335" type="curve" smooth="yes"/>
      <point x="505" y="335"/>
      <point x="507" y="306"/>
      <point x="511" y="246" type="curve" smooth="yes"/>
      <point x="515" y="187"/>
      <point x="515" y="127"/>
      <point x="511" y="68" type="curve" smooth="yes"/>
      <point x="509" y="38"/>
      <point x="494" y="24"/>
      <point x="458" y="18" type="curve"/>
    </contour>
  </outline>
</glyph>
<glyph name="n" format="2">
  <advance width="432"/>
  <unicode hex="006E"/>
  <anchor x="256" y="0" name="bottom"/>
  <anchor x="253" y="384" name="top"/>
  <outline>
    <contour>
      <point x="242" y="0" type="line"/>
      <point x="440" y="0" type="line"/>
      <point x="440" y="18" type="line"/>
      <point x="392" y="32"/>
      <point x="369" y="37"/>
      <point x="368" y="68" type="curve"/>
      <point x="368" y="291" type="line"/>
      <point x="364" y="352"/>
      <point x="326" y="395"/>
      <point x="266" y="395" type="curve" smooth="yes"/>
      <point x="228" y="395"/>
      <point x="171" y="358"/>
      <point x="129" y="305" type="curve"/>
      <point x="129" y="286" type="line"/>
      <point x="157" y="315"/>
      <point x="195" y="335"/>
      <point x="221" y="335" type="curve" smooth="yes"/>
      <point x="263" y="335"/>
      <point x="294" y="306"/>
      <point x="296" y="264" type="curve" smooth="yes"/>
      <point x="300" y="207"/>
      <point x="300" y="125"/>
      <point x="296" y="68" type="curve" smooth="yes"/>
      <point x="294" y="38"/>
      <point x="270" y="24"/>
      <point x="242" y="18" type="curve"/>
    </contour>
    <contour>
      <point x="8" y="0" type="line"/>
      <point x="206" y="0" type="line"/>
      <point x="206" y="18" type="line"/>
      <point x="180" y="24"/>
      <point x="152" y="37"/>
      <point x="152" y="68" type="curve" smooth="yes"/>
      <point x="152" y="323" type="line"/>
      <point x="150" y="323" type="line"/>
      <point x="155" y="397" type="line"/>
      <point x="140" y="403" type="line"/>
      <point x="8" y="362" type="line"/>
      <point x="8" y="341" type="line"/>
      <point x="36" y="333"/>
      <point x="76" y="319"/>
      <point x="79" y="298" type="curve" smooth="yes"/>
      <point x="81" y="284"/>
      <point x="79" y="129"/>
      <point x="79" y="68" type="curve" smooth="yes"/>
      <point x="79" y="36"/>
      <point x="56" y="32"/>
      <point x="8" y="18" type="curve"/>
    </contour>
  </outline>
</glyph>
<glyph name="o" format="2">
  <advance width="424"/>
  <unicode hex="006F"/>
  <anchor x="257" y="0" name="bottom"/>
  <anchor x="257" y="192" name="center"/>
  <anchor x="344" y="10" name="ogonek"/>
  <anchor x="252" y="384" name="top"/>
  <anchor x="357" y="291" name="topright"/>
  <outline>
    <contour>
      <point x="217" y="-8" type="curve" smooth="yes"/>
      <point x="319" y="-8"/>
      <point x="392" y="77"/>
      <point x="392" y="196" type="curve" smooth="yes"/>
      <point x="392" y="311"/>
      <point x="319" y="392"/>
      <point x="217" y="392" type="curve" smooth="yes"/>
      <point x="109" y="392"/>
      <point x="32" y="306"/>
      <point x="32" y="185" type="curve" smooth="yes"/>
      <point x="32" y="72"/>
      <point x="109" y="-8"/>
    </contour>
    <contour>
      <point x="114" y="208" type="curve" smooth="yes"/>
      <point x="114" y="295"/>
      <point x="153" y="356"/>
      <point x="209" y="356" type="curve" smooth="yes"/>
      <point x="268" y="356"/>
      <point x="310" y="281"/>
      <point x="310" y="174" type="curve" smooth="yes"/>
      <point x="310" y="88"/>
      <point x="275" y="28"/>
      <point x="225" y="28" type="curve" smooth="yes"/>
      <point x="160" y="28"/>
      <point x="114" y="103"/>
    </contour>
  </outline>
</glyph>
<glyph name="p" format="2">
  <advance width="438"/>
  <unicode hex="0070"/>
  <anchor x="235" y="0" name="bottom"/>
  <anchor x="252" y="384" name="top"/>
  <outline>
    <contour>
      <point x="327" y="174" type="curve"/>
      <point x="406" y="205" type="line"/>
      <point x="406" y="316"/>
      <point x="353" y="395"/>
      <point x="255" y="395" type="curve" smooth="yes"/>
      <point x="210" y="395"/>
      <point x="157" y="362"/>
      <point x="100" y="315" type="curve"/>
      <point x="100" y="296" type="line"/>
      <point x="138" y="319"/>
      <point x="173" y="335"/>
      <point x="210" y="335" type="curve" smooth="yes"/>
      <point x="288" y="335"/>
      <point x="327" y="268"/>
    </contour>
    <contour>
      <point x="10" y="-232" type="line"/>
      <point x="226" y="-232" type="line"/>
      <point x="226" y="-214" type="line"/>
      <point x="172" y="-204"/>
      <point x="136" y="-201"/>
      <point x="136" y="-164" type="curve" smooth="yes"/>
      <point x="136" y="316" type="line"/>
      <point x="135" y="316" type="line"/>
      <point x="136" y="395" type="line"/>
      <point x="123" y="403" type="line"/>
      <point x="-8" y="363" type="line"/>
      <point x="-8" y="342" type="line"/>
      <point x="39" y="327"/>
      <point x="64" y="310"/>
      <point x="64" y="299" type="curve" smooth="yes"/>
      <point x="64" y="-164" type="line" smooth="yes"/>
      <point x="64" y="-197"/>
      <point x="46" y="-204"/>
      <point x="10" y="-214" type="curve"/>
    </contour>
    <contour>
      <point x="406" y="205" type="curve"/>
      <point x="327" y="174" type="line"/>
      <point x="327" y="87"/>
      <point x="289" y="26"/>
      <point x="211" y="26" type="curve" smooth="yes"/>
      <point x="168" y="26"/>
      <point x="135" y="64"/>
      <point x="110" y="117" type="curve"/>
      <point x="84" y="28" type="line"/>
      <point x="116" y="5"/>
      <point x="150" y="-11"/>
      <point x="190" y="-11" type="curve" smooth="yes"/>
      <point x="327" y="-11"/>
      <point x="406" y="78"/>
    </contour>
  </outline>
</glyph>
<glyph name="q" format="2">
  <advance width="438"/>
  <unicode hex="0071"/>
  <anchor x="239" y="0" name="bottom"/>
  <anchor x="239" y="384" name="top"/>
  <outline>
    <contour>
      <point x="303" y="377" type="curve"/>
      <point x="301" y="-164" type="line"/>
      <point x="375" y="-164" type="line"/>
      <point x="374" y="-39"/>
      <point x="374" y="269"/>
      <point x="375" y="394" type="curve"/>
      <point x="351" y="383"/>
      <point x="327" y="371"/>
    </contour>
    <contour>
      <point x="32" y="168" type="curve"/>
      <point x="106" y="201" type="line"/>
      <point x="107" y="288"/>
      <point x="138" y="358"/>
      <point x="207" y="358" type="curve" smooth="yes"/>
      <point x="257" y="358"/>
      <point x="297" y="314"/>
      <point x="320" y="259" type="curve"/>
      <point x="366" y="344" type="line"/>
      <point x="331" y="372"/>
      <point x="280" y="395"/>
      <point x="228" y="395" type="curve" smooth="yes"/>
      <point x="105" y="395"/>
      <point x="32" y="294"/>
    </contour>
    <contour>
      <point x="106" y="201" type="curve"/>
      <point x="32" y="168" type="line"/>
      <point x="32" y="68"/>
      <point x="80" y="-11"/>
      <point x="171" y="-11" type="curve" smooth="yes"/>
      <point x="221" y="-11"/>
      <point x="280" y="27"/>
      <point x="326" y="74" type="curve"/>
      <point x="326" y="93" type="line"/>
      <point x="298" y="68"/>
      <point x="259" y="49"/>
      <point x="216" y="49" type="curve" smooth="yes"/>
      <point x="141" y="49"/>
      <point x="106" y="116"/>
    </contour>
    <contour>
      <point x="301" y="-164" type="line"/>
      <point x="301" y="-201"/>
      <point x="294" y="-202"/>
      <point x="230" y="-214" type="curve"/>
      <point x="230" y="-232" type="line"/>
      <point x="428" y="-232" type="line"/>
      <point x="428" y="-214" type="line"/>
      <point x="398" y="-202"/>
      <point x="375" y="-201"/>
      <point x="375" y="-164" type="curve"/>
    </contour>
  </outline>
</glyph>
<glyph name="r" format="2">
  <advance width="300"/>
  <unicode hex="0072"/>
  <anchor x="116" y="0" name="bottom"/>
  <anchor x="152" y="384" name="top"/>
  <outline>
    <contour>
      <point x="123" y="267" type="curve"/>
      <point x="125" y="228" type="line"/>
      <point x="169" y="285"/>
      <point x="166" y="320"/>
      <point x="198" y="320" type="curve" smooth="yes"/>
      <point x="210" y="320"/>
      <point x="219" y="307"/>
      <point x="232" y="294" type="curve" smooth="yes"/>
      <point x="254" y="272"/>
      <point x="317" y="351"/>
      <point x="295" y="373" type="curve" smooth="yes"/>
      <point x="283" y="384"/>
      <point x="264" y="393"/>
      <point x="242" y="393" type="curve" smooth="yes"/>
      <point x="203" y="393"/>
      <point x="196" y="363"/>
    </contour>
    <contour>
      <point x="8" y="0" type="line"/>
      <point x="224" y="0" type="line"/>
      <point x="224" y="18" type="line"/>
      <point x="162" y="32"/>
      <point x="151" y="38"/>
      <point x="151" y="68" type="curve" smooth="yes"/>
      <point x="151" y="295" type="line"/>
      <point x="152" y="295" type="line"/>
      <point x="155" y="394" type="line"/>
      <point x="140" y="403" type="line"/>
      <point x="8" y="362" type="line"/>
      <point x="8" y="341" type="line"/>
      <point x="37" y="333"/>
      <point x="76" y="319"/>
      <point x="77" y="298" type="curve" smooth="yes"/>
      <point x="81" y="223"/>
      <point x="81" y="143"/>
      <point x="79" y="68" type="curve" smooth="yes"/>
      <point x="78" y="37"/>
      <point x="52" y="32"/>
      <point x="8" y="18" type="curve"/>
    </contour>
  </outline>
</glyph>
<glyph name="s" format="2">
  <advance width="298"/>
  <unicode hex="0073"/>
  <anchor x="157" y="0" name="bottom"/>
  <anchor x="172" y="384" name="top"/>
  <outline>
    <contour>
      <point x="136" y="-9" type="curve" smooth="yes"/>
      <point x="223" y="-9"/>
      <point x="266" y="39"/>
      <point x="266" y="108" type="curve" smooth="yes"/>
      <point x="266" y="226"/>
      <point x="104" y="222"/>
      <point x="106" y="310" type="curve" smooth="yes"/>
      <point x="107" y="343"/>
      <point x="119" y="368"/>
      <point x="154" y="368" type="curve" smooth="yes"/>
      <point x="202" y="368"/>
      <point x="218" y="334"/>
      <point x="220" y="285" type="curve"/>
      <point x="246" y="285" type="line"/>
      <point x="245" y="325"/>
      <point x="246" y="362"/>
      <point x="249" y="376" type="curve"/>
      <point x="216" y="388"/>
      <point x="187" y="396"/>
      <point x="154" y="396" type="curve" smooth="yes"/>
      <point x="80" y="396"/>
      <point x="40" y="347"/>
      <point x="40" y="278" type="curve" smooth="yes"/>
      <point x="40" y="154"/>
      <point x="198" y="171"/>
      <point x="198" y="80" type="curve" smooth="yes"/>
      <point x="198" y="41"/>
      <point x="184" y="16"/>
      <point x="139" y="19" type="curve" smooth="yes"/>
      <point x="95" y="22"/>
      <point x="64" y="79"/>
      <point x="59" y="128" type="curve"/>
      <point x="32" y="128" type="line"/>
      <point x="35" y="114"/>
      <point x="37" y="55"/>
      <point x="35" y="12" type="curve"/>
      <point x="77" y="0"/>
      <point x="117" y="-9"/>
    </contour>
  </outline>
</glyph>
<glyph name="t" format="2">
  <advance width="280"/>
  <unicode hex="0074"/>
  <anchor x="154" y="0" name="bottom"/>
  <anchor x="136" y="192" name="center"/>
  <anchor x="136" y="405" name="top"/>
  <anchor x="222" y="703" name="topright"/>
  <outline>
    <contour>
      <point x="150" y="-11" type="curve" smooth="yes"/>
      <point x="191" y="-11"/>
      <point x="245" y="5"/>
      <point x="280" y="27" type="curve"/>
      <point x="270" y="48" type="line"/>
      <point x="251" y="40"/>
      <point x="222" y="34"/>
      <point x="202" y="34" type="curve" smooth="yes"/>
      <point x="169" y="34"/>
      <point x="143" y="52"/>
      <point x="141" y="78" type="curve" smooth="yes"/>
      <point x="139" y="108"/>
      <point x="138" y="153"/>
      <point x="138" y="186" type="curve" smooth="yes"/>
      <point x="138" y="316"/>
      <point x="146" y="433"/>
      <point x="151" y="468" type="curve"/>
      <point x="132" y="474" type="line"/>
      <point x="70" y="381" type="line"/>
      <point x="64" y="237"/>
      <point x="60" y="98"/>
      <point x="66" y="46" type="curve" smooth="yes"/>
      <point x="70" y="13"/>
      <point x="105" y="-11"/>
    </contour>
    <contour>
      <point x="-8" y="349" type="line"/>
      <point x="274" y="334" type="line"/>
      <point x="274" y="389" type="line"/>
      <point x="74" y="384" type="line"/>
      <point x="-8" y="359" type="line"/>
    </contour>
    <contour>
      <point x="-8" y="359" type="curve"/>
      <point x="106" y="361" type="line"/>
      <point x="132" y="474" type="line"/>
      <point x="96" y="423"/>
      <point x="40" y="375"/>
    </contour>
  </outline>
</glyph>
<glyph name="u" format="2">
  <advance width="431"/>
  <unicode hex="0075"/>
  <anchor x="212" y="0" name="bottom"/>
  <anchor x="367" y="10" name="ogonek"/>
  <anchor x="217" y="384" name="top"/>
  <anchor x="361" y="326" name="topright"/>
  <outline>
    <contour>
      <point x="140" y="394" type="curve"/>
      <point x="127" y="403" type="line"/>
      <point x="-8" y="369" type="line"/>
      <point x="-8" y="351" type="line"/>
      <point x="40" y="337"/>
      <point x="66" y="332"/>
      <point x="66" y="301" type="curve" smooth="yes"/>
      <point x="63" y="111" type="line" smooth="yes"/>
      <point x="62" y="40"/>
      <point x="108" y="-11"/>
      <point x="173" y="-11" type="curve" smooth="yes"/>
      <point x="199" y="-11"/>
      <point x="255" y="30"/>
      <point x="308" y="89" type="curve"/>
      <point x="308" y="108" type="line"/>
      <point x="274" y="73"/>
      <point x="233" y="49"/>
      <point x="208" y="49" type="curve" smooth="yes"/>
      <point x="167" y="49"/>
      <point x="137" y="89"/>
      <point x="135" y="145" type="curve" smooth="yes"/>
      <point x="135" y="147"/>
      <point x="136" y="219"/>
      <point x="138" y="321" type="curve" smooth="yes"/>
      <point x="138" y="345"/>
      <point x="140" y="370"/>
    </contour>
    <contour>
      <point x="355" y="394" type="line"/>
      <point x="342" y="403" type="line"/>
      <point x="208" y="369" type="line"/>
      <point x="208" y="351" type="line"/>
      <point x="254" y="337"/>
      <point x="277" y="331"/>
      <point x="279" y="301" type="curve" smooth="yes"/>
      <point x="282" y="246"/>
      <point x="281" y="148"/>
      <point x="276" y="64" type="curve"/>
      <point x="279" y="64" type="line"/>
      <point x="278" y="-5" type="line"/>
      <point x="291" y="-11" type="line"/>
      <point x="424" y="17" type="line"/>
      <point x="424" y="38" type="line"/>
      <point x="391" y="41"/>
      <point x="350" y="55"/>
      <point x="350" y="76" type="curve" smooth="yes"/>
      <point x="353" y="321" type="line"/>
    </contour>
  </outline>
</glyph>
<glyph name="v" format="2">
  <advance width="396"/>
  <unicode hex="0076"/>
  <anchor x="224" y="0" name="bottom"/>
  <anchor x="238" y="384" name="top"/>
  <outline>
    <contour>
      <point x="68" y="308" type="curve" smooth="yes"/>
      <point x="194" y="0" type="line"/>
      <point x="222" y="0" type="line"/>
      <point x="330" y="302" type="line" smooth="yes"/>
      <point x="337" y="322"/>
      <point x="348" y="335"/>
      <point x="359" y="345" type="curve" smooth="yes"/>
      <point x="369" y="353"/>
      <point x="381" y="358"/>
      <point x="396" y="361" type="curve"/>
      <point x="396" y="384" type="line"/>
      <point x="252" y="384" type="line"/>
      <point x="252" y="361" type="line"/>
      <point x="263" y="359"/>
      <point x="282" y="358"/>
      <point x="293" y="351" type="curve" smooth="yes"/>
      <point x="299" y="348"/>
      <point x="303" y="343"/>
      <point x="303" y="336" type="curve" smooth="yes"/>
      <point x="303" y="330"/>
      <point x="299" y="319"/>
      <point x="294" y="304" type="curve" smooth="yes"/>
      <point x="223" y="72" type="line"/>
      <point x="243" y="72" type="line"/>
      <point x="146" y="318" type="line" smooth="yes"/>
      <point x="142" y="327"/>
      <point x="141" y="333"/>
      <point x="141" y="337" type="curve" smooth="yes"/>
      <point x="141" y="344"/>
      <point x="145" y="349"/>
      <point x="152" y="353" type="curve" smooth="yes"/>
      <point x="165" y="359"/>
      <point x="187" y="360"/>
      <point x="198" y="361" type="curve"/>
      <point x="198" y="384" type="line"/>
      <point x="0" y="384" type="line"/>
      <point x="0" y="361" type="line"/>
      <point x="25" y="359"/>
      <point x="36" y="356"/>
      <point x="45" y="348" type="curve" smooth="yes"/>
      <point x="53" y="340"/>
      <point x="60" y="328"/>
    </contour>
  </outline>
</glyph>
<glyph name="w" format="2">
  <advance width="612"/>
  <unicode hex="0077"/>
  <anchor x="306" y="0" name="bottom"/>
  <anchor x="306" y="384" name="top"/>
  <outline>
    <contour>
      <point x="264" y="308" type="curve" smooth="yes"/>
      <point x="388" y="0" type="line"/>
      <point x="416" y="0" type="line"/>
      <point x="546" y="302" type="line" smooth="yes"/>
      <point x="555" y="322"/>
      <point x="564" y="335"/>
      <point x="575" y="345" type="curve" smooth="yes"/>
      <point x="585" y="353"/>
      <point x="597" y="358"/>
      <point x="612" y="361" type="curve"/>
      <point x="612" y="384" type="line"/>
      <point x="468" y="384" type="line"/>
      <point x="468" y="361" type="line"/>
      <point x="479" y="359"/>
      <point x="498" y="358"/>
      <point x="509" y="351" type="curve" smooth="yes"/>
      <point x="515" y="348"/>
      <point x="519" y="343"/>
      <point x="519" y="336" type="curve" smooth="yes"/>
      <point x="519" y="330"/>
      <point x="516" y="319"/>
      <point x="510" y="304" type="curve" smooth="yes"/>
      <point x="417" y="72" type="line"/>
      <point x="438" y="72" type="line"/>
      <point x="341" y="318" type="line" smooth="yes"/>
      <point x="337" y="327"/>
      <point x="336" y="333"/>
      <point x="336" y="337" type="curve" smooth="yes"/>
      <point x="336" y="344"/>
      <point x="340" y="349"/>
      <point x="347" y="353" type="curve" smooth="yes"/>
      <point x="360" y="359"/>
      <point x="388" y="360"/>
      <point x="404" y="361" type="curve"/>
      <point x="404" y="384" type="line"/>
      <point x="224" y="384" type="line"/>
      <point x="224" y="361" type="line"/>
      <point x="230" y="359"/>
      <point x="232" y="356"/>
      <point x="241" y="348" type="curve" smooth="yes"/>
      <point x="249" y="340"/>
      <point x="256" y="328"/>
    </contour>
    <contour>
      <point x="323" y="241" type="line"/>
      <point x="304" y="279" type="line"/>
      <point x="211" y="72" type="line"/>
      <point x="232" y="72" type="line"/>
      <point x="127" y="318" type="line" smooth="yes"/>
      <point x="123" y="327"/>
      <point x="122" y="333"/>
      <point x="122" y="337" type="curve" smooth="yes"/>
      <point x="122" y="344"/>
      <point x="126" y="349"/>
      <point x="133" y="353" type="curve" smooth="yes"/>
      <point x="146" y="359"/>
      <point x="148" y="360"/>
      <point x="162" y="361" type="curve"/>
      <point x="162" y="384" type="line"/>
      <point x="0" y="384" type="line"/>
      <point x="0" y="361" type="line"/>
      <point x="9" y="359"/>
      <point x="18" y="356"/>
      <point x="27" y="348" type="curve" smooth="yes"/>
      <point x="35" y="340"/>
      <point x="42" y="328"/>
      <point x="50" y="308" type="curve" smooth="yes"/>
      <point x="176" y="0" type="line"/>
      <point x="210" y="0" type="line"/>
    </contour>
  </outline>
</glyph>
<glyph name="x" format="2">
  <advance width="432"/>
  <unicode hex="0078"/>
  <anchor x="216" y="0" name="bottom"/>
  <anchor x="234" y="384" name="top"/>
  <outline>
    <contour>
      <point x="76" y="328" type="curve" smooth="yes"/>
      <point x="190" y="172" type="line"/>
      <point x="219" y="165" type="line"/>
      <point x="352" y="322" type="line" smooth="yes"/>
      <point x="366" y="339"/>
      <point x="390" y="356"/>
      <point x="432" y="361" type="curve"/>
      <point x="432" y="384" type="line"/>
      <point x="270" y="384" type="line"/>
      <point x="270" y="365" type="line"/>
      <point x="303" y="360"/>
      <point x="313" y="344"/>
      <point x="297" y="324" type="curve" smooth="yes"/>
      <point x="228" y="237" type="line"/>
      <point x="249" y="221" type="line"/>
      <point x="165" y="338" type="line" smooth="yes"/>
      <point x="150" y="359"/>
      <point x="178" y="364"/>
      <point x="189" y="365" type="curve"/>
      <point x="189" y="384" type="line"/>
      <point x="0" y="384" type="line"/>
      <point x="0" y="361" type="line"/>
      <point x="45" y="358"/>
      <point x="63" y="346"/>
    </contour>
    <contour>
      <point x="368" y="56" type="curve" smooth="yes"/>
      <point x="249" y="223" type="line"/>
      <point x="222" y="238" type="line"/>
      <point x="73" y="62" type="line" smooth="yes"/>
      <point x="53" y="38"/>
      <point x="36" y="30"/>
      <point x="0" y="23" type="curve"/>
      <point x="0" y="0" type="line"/>
      <point x="162" y="0" type="line"/>
      <point x="162" y="19" type="line"/>
      <point x="137" y="24"/>
      <point x="108" y="30"/>
      <point x="124" y="50" type="curve" smooth="yes"/>
      <point x="217" y="170" type="line"/>
      <point x="193" y="167" type="line"/>
      <point x="282" y="46" type="line" smooth="yes"/>
      <point x="294" y="30"/>
      <point x="269" y="21"/>
      <point x="252" y="19" type="curve"/>
      <point x="252" y="0" type="line"/>
      <point x="432" y="0" type="line"/>
      <point x="432" y="23" type="line"/>
      <point x="396" y="26"/>
      <point x="383" y="36"/>
    </contour>
  </outline>
</glyph>
<glyph name="y" format="2">
  <advance width="432"/>
  <unicode hex="0079"/>
  <anchor x="288" y="-36" name="bottom"/>
  <anchor x="252" y="384" name="top"/>
  <outline>
    <contour>
      <point x="204" y="-43" type="line"/>
      <point x="248" y="0" type="line"/>
      <point x="366" y="302" type="line" smooth="yes"/>
      <point x="374" y="322"/>
      <point x="384" y="335"/>
      <point x="395" y="345" type="curve" smooth="yes"/>
      <point x="405" y="353"/>
      <point x="417" y="358"/>
      <point x="432" y="361" type="curve"/>
      <point x="432" y="384" type="line"/>
      <point x="288" y="384" type="line"/>
      <point x="288" y="361" type="line"/>
      <point x="301" y="359"/>
      <point x="316" y="358"/>
      <point x="327" y="351" type="curve" smooth="yes"/>
      <point x="333" y="348"/>
      <point x="337" y="343"/>
      <point x="337" y="336" type="curve" smooth="yes"/>
      <point x="337" y="330"/>
      <point x="334" y="319"/>
      <point x="328" y="304" type="curve" smooth="yes"/>
      <point x="211" y="27" type="line"/>
      <point x="246" y="55" type="line"/>
      <point x="146" y="318" type="line" smooth="yes"/>
      <point x="143" y="327"/>
      <point x="141" y="333"/>
      <point x="141" y="337" type="curve" smooth="yes"/>
      <point x="141" y="344"/>
      <point x="145" y="349"/>
      <point x="152" y="353" type="curve" smooth="yes"/>
      <point x="165" y="359"/>
      <point x="184" y="360"/>
      <point x="198" y="361" type="curve"/>
      <point x="198" y="384" type="line"/>
      <point x="0" y="384" type="line"/>
      <point x="0" y="361" type="line"/>
      <point x="33" y="359"/>
      <point x="36" y="356"/>
      <point x="45" y="348" type="curve" smooth="yes"/>
      <point x="53" y="340"/>
      <point x="60" y="328"/>
      <point x="68" y="308" type="curve" smooth="yes"/>
    </contour>
    <contour>
      <point x="60" y="-232" type="curve" smooth="yes"/>
      <point x="132" y="-232"/>
      <point x="182" y="-139"/>
      <point x="214" y="-75" type="curve" smooth="yes"/>
      <point x="243" y="-17"/>
      <point x="228" y="-46"/>
      <point x="248" y="0" type="curve"/>
      <point x="212" y="25" type="line"/>
      <point x="163" y="-116" type="line"/>
      <point x="147" y="-142"/>
      <point x="139" y="-161"/>
      <point x="111" y="-161" type="curve" smooth="yes"/>
      <point x="92" y="-161"/>
      <point x="90" y="-141"/>
      <point x="68" y="-141" type="curve" smooth="yes"/>
      <point x="44" y="-141"/>
      <point x="18" y="-170"/>
      <point x="18" y="-202" type="curve" smooth="yes"/>
      <point x="18" y="-226"/>
      <point x="36" y="-232"/>
    </contour>
  </outline>
</glyph>
<glyph name="z" format="2">
  <advance width="408"/>
  <unicode hex="007A"/>
  <anchor x="203" y="0" name="bottom"/>
  <anchor x="203" y="192" name="center"/>
  <anchor x="230" y="384" name="top"/>
  <outline>
    <contour>
      <point x="37" y="-5" type="line"/>
      <point x="148" y="1"/>
      <point x="265" y="0"/>
      <point x="376" y="0" type="curve"/>
      <point x="376" y="121" type="line"/>
      <point x="348" y="121" type="line"/>
      <point x="339" y="66"/>
      <point x="331" y="35"/>
      <point x="306" y="35" type="curve" smooth="yes"/>
      <point x="81" y="35" type="line"/>
      <point x="135" y="16" type="line"/>
      <point x="368" y="354" type="line"/>
      <point x="368" y="391" type="line"/>
      <point x="277" y="386"/>
      <point x="243" y="383"/>
      <point x="133" y="383" type="curve" smooth="yes"/>
      <point x="121" y="383"/>
      <point x="108" y="387"/>
      <point x="112" y="420" type="curve"/>
      <point x="82" y="429" type="line"/>
      <point x="32" y="263" type="line"/>
      <point x="62" y="254" type="line"/>
      <point x="75" y="306"/>
      <point x="113" y="348"/>
      <point x="134" y="348" type="curve" smooth="yes"/>
      <point x="318" y="349" type="line"/>
      <point x="281" y="366" type="line"/>
      <point x="37" y="13" type="line"/>
    </contour>
  </outline>
</glyph>
<glyph name="braceleft" format="2">
  <advance width="350"/>
  <unicode hex="007B"/>
  <outline>
    <contour>
      <point x="318" y="-144" type="curve"/>
      <point x="318" y="-108" type="line"/>
      <point x="262" y="-108"/>
      <point x="222" y="-70"/>
      <point x="222" y="-16" type="curve" smooth="yes"/>
      <point x="222" y="157" type="line" smooth="yes"/>
      <point x="222" y="201"/>
      <point x="187" y="252"/>
      <point x="138" y="279" type="curve"/>
      <point x="187" y="306"/>
      <point x="222" y="357"/>
      <point x="222" y="401" type="curve" smooth="yes"/>
      <point x="222" y="574" type="line" smooth="yes"/>
      <point x="222" y="628"/>
      <point x="262" y="666"/>
      <point x="318" y="666" type="curve"/>
      <point x="318" y="702" type="line"/>
      <point x="227" y="702"/>
      <point x="163" y="649"/>
      <point x="163" y="574" type="curve" smooth="yes"/>
      <point x="163" y="385" type="line" smooth="yes"/>
      <point x="163" y="329"/>
      <point x="122" y="289"/>
      <point x="48" y="289" type="curve"/>
      <point x="48" y="269" type="line"/>
      <point x="122" y="269"/>
      <point x="163" y="229"/>
      <point x="163" y="173" type="curve" smooth="yes"/>
      <point x="163" y="-16" type="line" smooth="yes"/>
      <point x="163" y="-91"/>
      <point x="227" y="-144"/>
    </contour>
  </outline>
</glyph>
<glyph name="bar" format="2">
  <advance width="196"/>
  <unicode hex="007C"/>
  <outline>
    <contour>
      <point x="80" y="-232" type="line"/>
      <point x="116" y="-232" type="line"/>
      <point x="116" y="693" type="line"/>
      <point x="80" y="694" type="line"/>
    </contour>
  </outline>
</glyph>
<glyph name="braceright" format="2">
  <advance width="350"/>
  <unicode hex="007D"/>
  <outline>
    <contour>
      <point x="32" y="-144" type="line"/>
      <point x="123" y="-144"/>
      <point x="187" y="-91"/>
      <point x="187" y="-16" type="curve" smooth="yes"/>
      <point x="187" y="173" type="line" smooth="yes"/>
      <point x="187" y="229"/>
      <point x="228" y="269"/>
      <point x="302" y="269" type="curve"/>
      <point x="302" y="289" type="line"/>
      <point x="228" y="289"/>
      <point x="187" y="329"/>
      <point x="187" y="385" type="curve" smooth="yes"/>
      <point x="187" y="574" type="line" smooth="yes"/>
      <point x="187" y="649"/>
      <point x="123" y="702"/>
      <point x="32" y="702" type="curve"/>
      <point x="32" y="666" type="line"/>
      <point x="88" y="666"/>
      <point x="128" y="628"/>
      <point x="128" y="574" type="curve" smooth="yes"/>
      <point x="128" y="401" type="line" smooth="yes"/>
      <point x="128" y="357"/>
      <point x="163" y="306"/>
      <point x="212" y="279" type="curve"/>
      <point x="163" y="252"/>
      <point x="128" y="201"/>
      <point x="128" y="157" type="curve" smooth="yes"/>
      <point x="128" y="-16" type="line" smooth="yes"/>
      <point x="128" y="-70"/>
      <point x="88" y="-108"/>
      <point x="32" y="-108" type="curve"/>
    </contour>
  </outline>
</glyph>
<glyph name="asciitilde" format="2">
  <advance width="578"/>
  <unicode hex="007E"/>
  <outline>
    <contour>
      <point x="380" y="212" type="curve" smooth="yes"/>
      <point x="442" y="212"/>
      <point x="499" y="265"/>
      <point x="514" y="341" type="curve"/>
      <point x="466" y="347" type="line"/>
      <point x="454" y="296"/>
      <point x="419" y="258"/>
      <point x="386" y="258" type="curve" smooth="yes"/>
      <point x="313" y="258"/>
      <point x="287" y="368"/>
      <point x="198" y="368" type="curve" smooth="yes"/>
      <point x="136" y="368"/>
      <point x="79" y="315"/>
      <point x="64" y="239" type="curve"/>
      <point x="112" y="233" type="line"/>
      <point x="124" y="284"/>
      <point x="159" y="322"/>
      <point x="192" y="322" type="curve" smooth="yes"/>
      <point x="265" y="322"/>
      <point x="291" y="212"/>
    </contour>
  </outline>
</glyph>
<glyph name="exclamdown" format="2">
  <advance width="204"/>
  <unicode hex="00A1"/>
  <outline>
    <contour>
      <point x="101" y="468" type="curve" smooth="yes"/>
      <point x="78" y="468"/>
      <point x="63" y="449"/>
      <point x="59" y="426" type="curve" smooth="yes"/>
      <point x="55" y="403"/>
      <point x="74" y="384"/>
      <point x="101" y="384" type="curve" smooth="yes"/>
      <point x="124" y="384"/>
      <point x="143" y="403"/>
      <point x="143" y="426" type="curve" smooth="yes"/>
      <point x="143" y="449"/>
      <point x="124" y="468"/>
    </contour>
    <contour>
      <point x="131" y="284" type="curve"/>
      <point x="71" y="276" type="line"/>
      <point x="73" y="142"/>
      <point x="64" y="-14"/>
      <point x="48" y="-170" type="curve"/>
      <point x="156" y="-158" type="line"/>
      <point x="139" y="-6"/>
      <point x="134" y="154"/>
    </contour>
  </outline>
</glyph>
<glyph name="cent" format="2">
  <advance width="568"/>
  <unicode hex="00A2"/>
  <anchor x="323" y="75" name="bottom"/>
  <anchor x="323" y="575" name="top"/>
  <outline>
    <contour>
      <point x="323" y="58" type="curve" smooth="yes"/>
      <point x="378" y="58"/>
      <point x="449" y="75"/>
      <point x="490" y="101" type="curve"/>
      <point x="506" y="168"/>
      <point x="521" y="239"/>
      <point x="520" y="246" type="curve"/>
      <point x="478" y="245" type="line"/>
      <point x="464" y="167"/>
      <point x="404" y="110"/>
      <point x="336" y="110" type="curve" smooth="yes"/>
      <point x="230" y="110"/>
      <point x="148" y="207"/>
      <point x="148" y="347" type="curve" smooth="yes"/>
      <point x="148" y="462"/>
      <point x="228" y="544"/>
      <point x="331" y="544" type="curve" smooth="yes"/>
      <point x="400" y="544"/>
      <point x="448" y="497"/>
      <point x="447" y="427" type="curve"/>
      <point x="486" y="427" type="line"/>
      <point x="486" y="465"/>
      <point x="492" y="523"/>
      <point x="498" y="563" type="curve"/>
      <point x="462" y="580"/>
      <point x="388" y="592"/>
      <point x="323" y="592" type="curve" smooth="yes"/>
      <point x="170" y="592"/>
      <point x="64" y="482"/>
      <point x="64" y="328" type="curve" smooth="yes"/>
      <point x="64" y="171"/>
      <point x="170" y="58"/>
    </contour>
    <contour>
      <point x="285" y="-134" type="line"/>
      <point x="325" y="-134" type="line"/>
      <point x="325" y="766" type="line"/>
      <point x="285" y="766" type="line"/>
    </contour>
  </outline>
</glyph>
<glyph name="sterling" format="2">
  <advance width="485"/>
  <unicode hex="00A3"/>
  <outline>
    <contour>
      <point x="42" y="-2" type="line"/>
      <point x="174" y="6"/>
      <point x="360" y="8"/>
      <point x="431" y="0" type="curve"/>
      <point x="469" y="105" type="line"/>
      <point x="460" y="109" type="line"/>
      <point x="402" y="81"/>
      <point x="315" y="50"/>
      <point x="115" y="82" type="curve"/>
      <point x="296" y="310"/>
      <point x="105" y="436"/>
      <point x="155" y="521" type="curve" smooth="yes"/>
      <point x="221" y="634"/>
      <point x="338" y="584"/>
      <point x="373" y="489" type="curve"/>
      <point x="459" y="534" type="line"/>
      <point x="405" y="603"/>
      <point x="373" y="628"/>
      <point x="304" y="628" type="curve" smooth="yes"/>
      <point x="224" y="628"/>
      <point x="142" y="605"/>
      <point x="98" y="527" type="curve" smooth="yes"/>
      <point x="26" y="401"/>
      <point x="202" y="260"/>
      <point x="35" y="13" type="curve"/>
    </contour>
    <contour>
      <point x="16" y="275" type="line"/>
      <point x="343" y="275" type="line"/>
      <point x="343" y="348" type="line"/>
      <point x="16" y="330" type="line"/>
    </contour>
  </outline>
</glyph>
<glyph name="currency" format="2">
  <advance width="478"/>
  <unicode hex="00A4"/>
  <outline>
    <contour>
      <point x="67" y="97" type="line"/>
      <point x="130" y="159" type="line"/>
      <point x="193" y="110"/>
      <point x="284" y="110"/>
      <point x="349" y="160" type="curve"/>
      <point x="411" y="98" type="line"/>
      <point x="446" y="133" type="line"/>
      <point x="384" y="195" type="line"/>
      <point x="436" y="262"/>
      <point x="436" y="357"/>
      <point x="384" y="426" type="curve"/>
      <point x="446" y="488" type="line"/>
      <point x="411" y="523" type="line"/>
      <point x="349" y="461" type="line"/>
      <point x="284" y="511"/>
      <point x="193" y="511"/>
      <point x="128" y="461" type="curve"/>
      <point x="67" y="522" type="line"/>
      <point x="32" y="487" type="line"/>
      <point x="94" y="426" type="line"/>
      <point x="41" y="358"/>
      <point x="41" y="261"/>
      <point x="94" y="194" type="curve"/>
      <point x="32" y="132" type="line"/>
    </contour>
    <contour>
      <point x="145" y="211" type="curve" smooth="yes"/>
      <point x="88" y="269"/>
      <point x="89" y="351"/>
      <point x="146" y="409" type="curve" smooth="yes"/>
      <point x="201" y="464"/>
      <point x="278" y="464"/>
      <point x="332" y="409" type="curve" smooth="yes"/>
      <point x="390" y="351"/>
      <point x="390" y="269"/>
      <point x="332" y="211" type="curve" smooth="yes"/>
      <point x="277" y="156"/>
      <point x="200" y="156"/>
    </contour>
  </outline>
</glyph>
<glyph name="brokenbar" format="2">
  <advance width="214"/>
  <unicode hex="00A6"/>
  <outline>
    <contour>
      <point x="80" y="310" type="line"/>
      <point x="134" y="310" type="line"/>
      <point x="134" y="693" type="line"/>
      <point x="80" y="693" type="line"/>
    </contour>
    <contour>
      <point x="80" y="-165" type="line"/>
      <point x="134" y="-165" type="line"/>
      <point x="134" y="218" type="line"/>
      <point x="80" y="218" type="line"/>
    </contour>
  </outline>
</glyph>
<glyph name="section" format="2">
  <advance width="510"/>
  <unicode hex="00A7"/>
  <outline>
    <contour>
      <point x="256" y="89" type="line"/>
      <point x="378" y="89"/>
      <point x="462" y="165"/>
      <point x="462" y="273" type="curve" smooth="yes"/>
      <point x="462" y="424"/>
      <point x="163" y="429"/>
      <point x="165" y="555" type="curve" smooth="yes"/>
      <point x="166" y="602"/>
      <point x="216" y="636"/>
      <point x="282" y="636" type="curve" smooth="yes"/>
      <point x="339" y="636"/>
      <point x="374" y="558"/>
      <point x="369" y="499" type="curve"/>
      <point x="408" y="499" type="line"/>
      <point x="407" y="536"/>
      <point x="409" y="618"/>
      <point x="412" y="646" type="curve"/>
      <point x="370" y="663"/>
      <point x="310" y="675"/>
      <point x="282" y="675" type="curve" smooth="yes"/>
      <point x="176" y="675"/>
      <point x="98" y="607"/>
      <point x="98" y="510" type="curve" smooth="yes"/>
      <point x="98" y="351"/>
      <point x="393" y="366"/>
      <point x="393" y="235" type="curve" smooth="yes"/>
      <point x="393" y="166"/>
      <point x="333" y="122"/>
      <point x="246" y="129" type="curve"/>
    </contour>
    <contour>
      <point x="255" y="404" type="line"/>
      <point x="136" y="404"/>
      <point x="48" y="327"/>
      <point x="48" y="219" type="curve" smooth="yes"/>
      <point x="48" y="68"/>
      <point x="348" y="63"/>
      <point x="345" y="-63" type="curve" smooth="yes"/>
      <point x="344" y="-111"/>
      <point x="294" y="-145"/>
      <point x="229" y="-145" type="curve" smooth="yes"/>
      <point x="174" y="-145"/>
      <point x="136" y="-67"/>
      <point x="142" y="-8" type="curve"/>
      <point x="101" y="-8" type="line"/>
      <point x="102" y="-67"/>
      <point x="101" y="-149"/>
      <point x="98" y="-155" type="curve"/>
      <point x="140" y="-172"/>
      <point x="202" y="-184"/>
      <point x="229" y="-184" type="curve" smooth="yes"/>
      <point x="336" y="-184"/>
      <point x="414" y="-116"/>
      <point x="414" y="-19" type="curve" smooth="yes"/>
      <point x="414" y="140"/>
      <point x="119" y="125"/>
      <point x="119" y="257" type="curve" smooth="yes"/>
      <point x="119" y="326"/>
      <point x="182" y="369"/>
      <point x="266" y="362" type="curve"/>
    </contour>
  </outline>
</glyph>
<glyph name="logicalnot" format="2">
  <advance width="582"/>
  <unicode hex="00AC"/>
  <outline>
    <contour>
      <point x="484" y="39" type="line"/>
      <point x="534" y="39" type="line"/>
      <point x="534" y="310" type="line"/>
      <point x="48" y="310" type="line"/>
      <point x="48" y="260" type="line"/>
      <point x="484" y="260" type="line"/>
    </contour>
  </outline>
</glyph>
<glyph name="registered" format="2">
  <advance width="585"/>
  <unicode hex="00AE"/>
  <anchor x="326.9293" y="364.0" name="bottom"/>
  <anchor x="257.42539999999997" y="636.7031999999999" name="top"/>
  <outline>
    <contour>
      <point x="293" y="228" type="curve" smooth="yes"/>
      <point x="436" y="228"/>
      <point x="553" y="345"/>
      <point x="553" y="489" type="curve" smooth="yes"/>
      <point x="553" y="632"/>
      <point x="436" y="749"/>
      <point x="293" y="749" type="curve" smooth="yes"/>
      <point x="149" y="749"/>
      <point x="32" y="632"/>
      <point x="32" y="489" type="curve" smooth="yes"/>
      <point x="32" y="345"/>
      <point x="149" y="228"/>
    </contour>
    <contour>
      <point x="293" y="264" type="curve" smooth="yes"/>
      <point x="169" y="264"/>
      <point x="67" y="365"/>
      <point x="67" y="489" type="curve" smooth="yes"/>
      <point x="67" y="612"/>
      <point x="169" y="714"/>
      <point x="293" y="714" type="curve" smooth="yes"/>
      <point x="416" y="714"/>
      <point x="517" y="612"/>
      <point x="517" y="489" type="curve" smooth="yes"/>
      <point x="517" y="365"/>
      <point x="416" y="264"/>
    </contour>
    <component base="R" xScale="0.4427" yScale="0.4427" xOffset="168" yOffset="364"/>
  </outline>
</glyph>
<glyph name="degree" format="2">
  <advance width="334"/>
  <unicode hex="00B0"/>
  <outline>
    <contour>
      <point x="167" y="421" type="curve" smooth="yes"/>
      <point x="247" y="421"/>
      <point x="302" y="478"/>
      <point x="302" y="558" type="curve" smooth="yes"/>
      <point x="302" y="638"/>
      <point x="247" y="694"/>
      <point x="167" y="694" type="curve" smooth="yes"/>
      <point x="87" y="694"/>
      <point x="32" y="638"/>
      <point x="32" y="558" type="curve" smooth="yes"/>
      <point x="32" y="478"/>
      <point x="87" y="421"/>
    </contour>
    <contour>
      <point x="167" y="461" type="curve" smooth="yes"/>
      <point x="111" y="461"/>
      <point x="72" y="501"/>
      <point x="72" y="558" type="curve" smooth="yes"/>
      <point x="72" y="614"/>
      <point x="111" y="654"/>
      <point x="167" y="654" type="curve" smooth="yes"/>
      <point x="223" y="654"/>
      <point x="262" y="614"/>
      <point x="262" y="558" type="curve" smooth="yes"/>
      <point x="262" y="501"/>
      <point x="223" y="461"/>
    </contour>
  </outline>
</glyph>
<glyph name="plusminus" format="2">
  <advance width="582"/>
  <unicode hex="00B1"/>
  <outline>
    <contour>
      <point x="265" y="172" type="line"/>
      <point x="315" y="172" type="line"/>
      <point x="315" y="327" type="line"/>
      <point x="534" y="327" type="line"/>
      <point x="534" y="377" type="line"/>
      <point x="315" y="377" type="line"/>
      <point x="315" y="528" type="line"/>
      <point x="265" y="528" type="line"/>
      <point x="265" y="377" type="line"/>
      <point x="48" y="377" type="line"/>
      <point x="48" y="327" type="line"/>
      <point x="265" y="327" type="line"/>
    </contour>
    <contour>
      <point x="53" y="41" type="line"/>
      <point x="529" y="41" type="line"/>
      <point x="529" y="91" type="line"/>
      <point x="53" y="91" type="line"/>
    </contour>
  </outline>
</glyph>
<glyph name="paragraph" format="2">
  <advance width="512"/>
  <unicode hex="00B6"/>
  <outline>
    <contour>
      <point x="200" y="-232" type="curve" smooth="yes"/>
      <point x="222" y="-232"/>
      <point x="258" y="-213"/>
      <point x="286" y="-187" type="curve" smooth="yes"/>
      <point x="349" y="-127"/>
      <point x="392" y="15"/>
      <point x="390" y="148" type="curve" smooth="yes"/>
      <point x="388" y="310" type="line"/>
      <point x="390" y="519" type="line" smooth="yes"/>
      <point x="390" y="547"/>
      <point x="401" y="569"/>
      <point x="417" y="577" type="curve" smooth="yes"/>
      <point x="424" y="581"/>
      <point x="442" y="585"/>
      <point x="480" y="590" type="curve"/>
      <point x="480" y="616" type="line"/>
      <point x="441" y="620"/>
      <point x="388" y="623"/>
      <point x="352" y="623" type="curve" smooth="yes"/>
      <point x="169" y="623"/>
      <point x="48" y="533"/>
      <point x="48" y="383" type="curve" smooth="yes"/>
      <point x="48" y="255"/>
      <point x="151" y="148"/>
      <point x="312" y="141" type="curve"/>
      <point x="312" y="81" type="line" smooth="yes"/>
      <point x="312" y="4"/>
      <point x="306" y="-74"/>
      <point x="298" y="-101" type="curve"/>
      <point x="298" y="-100" type="line"/>
      <point x="288" y="-133"/>
      <point x="269" y="-157"/>
      <point x="252" y="-157" type="curve" smooth="yes"/>
      <point x="233" y="-158"/>
      <point x="231" y="-135"/>
      <point x="212" y="-134" type="curve" smooth="yes"/>
      <point x="179" y="-134"/>
      <point x="156" y="-163"/>
      <point x="156" y="-203" type="curve" smooth="yes"/>
      <point x="156" y="-220"/>
      <point x="174" y="-232"/>
    </contour>
    <contour>
      <point x="312" y="177" type="curve"/>
      <point x="296" y="178"/>
      <point x="268" y="180"/>
      <point x="263" y="182" type="curve"/>
      <point x="263" y="582" type="line"/>
      <point x="274" y="585"/>
      <point x="302" y="585"/>
      <point x="313" y="585" type="curve"/>
      <point x="313" y="570"/>
      <point x="312" y="291"/>
    </contour>
  </outline>
</glyph>
<glyph name="periodcentered" format="2">
  <advance width="222"/>
  <unicode hex="00B7"/>
  <outline>
    <contour>
      <point x="111" y="199" type="curve" smooth="yes"/>
      <point x="148" y="199"/>
      <point x="174" y="225"/>
      <point x="174" y="262" type="curve" smooth="yes"/>
      <point x="174" y="299"/>
      <point x="148" y="325"/>
      <point x="111" y="325" type="curve" smooth="yes"/>
      <point x="74" y="325"/>
      <point x="48" y="299"/>
      <point x="48" y="262" type="curve" smooth="yes"/>
      <point x="48" y="225"/>
      <point x="74" y="199"/>
    </contour>
  </outline>
</glyph>
<glyph name="questiondown" format="2">
  <advance width="382"/>
  <unicode hex="00BF"/>
  <outline>
    <contour>
      <point x="196" y="284" type="curve" smooth="yes"/>
      <point x="187" y="284"/>
      <point x="154" y="270"/>
      <point x="115" y="251" type="curve"/>
      <point x="117" y="238" type="line"/>
      <point x="149" y="237" type="line" smooth="yes"/>
      <point x="174" y="236"/>
      <point x="192" y="218"/>
      <point x="192" y="194" type="curve" smooth="yes"/>
      <point x="192" y="107"/>
      <point x="50" y="108"/>
      <point x="48" y="-12" type="curve"/>
      <point x="48" y="-73"/>
      <point x="91" y="-117"/>
      <point x="152" y="-117" type="curve" smooth="yes"/>
      <point x="181" y="-117"/>
      <point x="225" y="-100"/>
      <point x="264" y="-76" type="curve" smooth="yes"/>
      <point x="296" y="-54"/>
      <point x="318" y="-17"/>
      <point x="318" y="14" type="curve" smooth="yes"/>
      <point x="318" y="45"/>
      <point x="246" y="31"/>
      <point x="246" y="0" type="curve" smooth="yes"/>
      <point x="246" y="-16"/>
      <point x="253" y="-12"/>
      <point x="253" y="-27" type="curve" smooth="yes"/>
      <point x="253" y="-54"/>
      <point x="230" y="-73"/>
      <point x="202" y="-73" type="curve" smooth="yes"/>
      <point x="152" y="-73"/>
      <point x="123" y="-46"/>
      <point x="124" y="-6" type="curve" smooth="yes"/>
      <point x="129" y="137"/>
      <point x="264" y="137"/>
      <point x="264" y="221" type="curve" smooth="yes"/>
      <point x="264" y="258"/>
      <point x="232" y="284"/>
    </contour>
    <contour>
      <point x="187" y="460" type="curve" smooth="yes"/>
      <point x="165" y="460"/>
      <point x="147" y="442"/>
      <point x="147" y="420" type="curve" smooth="yes"/>
      <point x="147" y="398"/>
      <point x="165" y="380"/>
      <point x="187" y="380" type="curve" smooth="yes"/>
      <point x="209" y="380"/>
      <point x="227" y="398"/>
      <point x="227" y="420" type="curve" smooth="yes"/>
      <point x="227" y="442"/>
      <point x="209" y="460"/>
    </contour>
  </outline>
</glyph>
<glyph name="multiply" format="2">
  <advance width="578"/>
  <unicode hex="00D7"/>
  <outline>
    <contour>
      <point x="106" y="93" type="line"/>
      <point x="287" y="242" type="line"/>
      <point x="474" y="89" type="line"/>
      <point x="514" y="128" type="line"/>
      <point x="327" y="281" type="line"/>
      <point x="511" y="431" type="line"/>
      <point x="471" y="470" type="line"/>
      <point x="288" y="321" type="line"/>
      <point x="103" y="472" type="line"/>
      <point x="64" y="432" type="line"/>
      <point x="248" y="281" type="line"/>
      <point x="66" y="132" type="line"/>
    </contour>
  </outline>
</glyph>
<glyph name="Thorn" format="2">
  <advance width="472"/>
  <unicode hex="00DE"/>
  <anchor x="240" y="0" name="bottom"/>
  <anchor x="240" y="616" name="top"/>
  <outline>
    <contour>
      <point x="6" y="0" type="line"/>
      <point x="258" y="0" type="line"/>
      <point x="258" y="25" type="line"/>
      <point x="225" y="36"/>
      <point x="204" y="39"/>
      <point x="192" y="51" type="curve" smooth="yes"/>
      <point x="183" y="60"/>
      <point x="178" y="81"/>
      <point x="178" y="111" type="curve" smooth="yes"/>
      <point x="178" y="113"/>
      <point x="176" y="302"/>
      <point x="179" y="506" type="curve" smooth="yes"/>
      <point x="179" y="532"/>
      <point x="183" y="556"/>
      <point x="192" y="567" type="curve" smooth="yes"/>
      <point x="203" y="581"/>
      <point x="245" y="586"/>
      <point x="276" y="591" type="curve"/>
      <point x="276" y="616" type="line"/>
      <point x="6" y="616" type="line"/>
      <point x="6" y="591" type="line"/>
      <point x="49" y="580"/>
      <point x="71" y="576"/>
      <point x="82" y="565" type="curve" smooth="yes"/>
      <point x="91" y="556"/>
      <point x="95" y="538"/>
      <point x="96" y="505" type="curve" smooth="yes"/>
      <point x="96" y="474"/>
      <point x="97" y="156"/>
      <point x="95" y="101" type="curve" smooth="yes"/>
      <point x="94" y="75"/>
      <point x="91" y="60"/>
      <point x="82" y="49" type="curve" smooth="yes"/>
      <point x="71" y="35"/>
      <point x="29" y="30"/>
      <point x="6" y="25" type="curve"/>
    </contour>
    <contour>
      <point x="239" y="140" type="curve" smooth="yes"/>
      <point x="368" y="140"/>
      <point x="456" y="206"/>
      <point x="456" y="317" type="curve" smooth="yes"/>
      <point x="456" y="421"/>
      <point x="379" y="489"/>
      <point x="267" y="487" type="curve"/>
      <point x="248" y="453" type="line"/>
      <point x="322" y="453"/>
      <point x="370" y="397"/>
      <point x="370" y="305" type="curve" smooth="yes"/>
      <point x="370" y="215"/>
      <point x="307" y="164"/>
      <point x="208" y="164" type="curve"/>
      <point x="208" y="141" type="line"/>
      <point x="219" y="140"/>
      <point x="229" y="140"/>
    </contour>
    <contour>
      <point x="145" y="452" type="line"/>
      <point x="248" y="453" type="line"/>
      <point x="267" y="487" type="line"/>
      <point x="145" y="486" type="line"/>
    </contour>
  </outline>
</glyph>
<glyph name="germandbls" format="2">
  <advance width="494"/>
  <unicode hex="00DF"/>
  <anchor x="244" y="0" name="bottom"/>
  <anchor x="244" y="694" name="top"/>
  <outline>
    <contour>
      <point x="10" y="0" type="line"/>
      <point x="141" y="0" type="line"/>
      <point x="139" y="69" type="line" smooth="yes"/>
      <point x="135" y="188"/>
      <point x="135" y="367"/>
      <point x="138" y="499" type="curve" smooth="yes"/>
      <point x="140" y="574"/>
      <point x="178" y="627"/>
      <point x="221" y="627" type="curve"/>
      <point x="258" y="665" type="line"/>
      <point x="152" y="665"/>
      <point x="68" y="583"/>
      <point x="65" y="467" type="curve" smooth="yes"/>
      <point x="63" y="392"/>
      <point x="64" y="238"/>
      <point x="64" y="69" type="curve" smooth="yes"/>
      <point x="64" y="46"/>
      <point x="48" y="35"/>
      <point x="10" y="18" type="curve"/>
    </contour>
    <contour>
      <point x="329" y="-6" type="curve" smooth="yes"/>
      <point x="406" y="-6"/>
      <point x="478" y="47"/>
      <point x="478" y="129" type="curve" smooth="yes"/>
      <point x="478" y="247"/>
      <point x="293" y="261"/>
      <point x="293" y="339" type="curve" smooth="yes"/>
      <point x="293" y="430"/>
      <point x="401" y="394"/>
      <point x="394" y="550" type="curve" smooth="yes"/>
      <point x="391" y="613"/>
      <point x="336" y="665"/>
      <point x="258" y="665" type="curve"/>
      <point x="221" y="627" type="line"/>
      <point x="280" y="627"/>
      <point x="320" y="580"/>
      <point x="323" y="524" type="curve" smooth="yes"/>
      <point x="330" y="388"/>
      <point x="224" y="420"/>
      <point x="224" y="309" type="curve" smooth="yes"/>
      <point x="224" y="189"/>
      <point x="407" y="194"/>
      <point x="407" y="103" type="curve" smooth="yes"/>
      <point x="407" y="50"/>
      <point x="365" y="19"/>
      <point x="332" y="22" type="curve" smooth="yes"/>
      <point x="294" y="25"/>
      <point x="254" y="64"/>
      <point x="248" y="122" type="curve"/>
      <point x="221" y="122" type="line"/>
      <point x="225" y="110"/>
      <point x="226" y="62"/>
      <point x="224" y="6" type="curve"/>
      <point x="256" y="-3"/>
      <point x="304" y="-6"/>
    </contour>
    <contour>
      <point x="-9" y="349" type="line"/>
      <point x="119" y="334" type="line"/>
      <point x="119" y="389" type="line"/>
      <point x="60" y="384" type="line"/>
      <point x="-9" y="359" type="line"/>
    </contour>
  </outline>
</glyph>
<glyph name="ae" format="2">
  <advance width="594"/>
  <unicode hex="00E6"/>
  <anchor x="297" y="0" name="bottom"/>
  <anchor x="297" y="384" name="top"/>
  <outline>
    <contour>
      <point x="249" y="177" type="curve"/>
      <point x="308" y="214" type="line"/>
      <point x="308" y="181"/>
      <point x="310" y="133"/>
      <point x="312" y="290" type="curve"/>
      <point x="312" y="351"/>
      <point x="282" y="395"/>
      <point x="221" y="395" type="curve" smooth="yes"/>
      <point x="192" y="395"/>
      <point x="143" y="378"/>
      <point x="104" y="354" type="curve" smooth="yes"/>
      <point x="72" y="332"/>
      <point x="50" y="295"/>
      <point x="50" y="264" type="curve" smooth="yes"/>
      <point x="50" y="233"/>
      <point x="122" y="247"/>
      <point x="122" y="278" type="curve" smooth="yes"/>
      <point x="122" y="294"/>
      <point x="113" y="292"/>
      <point x="113" y="307" type="curve" smooth="yes"/>
      <point x="113" y="334"/>
      <point x="136" y="353"/>
      <point x="169" y="353" type="curve" smooth="yes"/>
      <point x="223" y="353"/>
      <point x="255" y="324"/>
      <point x="253" y="284" type="curve" smooth="yes"/>
      <point x="250" y="218" type="line"/>
      <point x="249" y="205"/>
      <point x="249" y="258"/>
    </contour>
    <contour>
      <point x="123" y="-6" type="curve" smooth="yes"/>
      <point x="166" y="-6"/>
      <point x="229" y="9"/>
      <point x="290" y="70" type="curve"/>
      <point x="269" y="90" type="line"/>
      <point x="238" y="66"/>
      <point x="192" y="44"/>
      <point x="164" y="44" type="curve" smooth="yes"/>
      <point x="135" y="44"/>
      <point x="114" y="71"/>
      <point x="114" y="110" type="curve"/>
      <point x="35" y="94" type="line"/>
      <point x="35" y="35"/>
      <point x="71" y="-6"/>
    </contour>
    <contour>
      <point x="36" y="94" type="curve"/>
      <point x="115" y="110" type="line"/>
      <point x="115" y="131"/>
      <point x="186" y="158"/>
      <point x="281" y="175" type="curve"/>
      <point x="282" y="211" type="line"/>
      <point x="140" y="188"/>
      <point x="36" y="137"/>
    </contour>
    <contour>
      <point x="310" y="210" type="curve" smooth="yes"/>
      <point x="310" y="302"/>
      <point x="352" y="362"/>
      <point x="412" y="362" type="curve" smooth="yes"/>
      <point x="457" y="362"/>
      <point x="491" y="325"/>
      <point x="494" y="266" type="curve"/>
      <point x="287" y="260" type="line"/>
      <point x="283" y="231" type="line"/>
      <point x="563" y="225" type="line"/>
      <point x="575" y="239" type="line"/>
      <point x="575" y="330"/>
      <point x="513" y="395"/>
      <point x="426" y="395" type="curve" smooth="yes"/>
      <point x="314" y="395"/>
      <point x="249" y="309"/>
      <point x="249" y="188" type="curve" smooth="yes"/>
      <point x="249" y="71"/>
      <point x="306" y="-11"/>
      <point x="407" y="-11" type="curve" smooth="yes"/>
      <point x="469" y="-11"/>
      <point x="538" y="33"/>
      <point x="573" y="95" type="curve"/>
      <point x="555" y="108" type="line"/>
      <point x="532" y="75"/>
      <point x="480" y="52"/>
      <point x="428" y="52" type="curve" smooth="yes"/>
      <point x="359" y="52"/>
      <point x="310" y="117"/>
    </contour>
  </outline>
</glyph>
<glyph name="eth" format="2">
  <advance width="468"/>
  <unicode hex="00F0"/>
  <anchor x="234" y="0" name="bottom"/>
  <anchor x="234" y="694" name="top"/>
  <outline>
    <contour>
      <point x="229" y="-6" type="curve" smooth="yes"/>
      <point x="346" y="-6"/>
      <point x="429" y="100"/>
      <point x="429" y="249" type="curve" smooth="yes"/>
      <point x="429" y="426"/>
      <point x="302" y="596"/>
      <point x="123" y="659" type="curve"/>
      <point x="107" y="611" type="line"/>
      <point x="248" y="561"/>
      <point x="348" y="401"/>
      <point x="348" y="226" type="curve" smooth="yes"/>
      <point x="348" y="113"/>
      <point x="304" y="33"/>
      <point x="241" y="33" type="curve" smooth="yes"/>
      <point x="166" y="33"/>
      <point x="113" y="110"/>
      <point x="113" y="220" type="curve" smooth="yes"/>
      <point x="113" y="299"/>
      <point x="162" y="355"/>
      <point x="231" y="355" type="curve" smooth="yes"/>
      <point x="299" y="355"/>
      <point x="349" y="322"/>
      <point x="351" y="275" type="curve"/>
      <point x="367" y="296" type="line"/>
      <point x="359" y="354"/>
      <point x="306" y="395"/>
      <point x="239" y="395" type="curve" smooth="yes"/>
      <point x="120" y="395"/>
      <point x="36" y="313"/>
      <point x="36" y="198" type="curve" smooth="yes"/>
      <point x="36" y="79"/>
      <point x="116" y="-6"/>
    </contour>
    <contour>
      <point x="209" y="471" type="line"/>
      <point x="220" y="441" type="line"/>
      <point x="407" y="509" type="line"/>
      <point x="397" y="539" type="line"/>
    </contour>
  </outline>
</glyph>
<glyph name="divide" format="2">
  <advance width="582"/>
  <unicode hex="00F7"/>
  <outline>
    <contour>
      <point x="48" y="256" type="line"/>
      <point x="534" y="256" type="line"/>
      <point x="534" y="306" type="line"/>
      <point x="48" y="306" type="line"/>
    </contour>
    <contour>
      <point x="285" y="56" type="curve" smooth="yes"/>
      <point x="318" y="56"/>
      <point x="335" y="73"/>
      <point x="335" y="107" type="curve" smooth="yes"/>
      <point x="335" y="141"/>
      <point x="318" y="158"/>
      <point x="285" y="158" type="curve" smooth="yes"/>
      <point x="250" y="158"/>
      <point x="233" y="141"/>
      <point x="233" y="107" type="curve" smooth="yes"/>
      <point x="233" y="73"/>
      <point x="250" y="56"/>
    </contour>
    <contour>
      <point x="285" y="398" type="curve" smooth="yes"/>
      <point x="318" y="398"/>
      <point x="335" y="415"/>
      <point x="335" y="449" type="curve" smooth="yes"/>
      <point x="335" y="483"/>
      <point x="318" y="500"/>
      <point x="285" y="500" type="curve" smooth="yes"/>
      <point x="250" y="500"/>
      <point x="233" y="483"/>
      <point x="233" y="449" type="curve" smooth="yes"/>
      <point x="233" y="415"/>
      <point x="250" y="398"/>
    </contour>
  </outline>
</glyph>
<glyph name="thorn" format="2">
  <advance width="474"/>
  <unicode hex="00FE"/>
  <anchor x="235" y="0" name="bottom"/>
  <anchor x="235" y="694" name="top"/>
  <outline>
    <contour>
      <point x="363" y="174" type="curve"/>
      <point x="442" y="205" type="line"/>
      <point x="442" y="316"/>
      <point x="371" y="395"/>
      <point x="273" y="395" type="curve" smooth="yes"/>
      <point x="228" y="395"/>
      <point x="157" y="362"/>
      <point x="100" y="315" type="curve"/>
      <point x="100" y="296" type="line"/>
      <point x="138" y="319"/>
      <point x="191" y="335"/>
      <point x="228" y="335" type="curve" smooth="yes"/>
      <point x="306" y="335"/>
      <point x="363" y="268"/>
    </contour>
    <contour>
      <point x="10" y="-232" type="line"/>
      <point x="226" y="-232" type="line"/>
      <point x="226" y="-214" type="line"/>
      <point x="172" y="-204"/>
      <point x="136" y="-201"/>
      <point x="136" y="-164" type="curve" smooth="yes"/>
      <point x="136" y="316" type="line"/>
      <point x="135" y="316" type="line"/>
      <point x="136" y="660" type="line"/>
      <point x="123" y="668" type="line"/>
      <point x="-8" y="628" type="line"/>
      <point x="-8" y="607" type="line"/>
      <point x="39" y="592"/>
      <point x="64" y="575"/>
      <point x="64" y="564" type="curve" smooth="yes"/>
      <point x="64" y="-164" type="line" smooth="yes"/>
      <point x="64" y="-197"/>
      <point x="48" y="-200"/>
      <point x="10" y="-214" type="curve"/>
    </contour>
    <contour>
      <point x="442" y="205" type="curve"/>
      <point x="363" y="174" type="line"/>
      <point x="363" y="87"/>
      <point x="307" y="26"/>
      <point x="229" y="26" type="curve" smooth="yes"/>
      <point x="186" y="26"/>
      <point x="135" y="64"/>
      <point x="110" y="117" type="curve"/>
      <point x="84" y="28" type="line"/>
      <point x="116" y="5"/>
      <point x="168" y="-11"/>
      <point x="208" y="-11" type="curve" smooth="yes"/>
      <point x="345" y="-11"/>
      <point x="442" y="78"/>
    </contour>
  </outline>
</glyph>
<glyph name="Dtail" format="2">
  <advance width="702"/>
  <unicode hex="0189"/>
  <anchor x="272" y="0" name="bottom"/>
  <anchor x="164" y="308" name="center"/>
  <anchor x="271" y="616" name="top"/>
  <outline>
    <contour>
      <point x="36" y="344" type="line"/>
      <point x="36" y="298" type="line"/>
      <point x="261" y="299" type="line"/>
      <point x="261" y="344" type="line"/>
    </contour>
    <component base="D"/>
  </outline>
</glyph>
<glyph name="florin" format="2">
  <advance width="432"/>
  <unicode hex="0192"/>
  <outline>
    <contour>
      <point x="141" y="81" type="curve" smooth="yes"/>
      <point x="141" y="33"/>
      <point x="140" y="-90"/>
      <point x="109" y="-138" type="curve" smooth="yes"/>
      <point x="102" y="-150"/>
      <point x="92" y="-157"/>
      <point x="80" y="-157" type="curve" smooth="yes"/>
      <point x="61" y="-158"/>
      <point x="59" y="-135"/>
      <point x="40" y="-134" type="curve" smooth="yes"/>
      <point x="7" y="-134"/>
      <point x="-16" y="-163"/>
      <point x="-16" y="-205" type="curve" smooth="yes"/>
      <point x="-16" y="-220"/>
      <point x="2" y="-232"/>
      <point x="28" y="-232" type="curve" smooth="yes"/>
      <point x="62" y="-232"/>
      <point x="117" y="-190"/>
      <point x="135" y="-164" type="curve" smooth="yes"/>
      <point x="182" y="-96"/>
      <point x="213" y="29"/>
      <point x="213" y="148" type="curve" smooth="yes"/>
      <point x="213" y="234"/>
      <point x="213" y="304"/>
      <point x="213" y="449" type="curve" smooth="yes"/>
      <point x="213" y="510"/>
      <point x="214" y="624"/>
      <point x="283" y="624" type="curve" smooth="yes"/>
      <point x="306" y="624"/>
      <point x="315" y="617"/>
      <point x="324" y="606" type="curve" smooth="yes"/>
      <point x="333" y="593"/>
      <point x="337" y="576"/>
      <point x="348" y="567" type="curve" smooth="yes"/>
      <point x="371" y="546"/>
      <point x="433" y="615"/>
      <point x="411" y="638" type="curve" smooth="yes"/>
      <point x="393" y="656"/>
      <point x="360" y="665"/>
      <point x="319" y="665" type="curve" smooth="yes"/>
      <point x="261" y="665"/>
      <point x="213" y="631"/>
      <point x="185" y="590" type="curve" smooth="yes"/>
      <point x="151" y="540"/>
      <point x="141" y="492"/>
      <point x="141" y="387" type="curve" smooth="yes"/>
      <point x="141" y="304"/>
      <point x="141" y="233"/>
    </contour>
    <contour>
      <point x="356" y="334" type="line"/>
      <point x="356" y="389" type="line"/>
      <point x="147" y="384" type="line"/>
      <point x="68" y="359" type="line"/>
      <point x="68" y="349" type="line"/>
    </contour>
  </outline>
</glyph>
<glyph name="schwa" format="2">
  <advance width="396"/>
  <unicode hex="0259"/>
  <anchor x="198" y="0" name="bottom"/>
  <anchor x="186" y="384" name="top"/>
  <outline>
    <contour>
      <point x="285" y="174" type="curve" smooth="yes"/>
      <point x="285" y="82"/>
      <point x="241" y="22"/>
      <point x="181" y="22" type="curve" smooth="yes"/>
      <point x="136" y="22"/>
      <point x="102" y="59"/>
      <point x="99" y="118" type="curve"/>
      <point x="308" y="124" type="line"/>
      <point x="312" y="153" type="line"/>
      <point x="30" y="159" type="line"/>
      <point x="18" y="145" type="line"/>
      <point x="18" y="54"/>
      <point x="80" y="-11"/>
      <point x="167" y="-11" type="curve" smooth="yes"/>
      <point x="279" y="-11"/>
      <point x="360" y="75"/>
      <point x="360" y="196" type="curve" smooth="yes"/>
      <point x="360" y="313"/>
      <point x="287" y="395"/>
      <point x="186" y="395" type="curve" smooth="yes"/>
      <point x="124" y="395"/>
      <point x="55" y="351"/>
      <point x="20" y="289" type="curve"/>
      <point x="38" y="276" type="line"/>
      <point x="61" y="309"/>
      <point x="113" y="332"/>
      <point x="165" y="332" type="curve" smooth="yes"/>
      <point x="234" y="332"/>
      <point x="285" y="267"/>
    </contour>
  </outline>
</glyph>
<glyph name="caroncomb" format="2">
  <unicode hex="030C"/>
  <anchor x="151" y="384" name="_top"/>
  <anchor x="151" y="620" name="top"/>
  <outline>
    <contour>
      <point x="40" y="620" type="line"/>
      <point x="26" y="608" type="line"/>
      <point x="119" y="466" type="line" smooth="yes"/>
      <point x="129" y="450"/>
      <point x="173" y="450"/>
      <point x="183" y="466" type="curve" smooth="yes"/>
      <point x="276" y="608" type="line"/>
      <point x="262" y="620" type="line"/>
      <point x="151" y="516" type="line"/>
    </contour>
  </outline>
</glyph>
<glyph name="lowernumeral-greek" format="2">
  <advance width="600"/>
  <unicode hex="0375"/>
  <outline>
    <contour>
      <point x="165" y="-110" type="line"/>
      <point x="185" y="-125" type="line"/>
      <point x="369" y="39" type="line"/>
      <point x="377" y="48"/>
      <point x="355" y="65"/>
      <point x="334" y="83" type="curve" smooth="yes"/>
      <point x="309" y="99"/>
      <point x="287" y="103"/>
      <point x="280" y="92" type="curve"/>
    </contour>
  </outline>
</glyph>
<glyph name="dieresistonos" format="2">
  <advance width="288"/>
  <unicode hex="0385"/>
  <anchor x="137" y="435" name="_top"/>
  <outline>
    <contour>
      <point x="101" y="518" type="line"/>
      <point x="120" y="514" type="line"/>
      <point x="195" y="681" type="line"/>
      <point x="198" y="690"/>
      <point x="178" y="696"/>
      <point x="158" y="701" type="curve" smooth="yes"/>
      <point x="136" y="704"/>
      <point x="120" y="700"/>
      <point x="119" y="691" type="curve"/>
    </contour>
    <contour>
      <point x="42" y="562" type="curve" smooth="yes"/>
      <point x="65" y="562"/>
      <point x="84" y="581"/>
      <point x="84" y="604" type="curve" smooth="yes"/>
      <point x="84" y="627"/>
      <point x="65" y="646"/>
      <point x="42" y="646" type="curve" smooth="yes"/>
      <point x="19" y="646"/>
      <point x="0" y="627"/>
      <point x="0" y="604" type="curve" smooth="yes"/>
      <point x="0" y="581"/>
      <point x="19" y="562"/>
    </contour>
    <contour>
      <point x="231" y="562" type="curve" smooth="yes"/>
      <point x="254" y="562"/>
      <point x="273" y="581"/>
      <point x="273" y="604" type="curve" smooth="yes"/>
      <point x="273" y="627"/>
      <point x="254" y="646"/>
      <point x="231" y="646" type="curve" smooth="yes"/>
      <point x="208" y="646"/>
      <point x="189" y="627"/>
      <point x="189" y="604" type="curve" smooth="yes"/>
      <point x="189" y="581"/>
      <point x="208" y="562"/>
    </contour>
  </outline>
</glyph>
<glyph name="Delta" format="2">
  <advance width="590"/>
  <unicode hex="0394"/>
  <unicode hex="2206"/>
  <outline>
    <contour>
      <point x="464" y="0" type="line"/>
      <point x="558" y="0" type="line"/>
      <point x="488" y="176"/>
      <point x="366" y="484"/>
      <point x="301" y="648" type="curve"/>
      <point x="261" y="576" type="line"/>
      <point x="254" y="550" type="line"/>
    </contour>
    <contour>
      <point x="32" y="0" type="curve"/>
      <point x="87" y="0" type="line"/>
      <point x="294" y="564" type="line"/>
      <point x="261" y="576" type="line"/>
      <point x="199" y="412"/>
      <point x="95" y="127"/>
    </contour>
    <contour>
      <point x="54" y="0" type="line"/>
      <point x="524" y="0" type="line"/>
      <point x="510" y="58" type="line"/>
      <point x="71" y="58" type="line"/>
    </contour>
  </outline>
</glyph>
<glyph name="Iota" format="2">
  <advance width="288"/>
  <unicode hex="0399"/>
  <anchor x="20" y="616" name="topleft"/>
  <outline>
    <contour>
      <point x="18" y="25" type="curve"/>
      <point x="18" y="0" type="line"/>
      <point x="270" y="0" type="line"/>
      <point x="270" y="25" type="line"/>
      <point x="231" y="31"/>
      <point x="208" y="32"/>
      <point x="196" y="41" type="curve" smooth="yes"/>
      <point x="185" y="49"/>
      <point x="181" y="63"/>
      <point x="181" y="91" type="curve" smooth="yes"/>
      <point x="179" y="217"/>
      <point x="181" y="327"/>
      <point x="181" y="525" type="curve" smooth="yes"/>
      <point x="181" y="555"/>
      <point x="190" y="570"/>
      <point x="205" y="577" type="curve" smooth="yes"/>
      <point x="222" y="586"/>
      <point x="246" y="586"/>
      <point x="270" y="591" type="curve"/>
      <point x="270" y="616" type="line"/>
      <point x="18" y="616" type="line"/>
      <point x="18" y="593" type="line"/>
      <point x="55" y="587"/>
      <point x="79" y="586"/>
      <point x="92" y="575" type="curve" smooth="yes"/>
      <point x="102" y="566"/>
      <point x="107" y="552"/>
      <point x="107" y="525" type="curve" smooth="yes"/>
      <point x="109" y="382"/>
      <point x="109" y="234"/>
      <point x="107" y="91" type="curve" smooth="yes"/>
      <point x="107" y="62"/>
      <point x="103" y="47"/>
      <point x="93" y="39" type="curve" smooth="yes"/>
      <point x="78" y="27"/>
      <point x="53" y="30"/>
    </contour>
  </outline>
</glyph>
<glyph name="Phi" format="2">
  <advance width="756"/>
  <unicode hex="03A6"/>
  <outline>
    <contour>
      <point x="252" y="25" type="curve"/>
      <point x="252" y="0" type="line"/>
      <point x="504" y="0" type="line"/>
      <point x="504" y="25" type="line"/>
      <point x="465" y="31"/>
      <point x="442" y="32"/>
      <point x="430" y="41" type="curve" smooth="yes"/>
      <point x="419" y="49"/>
      <point x="415" y="63"/>
      <point x="415" y="91" type="curve" smooth="yes"/>
      <point x="413" y="217"/>
      <point x="415" y="327"/>
      <point x="415" y="525" type="curve" smooth="yes"/>
      <point x="415" y="555"/>
      <point x="424" y="570"/>
      <point x="439" y="577" type="curve" smooth="yes"/>
      <point x="456" y="586"/>
      <point x="480" y="586"/>
      <point x="504" y="591" type="curve"/>
      <point x="504" y="616" type="line"/>
      <point x="252" y="616" type="line"/>
      <point x="252" y="593" type="line"/>
      <point x="289" y="587"/>
      <point x="313" y="586"/>
      <point x="326" y="575" type="curve" smooth="yes"/>
      <point x="336" y="566"/>
      <point x="341" y="552"/>
      <point x="341" y="525" type="curve" smooth="yes"/>
      <point x="343" y="382"/>
      <point x="343" y="234"/>
      <point x="341" y="91" type="curve" smooth="yes"/>
      <point x="341" y="62"/>
      <point x="337" y="47"/>
      <point x="327" y="39" type="curve" smooth="yes"/>
      <point x="312" y="27"/>
      <point x="287" y="30"/>
    </contour>
    <contour>
      <point x="375" y="99" type="curve" smooth="yes"/>
      <point x="576" y="99"/>
      <point x="702" y="180"/>
      <point x="702" y="310" type="curve" smooth="yes"/>
      <point x="702" y="439"/>
      <point x="576" y="520"/>
      <point x="375" y="520" type="curve" smooth="yes"/>
      <point x="178" y="520"/>
      <point x="54" y="439"/>
      <point x="54" y="310" type="curve" smooth="yes"/>
      <point x="54" y="180"/>
      <point x="178" y="99"/>
    </contour>
    <contour>
      <point x="150" y="320" type="curve" smooth="yes"/>
      <point x="150" y="418"/>
      <point x="230" y="479"/>
      <point x="358" y="479" type="curve" smooth="yes"/>
      <point x="510" y="479"/>
      <point x="606" y="410"/>
      <point x="606" y="300" type="curve" smooth="yes"/>
      <point x="606" y="202"/>
      <point x="523" y="140"/>
      <point x="392" y="140" type="curve" smooth="yes"/>
      <point x="243" y="140"/>
      <point x="150" y="209"/>
    </contour>
  </outline>
</glyph>
<glyph name="Omega" format="2">
  <advance width="678"/>
  <unicode hex="03A9"/>
  <unicode hex="2126"/>
  <anchor x="339" y="0" name="bottom"/>
  <anchor x="-19" y="616" name="topleft"/>
  <outline>
    <contour>
      <point x="404" y="37" type="curve"/>
      <point x="404" y="0" type="line"/>
      <point x="459" y="1"/>
      <point x="563" y="0"/>
      <point x="656" y="-3" type="curve"/>
      <point x="654" y="55"/>
      <point x="656" y="114"/>
      <point x="662" y="139" type="curve"/>
      <point x="633" y="139" type="line"/>
      <point x="619" y="83"/>
      <point x="588" y="42"/>
      <point x="557" y="40" type="curve" smooth="yes"/>
      <point x="543" y="38"/>
      <point x="480" y="37"/>
    </contour>
    <contour>
      <point x="274" y="37" type="line"/>
      <point x="198" y="37"/>
      <point x="135" y="38"/>
      <point x="121" y="40" type="curve" smooth="yes"/>
      <point x="90" y="42"/>
      <point x="59" y="83"/>
      <point x="45" y="139" type="curve"/>
      <point x="16" y="139" type="line"/>
      <point x="22" y="114"/>
      <point x="24" y="55"/>
      <point x="22" y="-3" type="curve"/>
      <point x="115" y="0"/>
      <point x="219" y="1"/>
      <point x="274" y="0" type="curve"/>
    </contour>
    <contour>
      <point x="393" y="61" type="line"/>
      <point x="540" y="93"/>
      <point x="644" y="175"/>
      <point x="644" y="344" type="curve" smooth="yes"/>
      <point x="644" y="517"/>
      <point x="524" y="626"/>
      <point x="334" y="626" type="curve" smooth="yes"/>
      <point x="148" y="626"/>
      <point x="32" y="518"/>
      <point x="32" y="345" type="curve" smooth="yes"/>
      <point x="32" y="177"/>
      <point x="134" y="87"/>
      <point x="283" y="55" type="curve"/>
      <point x="285" y="116" type="line"/>
      <point x="194" y="152"/>
      <point x="128" y="221"/>
      <point x="128" y="354" type="curve" smooth="yes"/>
      <point x="128" y="496"/>
      <point x="201" y="585"/>
      <point x="318" y="585" type="curve" smooth="yes"/>
      <point x="459" y="585"/>
      <point x="548" y="488"/>
      <point x="548" y="334" type="curve" smooth="yes"/>
      <point x="548" y="189"/>
      <point x="481" y="133"/>
      <point x="393" y="117" type="curve"/>
    </contour>
    <contour>
      <point x="393" y="117" type="line"/>
      <point x="393" y="1" type="line"/>
      <point x="439" y="1" type="line"/>
      <point x="457" y="117" type="line"/>
    </contour>
    <contour>
      <point x="239" y="116" type="line"/>
      <point x="221" y="0" type="line"/>
      <point x="285" y="0" type="line"/>
      <point x="285" y="116" type="line"/>
    </contour>
  </outline>
</glyph>
<glyph name="zeta" format="2">
  <advance width="360"/>
  <unicode hex="03B6"/>
  <outline>
    <contour>
      <point x="238" y="-168" type="line"/>
      <point x="300" y="-123"/>
      <point x="333" y="-78"/>
      <point x="333" y="-29" type="curve" smooth="yes"/>
      <point x="333" y="144"/>
      <point x="100" y="47"/>
      <point x="100" y="222" type="curve" smooth="yes"/>
      <point x="100" y="340"/>
      <point x="178" y="416"/>
      <point x="323" y="528" type="curve"/>
      <point x="313" y="573" type="line"/>
      <point x="249" y="516" type="line"/>
      <point x="103" y="405"/>
      <point x="30" y="325"/>
      <point x="30" y="204" type="curve" smooth="yes"/>
      <point x="30" y="-1"/>
      <point x="266" y="65"/>
      <point x="266" y="-62" type="curve" smooth="yes"/>
      <point x="266" y="-87"/>
      <point x="249" y="-117"/>
      <point x="216" y="-150" type="curve"/>
    </contour>
    <contour>
      <point x="10" y="496" type="line"/>
      <point x="273" y="513" type="line"/>
      <point x="313" y="573" type="line"/>
      <point x="227" y="565"/>
      <point x="87" y="565"/>
      <point x="37" y="571" type="curve"/>
    </contour>
  </outline>
</glyph>
<glyph name="lambda" format="2">
  <advance width="505"/>
  <unicode hex="03BB"/>
  <outline>
    <contour>
      <point x="276" y="0" type="line"/>
      <point x="487" y="0" type="line"/>
      <point x="487" y="20" type="line"/>
      <point x="437" y="26"/>
      <point x="416" y="64"/>
      <point x="386" y="135" type="curve" smooth="yes"/>
      <point x="201" y="567" type="line" smooth="yes"/>
      <point x="183" y="609"/>
      <point x="131" y="641"/>
      <point x="56" y="641" type="curve"/>
      <point x="56" y="595" type="line"/>
      <point x="105" y="595"/>
      <point x="134" y="576"/>
      <point x="144" y="550" type="curve" smooth="yes"/>
      <point x="301" y="139" type="line" smooth="yes"/>
      <point x="338" y="42"/>
      <point x="342" y="35"/>
      <point x="276" y="25" type="curve"/>
    </contour>
    <contour>
      <point x="1" y="0" type="line"/>
      <point x="115" y="0" type="line"/>
      <point x="240" y="349" type="line"/>
      <point x="225" y="427" type="line"/>
      <point x="71" y="76" type="line" smooth="yes"/>
      <point x="62" y="56"/>
      <point x="56" y="44"/>
      <point x="48" y="38" type="curve" smooth="yes"/>
      <point x="39" y="30"/>
      <point x="21" y="20"/>
      <point x="1" y="18" type="curve"/>
    </contour>
  </outline>
</glyph>
<glyph name="mu" format="2">
  <advance width="480"/>
  <unicode hex="03BC"/>
  <outline>
    <contour>
      <point x="204" y="-11" type="curve" smooth="yes"/>
      <point x="248" y="-11"/>
      <point x="305" y="32"/>
      <point x="357" y="89" type="curve"/>
      <point x="357" y="108" type="line"/>
      <point x="325" y="75"/>
      <point x="276" y="49"/>
      <point x="239" y="49" type="curve" smooth="yes"/>
      <point x="188" y="49"/>
      <point x="150" y="77"/>
      <point x="148" y="145" type="curve" smooth="yes"/>
      <point x="146" y="201"/>
      <point x="150" y="265"/>
      <point x="151" y="321" type="curve" smooth="yes"/>
      <point x="153" y="394" type="line"/>
      <point x="140" y="403" type="line"/>
      <point x="5" y="369" type="line"/>
      <point x="5" y="351" type="line"/>
      <point x="53" y="337"/>
      <point x="79" y="332"/>
      <point x="79" y="301" type="curve" smooth="yes"/>
      <point x="80" y="111" type="line" smooth="yes"/>
      <point x="80" y="40"/>
      <point x="137" y="-11"/>
    </contour>
    <contour>
      <point x="76" y="-232" type="line"/>
      <point x="139" y="-232" type="line"/>
      <point x="146" y="-193"/>
      <point x="149" y="-119"/>
      <point x="149" y="-80" type="curve" smooth="yes"/>
      <point x="148" y="145" type="line"/>
      <point x="80" y="111" type="line"/>
      <point x="80" y="64"/>
      <point x="77" y="-21"/>
      <point x="77" y="-120" type="curve" smooth="yes"/>
    </contour>
    <contour>
      <point x="340" y="-11" type="line"/>
      <point x="473" y="17" type="line"/>
      <point x="473" y="38" type="line"/>
      <point x="440" y="41"/>
      <point x="399" y="55"/>
      <point x="399" y="76" type="curve" smooth="yes"/>
      <point x="402" y="321" type="line"/>
      <point x="404" y="394" type="line"/>
      <point x="391" y="403" type="line"/>
      <point x="257" y="369" type="line"/>
      <point x="257" y="351" type="line"/>
      <point x="303" y="337"/>
      <point x="326" y="331"/>
      <point x="328" y="301" type="curve" smooth="yes"/>
      <point x="333" y="219"/>
      <point x="330" y="146"/>
      <point x="325" y="64" type="curve"/>
      <point x="328" y="64" type="line"/>
      <point x="327" y="-5" type="line"/>
    </contour>
  </outline>
</glyph>
<glyph name="pi" format="2">
  <advance width="497"/>
  <unicode hex="03C0"/>
  <outline>
    <contour>
      <point x="390" y="-11" type="curve" smooth="yes"/>
      <point x="418" y="-11"/>
      <point x="446" y="5"/>
      <point x="481" y="27" type="curve"/>
      <point x="471" y="48" type="line"/>
      <point x="452" y="40"/>
      <point x="429" y="34"/>
      <point x="417" y="34" type="curve" smooth="yes"/>
      <point x="387" y="34"/>
      <point x="383" y="52"/>
      <point x="381" y="78" type="curve" smooth="yes"/>
      <point x="379" y="104"/>
      <point x="378" y="149"/>
      <point x="378" y="186" type="curve" smooth="yes"/>
      <point x="378" y="251"/>
      <point x="380" y="313"/>
      <point x="383" y="363" type="curve"/>
      <point x="310" y="381" type="line"/>
      <point x="303" y="222"/>
      <point x="302" y="83"/>
      <point x="306" y="46" type="curve" smooth="yes"/>
      <point x="310" y="13"/>
      <point x="345" y="-11"/>
    </contour>
    <contour>
      <point x="88" y="0" type="line"/>
      <point x="160" y="0" type="line"/>
      <point x="160" y="287" type="line"/>
      <point x="162" y="384" type="line"/>
      <point x="16" y="385" type="line"/>
      <point x="16" y="364" type="line"/>
      <point x="37" y="356"/>
      <point x="88" y="343"/>
      <point x="88" y="311" type="curve" smooth="yes"/>
    </contour>
    <contour>
      <point x="148" y="339" type="line"/>
      <point x="442" y="339" type="line"/>
      <point x="442" y="389" type="line"/>
      <point x="349" y="383"/>
      <point x="255" y="382"/>
      <point x="162" y="384" type="curve"/>
    </contour>
  </outline>
</glyph>
<glyph name="sigma" format="2">
  <advance width="468"/>
  <unicode hex="03C3"/>
  <outline>
    <contour>
      <point x="239" y="-8" type="curve" smooth="yes"/>
      <point x="352" y="-8"/>
      <point x="432" y="77"/>
      <point x="432" y="196" type="curve" smooth="yes"/>
      <point x="432" y="286"/>
      <point x="352" y="392"/>
      <point x="239" y="392" type="curve" smooth="yes"/>
      <point x="120" y="392"/>
      <point x="36" y="306"/>
      <point x="36" y="185" type="curve" smooth="yes"/>
      <point x="36" y="72"/>
      <point x="120" y="-8"/>
    </contour>
    <contour>
      <point x="118" y="208" type="curve" smooth="yes"/>
      <point x="118" y="295"/>
      <point x="165" y="356"/>
      <point x="231" y="356" type="curve" smooth="yes"/>
      <point x="301" y="356"/>
      <point x="350" y="281"/>
      <point x="350" y="174" type="curve" smooth="yes"/>
      <point x="350" y="88"/>
      <point x="307" y="27"/>
      <point x="247" y="27" type="curve" smooth="yes"/>
      <point x="171" y="27"/>
      <point x="118" y="103"/>
    </contour>
    <contour>
      <point x="239" y="392" type="curve"/>
      <point x="303" y="355" type="line"/>
      <point x="450" y="340" type="line"/>
      <point x="450" y="399" type="line"/>
      <point x="380" y="392"/>
      <point x="309" y="392"/>
    </contour>
  </outline>
</glyph>
<glyph name="uni2010" format="2">
  <advance width="324"/>
  <unicode hex="2010"/>
  <outline>
    <contour>
      <point x="39" y="186" type="line"/>
      <point x="285" y="190" type="line"/>
      <point x="288" y="253" type="line"/>
      <point x="239" y="253" type="line"/>
      <point x="77" y="239" type="line"/>
      <point x="36" y="231" type="line"/>
    </contour>
  </outline>
</glyph>
<glyph name="quoteleft" format="2">
  <advance width="240"/>
  <unicode hex="2018"/>
  <outline>
    <contour>
      <point x="185" y="624" type="curve"/>
      <point x="175" y="651" type="line"/>
      <point x="100" y="621"/>
      <point x="48" y="549"/>
      <point x="48" y="478" type="curve" smooth="yes"/>
      <point x="48" y="432"/>
      <point x="80" y="395"/>
      <point x="130" y="395" type="curve" smooth="yes"/>
      <point x="166" y="395"/>
      <point x="192" y="419"/>
      <point x="192" y="448" type="curve" smooth="yes"/>
      <point x="192" y="470"/>
      <point x="180" y="491"/>
      <point x="160" y="491" type="curve" smooth="yes"/>
      <point x="142" y="491"/>
      <point x="139" y="484"/>
      <point x="124" y="484" type="curve" smooth="yes"/>
      <point x="110" y="484"/>
      <point x="102" y="500"/>
      <point x="102" y="523" type="curve" smooth="yes"/>
      <point x="102" y="572"/>
      <point x="137" y="611"/>
    </contour>
  </outline>
</glyph>
<glyph name="quoteright" format="2">
  <advance width="240"/>
  <unicode hex="2019"/>
  <outline>
    <contour>
      <point x="57" y="396" type="curve"/>
      <point x="67" y="369" type="line"/>
      <point x="142" y="399"/>
      <point x="192" y="471"/>
      <point x="192" y="542" type="curve" smooth="yes"/>
      <point x="192" y="588"/>
      <point x="158" y="625"/>
      <point x="108" y="625" type="curve" smooth="yes"/>
      <point x="72" y="625"/>
      <point x="48" y="601"/>
      <point x="48" y="572" type="curve" smooth="yes"/>
      <point x="48" y="550"/>
      <point x="62" y="529"/>
      <point x="82" y="529" type="curve" smooth="yes"/>
      <point x="100" y="529"/>
      <point x="103" y="536"/>
      <point x="118" y="536" type="curve" smooth="yes"/>
      <point x="132" y="536"/>
      <point x="140" y="520"/>
      <point x="140" y="497" type="curve" smooth="yes"/>
      <point x="140" y="448"/>
      <point x="105" y="409"/>
    </contour>
  </outline>
</glyph>
<glyph name="quotedblleft" format="2">
  <advance width="420"/>
  <unicode hex="201C"/>
  <outline>
    <contour>
      <point x="363" y="624" type="curve"/>
      <point x="353" y="651" type="line"/>
      <point x="278" y="621"/>
      <point x="226" y="549"/>
      <point x="226" y="478" type="curve" smooth="yes"/>
      <point x="226" y="432"/>
      <point x="260" y="395"/>
      <point x="310" y="395" type="curve" smooth="yes"/>
      <point x="346" y="395"/>
      <point x="372" y="419"/>
      <point x="372" y="448" type="curve" smooth="yes"/>
      <point x="372" y="470"/>
      <point x="358" y="491"/>
      <point x="338" y="491" type="curve" smooth="yes"/>
      <point x="320" y="491"/>
      <point x="317" y="484"/>
      <point x="302" y="484" type="curve" smooth="yes"/>
      <point x="288" y="484"/>
      <point x="280" y="500"/>
      <point x="280" y="523" type="curve" smooth="yes"/>
      <point x="280" y="572"/>
      <point x="315" y="611"/>
    </contour>
    <contour>
      <point x="185" y="624" type="curve"/>
      <point x="175" y="651" type="line"/>
      <point x="100" y="621"/>
      <point x="48" y="549"/>
      <point x="48" y="478" type="curve" smooth="yes"/>
      <point x="48" y="432"/>
      <point x="82" y="395"/>
      <point x="132" y="395" type="curve" smooth="yes"/>
      <point x="168" y="395"/>
      <point x="194" y="419"/>
      <point x="194" y="448" type="curve" smooth="yes"/>
      <point x="194" y="470"/>
      <point x="180" y="491"/>
      <point x="160" y="491" type="curve" smooth="yes"/>
      <point x="142" y="491"/>
      <point x="139" y="484"/>
      <point x="124" y="484" type="curve" smooth="yes"/>
      <point x="110" y="484"/>
      <point x="102" y="500"/>
      <point x="102" y="523" type="curve" smooth="yes"/>
      <point x="102" y="572"/>
      <point x="137" y="611"/>
    </contour>
  </outline>
</glyph>
